<svg width="360" height="170" viewBox="0 0 360 170" fill="none" xmlns="http://www.w3.org/2000/svg">
<path d="M96.2241 57.2822C96.1499 58.0244 95.8901 58.5996 95.4448 59.0078C94.9995 59.4531 94.4243 59.6758 93.7192 59.6758C93.3481 59.6758 92.9956 59.6201 92.6616 59.5088C91.9565 60.0654 91.1216 60.4922 90.1567 60.7891C89.1919 61.0859 88.2827 61.3828 87.4292 61.6797C86.3901 61.6426 85.3696 61.5498 84.3677 61.4014C83.3657 61.2529 82.3267 61.2158 81.2505 61.29C80.8794 61.0303 80.4897 60.8633 80.0815 60.7891C79.6733 60.7148 79.2466 60.6592 78.8013 60.6221C78.3931 60.6221 77.9849 60.5664 77.5767 60.4551C77.2056 60.3438 76.8345 60.084 76.4634 59.6758H73.6802C73.4204 59.6758 73.0308 59.5459 72.5112 59.2861C72.0288 59.0635 71.4722 58.8223 70.8413 58.5625C70.2476 58.3027 69.5981 58.0615 68.8931 57.8389C68.2251 57.6162 67.5942 57.5049 67.0005 57.5049H66.6665C66.2583 57.1709 65.7759 56.9111 65.2192 56.7256C64.6997 56.5771 64.1616 56.4287 63.605 56.2803C63.0483 56.1689 62.5103 56.0391 61.9907 55.8906C61.4712 55.7422 61.0259 55.5381 60.6548 55.2783C60.2837 55.0186 59.8569 54.7588 59.3745 54.499C58.8921 54.2021 58.3911 54.0723 57.8716 54.1094C57.1665 53.7012 56.4243 53.3486 55.645 53.0518C54.9028 52.7549 54.1421 52.4766 53.3628 52.2168L51.0806 51.3818C50.3384 51.085 49.5962 50.7324 48.854 50.3242C48.7427 50.3613 48.6128 50.3613 48.4644 50.3242C48.3159 50.2871 48.186 50.2686 48.0747 50.2686C47.8521 50.2686 47.7222 50.3428 47.6851 50.4912C47.4253 50.2314 47.1284 50.0088 46.7944 49.8232C46.4976 49.6377 46.2007 49.415 45.9038 49.1553C45.7554 49.1924 45.6069 49.2295 45.4585 49.2666C45.3472 49.2666 45.1987 49.2666 45.0132 49.2666C44.6792 49.2666 44.3452 49.2295 44.0112 49.1553C43.7144 49.0811 43.4175 48.9883 43.1206 48.877C42.7866 49.6191 42.564 50.4541 42.4526 51.3818C42.3413 52.3096 42.2485 53.2744 42.1743 54.2764C42.1372 55.2412 42.0815 56.2061 42.0073 57.1709C41.9331 58.1729 41.7661 59.082 41.5063 59.8984C41.5806 60.1953 41.6177 60.4922 41.6177 60.7891V61.7354C41.6177 62.3662 41.7104 62.8672 41.896 63.2383C41.8218 63.5723 41.7476 63.8877 41.6733 64.1846C41.6362 64.4814 41.5806 64.7783 41.5063 65.0752C41.5435 65.4834 41.562 65.8545 41.562 66.1885C41.5991 66.5596 41.6177 66.9492 41.6177 67.3574V68.3037C41.6177 68.6377 41.5806 68.9717 41.5063 69.3057C41.1353 69.5283 40.7642 69.7324 40.3931 69.918C40.022 70.1406 39.6509 70.4004 39.2798 70.6973C39.02 70.2148 38.5747 69.9365 37.9438 69.8623C37.7954 70.0479 37.6841 70.2891 37.6099 70.5859C37.5728 70.9199 37.4058 71.0869 37.1089 71.0869C36.5894 70.6787 36.1626 70.3447 35.8286 70.085C35.4946 69.8252 35.1235 69.4355 34.7153 68.916C34.6782 68.8418 34.6597 68.749 34.6597 68.6377C34.6597 68.4521 34.6968 68.2852 34.771 68.1367C34.8452 67.9883 34.8823 67.8398 34.8823 67.6914C34.8823 67.2461 34.8267 66.8564 34.7153 66.5225C34.6411 66.04 34.5854 65.5576 34.5483 65.0752C34.5112 64.6299 34.4927 64.1846 34.4927 63.7393C34.4927 63.1084 34.5298 62.4961 34.604 61.9023C34.7153 61.3086 34.9009 60.6963 35.1606 60.0654C35.5688 58.9893 35.8472 57.8574 35.9956 56.6699C36.1812 55.4824 36.311 54.2949 36.3853 53.1074C36.4595 51.8828 36.4966 50.6582 36.4966 49.4336C36.5337 48.209 36.6079 47.04 36.7192 45.9268C36.4595 45.333 36.144 44.8691 35.7729 44.5352C35.439 44.1641 35.272 43.5889 35.272 42.8096C35.272 42.1045 35.4946 41.5664 35.9399 41.1953C36.3853 40.7871 36.7749 40.3047 37.1089 39.748C37.0347 39.5254 37.0903 39.377 37.2759 39.3027L37.9438 33.458C37.981 33.0498 38.0366 32.6045 38.1108 32.1221C38.2222 31.6396 38.2964 31.1943 38.3335 30.7861C38.4077 29.9326 38.4448 29.0977 38.4448 28.2812C38.4448 27.4648 38.4819 26.6484 38.5562 25.832C38.7417 24.0137 38.9087 22.2139 39.0571 20.4326C39.2427 18.6514 39.3354 16.8701 39.3354 15.0889C39.3354 14.2354 39.2983 13.3818 39.2241 12.5283C39.187 11.6748 39.0757 10.8213 38.8901 9.96777C38.2593 10.1533 37.5542 10.3574 36.7749 10.5801C36.0327 10.7656 35.4019 11.0996 34.8823 11.582H34.437C33.4722 11.582 32.563 11.7676 31.7095 12.1387C30.8931 12.5098 30.0581 12.8623 29.2046 13.1963C28.8335 13.3818 28.4624 13.5117 28.0913 13.5859C27.7202 13.623 27.3306 13.6973 26.9224 13.8086C26.7368 13.8457 26.5327 13.957 26.3101 14.1426C26.0874 14.3281 25.8833 14.458 25.6978 14.5322L24.7515 14.7549C24.4917 14.8291 24.3804 14.9961 24.4175 15.2559C24.4546 15.5156 24.3618 15.6826 24.1392 15.7568C23.9536 15.9424 23.6938 16.0352 23.3599 16.0352C23.0259 15.998 22.7661 15.9795 22.5806 15.9795H22.3579C21.4302 16.6475 20.5396 17.2227 19.686 17.7051C18.7954 18.1504 17.7563 18.4473 16.5688 18.5957L15.3442 19.375C14.936 19.6348 14.4722 19.7646 13.9526 19.7646C13.5444 19.7646 13.2104 19.6904 12.9507 19.542C12.6538 19.0967 12.4312 18.5957 12.2827 18.0391C12.0972 17.4824 11.8003 17 11.3921 16.5918C11.5776 16.4062 11.7075 16.165 11.7817 15.8682C11.8188 15.5342 11.8745 15.2373 11.9487 14.9775C13.062 14.4951 14.1938 14.0312 15.3442 13.5859C16.4575 13.1406 17.5337 12.6025 18.5728 11.9717C18.6841 12.0088 18.8511 12.0273 19.0737 12.0273C19.4448 12.0273 19.7788 11.9717 20.0757 11.8604C20.3726 11.749 20.6694 11.6191 20.9663 11.4707C21.2632 11.3223 21.5601 11.1924 21.8569 11.0811C22.1538 10.9697 22.5063 10.9326 22.9146 10.9697C24.1763 10.2646 25.5122 9.68945 26.9224 9.24414C28.3325 8.79883 29.6685 8.18652 30.9302 7.40723C31.1157 7.40723 31.2642 7.44434 31.3755 7.51855C31.5239 7.59277 31.6724 7.62988 31.8208 7.62988C31.9692 7.62988 32.062 7.61133 32.0991 7.57422C32.3218 7.27734 32.6187 7.07324 32.9897 6.96191C33.3608 6.81348 33.7319 6.70215 34.103 6.62793C34.5112 6.5166 34.8823 6.38672 35.2163 6.23828C35.5874 6.05273 35.8286 5.77441 35.9399 5.40332C36.1255 5.55176 36.4038 5.62598 36.7749 5.62598C37.4058 5.62598 37.981 5.49609 38.5005 5.23633C39.0571 4.97656 39.6509 4.84668 40.2817 4.84668C40.4302 4.84668 40.5601 4.88379 40.6714 4.95801C40.8198 4.99512 40.9683 5.01367 41.1167 5.01367C41.4136 5.01367 41.562 4.9209 41.562 4.73535C41.5991 4.5498 41.7104 4.38281 41.896 4.23438C44.1597 3.82617 46.4048 3.45508 48.6313 3.12109C50.895 2.78711 53.1772 2.62012 55.478 2.62012C55.812 2.39746 56.1831 2.28613 56.5913 2.28613C56.9995 2.28613 57.3706 2.39746 57.7046 2.62012C58.3354 2.5459 58.9663 2.49023 59.5972 2.45312C60.228 2.41602 60.8589 2.39746 61.4897 2.39746C62.937 2.39746 64.4214 2.49023 65.9429 2.67578C67.4644 2.86133 68.9673 3.1582 70.4517 3.56641C71.9731 3.9375 73.4204 4.45703 74.7935 5.125C76.1665 5.75586 77.4468 6.5166 78.6343 7.40723C78.7456 7.74121 78.894 8.0752 79.0796 8.40918C79.2651 8.74316 79.5063 9.00293 79.8032 9.18848C79.8032 9.2627 79.7847 9.31836 79.7476 9.35547C79.7476 9.39258 79.7476 9.44824 79.7476 9.52246C79.7476 9.93066 79.8589 10.3203 80.0815 10.6914C80.3413 11.0625 80.4712 11.5078 80.4712 12.0273C80.4712 12.5469 80.3784 13.0664 80.1929 13.5859C80.0444 14.1055 79.9888 14.625 80.0259 15.1445C79.6177 15.7383 79.2651 16.2764 78.9683 16.7588C78.7085 17.2412 78.5415 17.8535 78.4673 18.5957C77.7993 19.2637 77.2056 20.0059 76.686 20.8223C76.1665 21.6016 75.6284 22.3809 75.0718 23.1602C74.5522 23.9023 73.9585 24.5889 73.2905 25.2197C72.6226 25.8506 71.8247 26.3516 70.897 26.7227C70.8599 27.0938 70.7114 27.502 70.4517 27.9473H69.2827C69.1714 28.2441 68.9858 28.4668 68.7261 28.6152L67.9468 29.0605C67.687 29.209 67.4644 29.3945 67.2788 29.6172C67.1304 29.8398 67.0562 30.1553 67.0562 30.5635C66.9819 30.5264 66.8892 30.5078 66.7778 30.5078C66.4067 30.5078 65.9614 30.6934 65.4419 31.0645C64.9595 31.4355 64.5698 31.7324 64.2729 31.9551C63.6421 32.4004 62.9927 32.8086 62.3247 33.1797C61.6938 33.5508 61.1372 34.0703 60.6548 34.7383C59.1704 35.3691 57.7603 36.1113 56.4243 36.9648C55.0884 37.7812 53.6411 38.4307 52.0825 38.9131C51.4888 39.5439 50.7837 40.0449 49.9673 40.416C49.188 40.75 48.4272 41.1211 47.6851 41.5293V41.6963C47.6851 41.9932 47.7964 42.29 48.019 42.5869C48.2417 42.8467 48.5015 43.0879 48.7983 43.3105C49.0952 43.4961 49.4106 43.626 49.7446 43.7002C50.1157 43.7744 50.4312 43.7744 50.6909 43.7002C51.4331 44.3682 52.2866 44.9062 53.2515 45.3145C54.2163 45.7227 55.2183 46.0938 56.2573 46.4277C57.2964 46.7617 58.3169 47.1143 59.3188 47.4854C60.3208 47.8564 61.2485 48.3203 62.1021 48.877H63.438C64.2915 49.6191 65.2935 50.1758 66.4438 50.5469C67.6313 50.918 68.7632 51.252 69.8394 51.5488C70.2847 51.957 70.8413 52.2725 71.5093 52.4951C72.2144 52.6807 72.8823 52.7734 73.5132 52.7734H73.8472C73.9956 52.7734 74.1255 52.7549 74.2368 52.7178V52.8291C74.2368 53.0146 74.2925 53.1445 74.4038 53.2188C74.5151 53.2559 74.6265 53.293 74.7378 53.3301C74.8862 53.3301 75.0161 53.3672 75.1274 53.4414C75.2759 53.4785 75.3872 53.5527 75.4614 53.6641H76.0181C76.7974 53.6641 77.5396 53.8311 78.2446 54.165C78.9497 54.4619 79.6919 54.6104 80.4712 54.6104C80.8052 54.6104 81.0649 54.5732 81.2505 54.499C81.4731 54.5732 81.6401 54.7217 81.7515 54.9443C81.8628 55.167 82.0112 55.3525 82.1968 55.501C82.4565 55.4639 82.6978 55.4268 82.9204 55.3896C83.1431 55.3896 83.3657 55.3896 83.5884 55.3896C84.4048 55.3896 85.1655 55.4824 85.8706 55.668C86.5757 55.8535 87.2993 56.1318 88.0415 56.5029C89.229 55.9834 90.3979 55.5566 91.5483 55.2227C92.6987 54.8887 93.9233 54.7217 95.2222 54.7217V54.833C95.2222 55.2783 95.3335 55.6865 95.5562 56.0576C95.8159 56.4658 96.0386 56.874 96.2241 57.2822ZM74.9048 12.8623C74.9048 12.417 74.812 12.0645 74.6265 11.8047C74.478 11.5449 74.2739 11.3223 74.0142 11.1367C73.7544 10.9141 73.4761 10.71 73.1792 10.5244C72.9194 10.3389 72.6782 10.0977 72.4556 9.80078C71.4907 9.50391 70.5444 9.16992 69.6167 8.79883C68.689 8.42773 67.7427 8.1123 66.7778 7.85254C66.2954 7.74121 65.813 7.64844 65.3306 7.57422C64.8481 7.46289 64.3657 7.40723 63.8833 7.40723H62.6587C62.436 7.37012 62.1948 7.33301 61.9351 7.2959C61.7124 7.22168 61.4897 7.16602 61.2671 7.12891C60.7476 7.05469 60.228 6.99902 59.7085 6.96191C59.2261 6.9248 58.7251 6.90625 58.2056 6.90625C57.2407 6.90625 56.2759 6.94336 55.311 7.01758L52.4165 7.24023C52.0083 7.27734 51.5815 7.2959 51.1362 7.2959C50.6909 7.2959 50.2827 7.33301 49.9116 7.40723C49.7261 7.44434 49.4663 7.53711 49.1323 7.68555C48.7983 7.79688 48.4458 7.92676 48.0747 8.0752C47.7036 8.18652 47.3325 8.31641 46.9614 8.46484C46.6274 8.61328 46.3306 8.72461 46.0708 8.79883C46.1079 9.05859 46.1265 9.31836 46.1265 9.57812V10.3018C46.1265 10.8584 46.1079 11.415 46.0708 11.9717C46.0337 12.5283 45.9595 13.085 45.8481 13.6416C45.811 13.8643 45.7554 14.0869 45.6812 14.3096C45.6069 14.5322 45.5513 14.7549 45.5142 14.9775C45.4399 15.3115 45.4028 15.6826 45.4028 16.0908V17.1484C45.3286 18.002 45.2729 18.8369 45.2358 19.6533C45.1987 20.4697 45.1431 21.3047 45.0688 22.1582C44.8462 24.6074 44.605 27.0381 44.3452 29.4502C44.1226 31.8623 43.9741 34.293 43.8999 36.7422C45.1245 36.4824 46.2935 36.0928 47.4067 35.5732C48.52 35.0537 49.6147 34.4971 50.6909 33.9033C51.7671 33.2725 52.8433 32.6602 53.9194 32.0664C54.9956 31.4727 56.1274 30.9717 57.3149 30.5635C57.6118 30.1553 57.9644 29.8213 58.3726 29.5615C58.8179 29.3018 59.189 28.9678 59.4858 28.5596C59.8569 28.5596 60.1353 28.4854 60.3208 28.3369C60.5063 28.1514 60.7476 28.0215 61.0444 27.9473C62.8257 26.3887 64.644 24.9229 66.4995 23.5498C68.355 22.1768 70.1362 20.7109 71.8433 19.1523C71.9917 18.6328 72.2329 18.1318 72.5669 17.6494C72.938 17.1299 73.2905 16.6104 73.6245 16.0908C73.9585 15.5713 74.2554 15.0518 74.5151 14.5322C74.7749 14.0127 74.9048 13.4561 74.9048 12.8623ZM113.981 22.7705C113.758 23.1045 113.628 23.4756 113.591 23.8838C113.554 24.292 113.536 24.6631 113.536 24.9971C113.536 25.4424 113.536 25.8877 113.536 26.333C113.573 26.7412 113.591 27.1494 113.591 27.5576V28.3926C113.517 28.6523 113.406 28.9121 113.257 29.1719C113.109 29.4316 112.998 29.6914 112.923 29.9512C112.404 31.3242 112.144 32.6973 112.144 34.0703V34.1816C111.958 34.627 111.773 35.0352 111.587 35.4062C111.439 35.7773 111.291 36.1484 111.142 36.5195C110.994 36.8535 110.882 37.2246 110.808 37.6328C110.734 38.0039 110.715 38.4492 110.752 38.9688C110.233 40.2676 109.546 41.4551 108.693 42.5312C107.839 43.5703 107.004 44.6465 106.188 45.7598C105.409 46.0566 104.685 46.4463 104.017 46.9287C103.386 47.4111 102.774 47.9492 102.18 48.543C101.03 48.9141 99.8979 49.3408 98.7847 49.8232C97.6714 50.3057 96.6694 50.9551 95.7788 51.7715C95.0737 51.8457 94.3687 51.957 93.6636 52.1055C92.9585 52.2539 92.272 52.4766 91.604 52.7734H90.936C90.6021 52.7734 90.3608 52.6992 90.2124 52.5508C89.73 52.8105 89.229 52.9961 88.7095 53.1074C88.1899 53.1816 87.6704 53.2188 87.1509 53.2188C86.4829 53.2188 85.8149 53.1816 85.147 53.1074C84.5161 52.9961 83.8667 52.8848 83.1987 52.7734C82.8276 52.2539 82.3081 51.8643 81.6401 51.6045C80.9722 51.3076 80.3784 51.0293 79.8589 50.7695C78.7827 49.2852 78.0034 47.8564 77.521 46.4834C77.0386 45.0732 76.5376 43.4961 76.0181 41.752C76.0923 41.2324 76.2222 40.7314 76.4077 40.249C76.5933 39.7295 76.6675 39.1729 76.6304 38.5791C77.2983 36.6494 78.1704 34.9053 79.2466 33.3467C80.3599 31.751 81.6216 30.2295 83.0317 28.7822C83.0317 28.5596 83.0688 28.374 83.1431 28.2256C83.2544 28.0771 83.2729 27.8545 83.1987 27.5576C83.2358 27.5947 83.3101 27.6133 83.4214 27.6133C83.7183 27.6133 83.9038 27.5391 83.978 27.3906C84.0522 27.2051 84.0708 27.001 84.0337 26.7783C85.3696 25.9248 86.5757 24.9414 87.6519 23.8281C88.7651 22.7148 90.0269 21.7871 91.437 21.0449C91.5483 20.7109 91.7339 20.4326 91.9937 20.21C92.2534 19.9873 92.4575 19.7275 92.606 19.4307C93.7935 19.0967 94.8696 18.5957 95.8345 17.9277C96.7993 17.2598 97.8198 16.666 98.896 16.1465C99.4897 15.8125 100.046 15.5898 100.566 15.4785C101.123 15.3301 101.716 15.1816 102.347 15.0332C102.57 14.959 102.774 14.9033 102.959 14.8662C103.145 14.8291 103.349 14.8105 103.572 14.8105C104.24 14.8105 104.889 14.9404 105.52 15.2002C106.151 15.4229 106.8 15.5342 107.468 15.5342C107.654 15.5342 107.802 15.5342 107.914 15.5342C108.062 15.4971 108.21 15.46 108.359 15.4229C108.99 16.2021 109.788 16.7959 110.752 17.2041C110.975 17.7607 111.235 18.2432 111.532 18.6514C111.866 19.0596 112.2 19.4678 112.534 19.876C112.868 20.2471 113.165 20.6738 113.424 21.1562C113.721 21.6016 113.907 22.1396 113.981 22.7705ZM108.415 25.665C108.415 25.4795 108.396 25.3125 108.359 25.1641C107.988 25.0527 107.635 24.9043 107.301 24.7188C106.967 24.5332 106.596 24.4404 106.188 24.4404C105.928 24.4404 105.668 24.4961 105.409 24.6074C105.372 24.3477 105.26 24.1621 105.075 24.0508C104.926 23.9395 104.741 23.8467 104.518 23.7725C104.333 23.6611 104.128 23.5869 103.906 23.5498C103.72 23.4756 103.553 23.3643 103.405 23.2158C103.293 22.9189 103.164 22.6221 103.015 22.3252C102.904 21.9912 102.681 21.75 102.347 21.6016C102.013 21.9355 101.624 22.2139 101.178 22.4365C100.733 22.6221 100.269 22.8076 99.7866 22.9932C99.3413 23.1787 98.896 23.4014 98.4507 23.6611C98.0425 23.9209 97.6899 24.2363 97.3931 24.6074H96.3911C96.1685 25.0156 95.853 25.3311 95.4448 25.5537C95.0366 25.7393 94.6841 26.0176 94.3872 26.3887C93.7935 26.6855 93.2368 27.0566 92.7173 27.502C92.2349 27.9102 91.7524 28.3555 91.27 28.8379C90.7876 29.2832 90.3052 29.7471 89.8228 30.2295C89.3774 30.7119 88.895 31.1572 88.3755 31.5654C87.8931 32.6045 87.355 33.5137 86.7612 34.293C86.2046 35.0352 85.6665 35.7959 85.147 36.5752C84.6646 37.3545 84.2378 38.208 83.8667 39.1357C83.5327 40.0264 83.3657 41.1396 83.3657 42.4756V43.0322C83.3657 43.2178 83.3843 43.4033 83.4214 43.5889C83.9038 44.1084 84.2935 44.665 84.5903 45.2588C84.9243 45.8525 85.4624 46.2793 86.2046 46.5391C86.9468 46.8359 87.7261 46.9658 88.5425 46.9287C89.396 46.8916 90.2124 46.9844 90.9917 47.207C92.7729 46.873 94.48 46.335 96.1128 45.5928C97.7827 44.8135 99.3599 43.8857 100.844 42.8096C101.067 42.624 101.327 42.4385 101.624 42.2529C101.92 42.0303 102.162 41.8076 102.347 41.585C102.533 41.3994 102.681 41.1953 102.792 40.9727C102.941 40.75 103.089 40.5459 103.238 40.3604C103.535 39.8779 103.869 39.3955 104.24 38.9131C104.611 38.4307 105 37.9854 105.409 37.5771C105.594 36.7607 105.835 35.9814 106.132 35.2393C106.429 34.46 106.726 33.6992 107.023 32.957C107.32 32.2148 107.561 31.4541 107.747 30.6748C107.969 29.8955 108.081 29.0791 108.081 28.2256C108.081 28.04 108.062 27.8359 108.025 27.6133C108.025 27.3906 108.006 27.1865 107.969 27.001C108.266 26.5928 108.415 26.1475 108.415 25.665ZM175.824 24.2178C175.712 24.5518 175.49 24.793 175.156 24.9414C174.859 25.0527 174.543 25.1455 174.209 25.2197C173.875 25.2939 173.56 25.4238 173.263 25.6094C173.003 25.7578 172.836 26.0176 172.762 26.3887L172.651 26.4443C172.502 26.4443 172.391 26.4072 172.317 26.333C172.28 26.2217 172.243 26.1289 172.206 26.0547C172.168 25.9434 172.113 25.8506 172.039 25.7764C172.001 25.665 171.927 25.6094 171.816 25.6094C171.408 25.6094 171 25.6465 170.591 25.7207C170.22 25.7949 169.849 25.832 169.478 25.832C168.921 25.832 168.42 25.7578 167.975 25.6094C167.715 25.6836 167.567 25.8506 167.53 26.1104C167.53 26.3701 167.418 26.5371 167.196 26.6113C167.01 26.6855 166.788 26.7227 166.528 26.7227C166.268 26.6855 166.008 26.7041 165.749 26.7783L163.967 27.2236C163.374 27.3721 162.78 27.4463 162.186 27.4463C161.852 27.4463 161.611 27.4277 161.462 27.3906C160.906 27.8359 160.275 28.1699 159.57 28.3926C158.865 28.5781 158.123 28.7637 157.343 28.9492C156.601 29.0977 155.859 29.3018 155.117 29.5615C154.412 29.8213 153.781 30.2295 153.224 30.7861C152.927 30.7119 152.667 30.6748 152.445 30.6748C151.962 30.6748 151.536 30.7861 151.165 31.0088C150.793 31.1943 150.404 31.3799 149.996 31.5654C149.81 31.6396 149.625 31.6768 149.439 31.6768C149.253 31.6768 149.049 31.7139 148.827 31.7881C148.604 31.8623 148.456 31.9922 148.381 32.1777C148.344 32.3262 148.233 32.4746 148.047 32.623C148.047 33.959 148.177 35.2949 148.437 36.6309C148.697 37.9297 148.827 39.2471 148.827 40.583V40.8057C148.901 41.4365 149.105 42.0303 149.439 42.5869C149.773 43.1064 149.94 43.6445 149.94 44.2012C149.94 44.3867 149.903 44.5908 149.829 44.8135C150.793 45.0361 151.424 45.5371 151.721 46.3164C152.055 47.0586 152.315 47.875 152.5 48.7656C152.723 49.6191 153.001 50.417 153.335 51.1592C153.707 51.9014 154.412 52.3652 155.451 52.5508C155.525 52.9219 155.581 53.3115 155.618 53.7197C155.655 54.0908 155.673 54.4619 155.673 54.833C155.673 55.3525 155.618 55.8535 155.506 56.3359C155.395 56.8555 155.172 57.3193 154.838 57.7275C154.282 57.7646 153.874 57.7832 153.614 57.7832C153.354 57.7832 152.964 57.8945 152.445 58.1172C151.703 57.6719 151.035 57.1523 150.441 56.5586C149.884 56.002 149.346 55.4082 148.827 54.7773C148.344 54.1094 147.862 53.4414 147.379 52.7734C146.897 52.0684 146.377 51.4004 145.821 50.7695C143.891 51.252 141.906 51.5859 139.865 51.7715C137.861 51.9199 135.857 51.9941 133.853 51.9941C133.779 52.0684 133.667 52.1055 133.519 52.1055C133.371 52.1055 133.222 52.124 133.074 52.1611C132.962 52.1611 132.851 52.1982 132.74 52.2725C132.666 52.3096 132.647 52.4023 132.684 52.5508C132.424 52.4023 132.127 52.3096 131.793 52.2725C131.497 52.1982 131.218 52.1611 130.958 52.1611C130.773 52.1611 130.587 52.1797 130.402 52.2168C130.216 52.2168 130.031 52.2725 129.845 52.3838C128.435 52.124 127.062 51.7715 125.726 51.3262C124.427 50.8438 123.091 50.4541 121.718 50.1572C121.718 49.8604 121.644 49.6562 121.496 49.5449C121.347 49.3965 121.217 49.1924 121.106 48.9326C119.547 47.9678 118.23 46.7988 117.154 45.4258C116.115 44.0527 115.688 42.3828 115.874 40.416L115.484 39.6367C115.484 39.043 115.614 38.6162 115.874 38.3564C115.725 38.0967 115.465 37.8369 115.094 37.5771C115.428 37.0576 115.725 36.5195 115.985 35.9629C116.245 35.4062 116.43 34.8125 116.542 34.1816C116.579 33.9961 116.597 33.8291 116.597 33.6807C116.597 33.5322 116.634 33.3652 116.708 33.1797C116.783 32.957 116.894 32.7158 117.042 32.4561C117.154 32.1592 117.265 31.8994 117.376 31.6768C117.97 30.415 118.62 29.209 119.325 28.0586C120.067 26.8711 120.995 25.8506 122.108 24.9971C122.182 24.3662 122.368 23.8467 122.665 23.4385C122.961 22.9932 123.277 22.6035 123.611 22.2695C123.982 21.8984 124.334 21.5273 124.668 21.1562C125.04 20.7852 125.318 20.3398 125.503 19.8203C126.246 19.1895 126.988 18.5771 127.73 17.9834C128.509 17.3896 129.159 16.6846 129.678 15.8682C130.346 15.6455 130.977 15.3672 131.571 15.0332C132.165 14.6621 132.666 14.1982 133.074 13.6416C133.964 13.5674 134.836 13.4004 135.69 13.1406C136.581 12.8809 137.508 12.751 138.473 12.751C138.881 12.751 139.364 12.8437 139.92 13.0293C140.514 13.1777 140.959 13.4561 141.256 13.8643C141.293 13.9385 141.312 14.0312 141.312 14.1426L141.368 14.4209C141.405 14.4951 141.442 14.5693 141.479 14.6436C141.553 14.6807 141.665 14.6807 141.813 14.6436C141.813 15.46 141.72 16.2949 141.535 17.1484C141.349 17.9648 140.867 18.5957 140.087 19.041C139.605 18.8926 139.085 18.8184 138.529 18.8184C137.787 18.8184 137.1 18.9668 136.469 19.2637C135.875 19.5234 135.282 19.8389 134.688 20.21C134.131 20.5439 133.556 20.8965 132.962 21.2676C132.369 21.6016 131.738 21.8428 131.07 21.9912C130.996 22.2881 130.921 22.5664 130.847 22.8262C130.81 23.0488 130.829 23.3086 130.903 23.6055C130.717 23.6055 130.569 23.5869 130.458 23.5498C130.383 23.4756 130.253 23.4385 130.068 23.4385C129.808 23.4385 129.623 23.5869 129.511 23.8838C129.437 24.1807 129.363 24.4219 129.289 24.6074C128.583 24.9043 127.99 25.3311 127.507 25.8877C127.062 26.4072 126.635 26.9824 126.227 27.6133C125.856 28.207 125.448 28.7822 125.002 29.3389C124.557 29.8955 124 30.3223 123.333 30.6191C123.036 31.8066 122.739 32.9756 122.442 34.126C122.182 35.2764 121.867 36.4268 121.496 37.5771C121.607 38.0225 121.663 38.4863 121.663 38.9688C121.663 39.5625 121.607 40.1006 121.496 40.583C121.681 40.8799 121.867 41.2324 122.052 41.6406L122.72 42.9209C122.943 43.3662 123.166 43.7744 123.388 44.1455C123.648 44.5166 123.889 44.7949 124.112 44.9805C124.52 45.2773 125.151 45.5557 126.004 45.8154C126.858 46.0381 127.619 46.4277 128.287 46.9844C128.361 46.9844 128.454 46.9844 128.565 46.9844C128.676 46.9473 128.769 46.9287 128.843 46.9287C129.289 46.9287 129.771 47.04 130.291 47.2627C130.81 47.4854 131.144 47.5967 131.292 47.5967C133.371 47.5967 135.634 47.4668 138.083 47.207C140.533 46.9102 142.796 46.5576 144.875 46.1494C144.949 45.7783 144.986 45.4629 144.986 45.2031C144.986 44.7207 144.912 44.2568 144.763 43.8115C144.615 43.3291 144.374 42.9209 144.04 42.5869C144.04 42.0303 144.04 41.4736 144.04 40.917C144.077 40.3604 144.095 39.8037 144.095 39.2471C144.095 38.3193 144.058 37.3359 143.984 36.2969C143.91 35.2578 143.724 34.293 143.427 33.4023H143.316C142.833 33.4023 142.388 33.5322 141.98 33.792C141.609 34.0146 141.219 34.126 140.811 34.126C140.588 34.126 140.403 34.0703 140.254 33.959C139.809 34.4785 139.271 34.8682 138.64 35.1279C138.009 35.3877 137.341 35.6289 136.636 35.8516C135.931 36.0371 135.226 36.2412 134.521 36.4639C133.853 36.6865 133.241 37.002 132.684 37.4102C132.387 37.2988 132.109 37.2432 131.849 37.2432C131.589 37.2432 131.33 37.2617 131.07 37.2988C130.847 37.3359 130.587 37.373 130.291 37.4102C129.511 36.7422 129.122 35.9072 129.122 34.9053C129.122 34.3857 129.196 33.8848 129.344 33.4023C129.53 32.8828 129.771 32.4004 130.068 31.9551C130.253 31.8438 130.476 31.7881 130.736 31.7881C130.996 31.751 131.255 31.7139 131.515 31.6768C131.775 31.6025 131.979 31.5098 132.127 31.3984C132.313 31.2871 132.424 31.083 132.461 30.7861C132.573 30.8975 132.666 30.9531 132.74 30.9531C132.814 30.9531 132.888 30.9346 132.962 30.8975C133.037 30.8604 133.111 30.8418 133.185 30.8418C133.259 30.8418 133.315 30.8789 133.352 30.9531C133.426 31.0273 133.463 31.1016 133.463 31.1758C135.059 30.3223 136.692 29.5986 138.362 29.0049C140.032 28.4111 141.72 27.873 143.427 27.3906C145.171 26.9082 146.916 26.4629 148.66 26.0547C150.404 25.6094 152.129 25.127 153.836 24.6074C154.096 24.3848 154.375 24.2178 154.671 24.1064C154.968 23.9951 155.228 23.8281 155.451 23.6055C155.71 23.7539 156.026 23.8281 156.397 23.8281C156.917 23.8281 157.473 23.7354 158.067 23.5498C158.698 23.3271 159.217 23.0674 159.625 22.7705C159.774 22.8076 159.904 22.8262 160.015 22.8262H160.405C161.147 22.8262 161.833 22.7148 162.464 22.4922C163.132 22.2695 163.782 21.9727 164.413 21.6016H164.691C165.841 21.6016 166.973 21.4717 168.086 21.2119C169.237 20.9521 170.406 20.8223 171.593 20.8223C173.115 20.8223 174.451 21.2119 175.601 21.9912V22.6592C175.601 22.9561 175.601 23.2344 175.601 23.4941C175.638 23.7168 175.712 23.958 175.824 24.2178ZM194.972 19.5977V19.8203C194.712 19.8945 194.583 20.0801 194.583 20.377C194.174 20.5625 193.748 20.7109 193.302 20.8223C192.857 20.8965 192.43 21.0264 192.022 21.2119C191.614 21.1748 191.187 21.1562 190.742 21.1562C190.333 21.1191 189.925 21.1006 189.517 21.1006C188.404 21.1006 187.291 21.1377 186.177 21.2119C185.064 21.2861 183.951 21.2861 182.837 21.2119C182.318 21.5088 181.743 21.75 181.112 21.9355C180.518 22.084 179.943 22.1582 179.386 22.1582C178.941 22.1582 178.551 22.1025 178.217 21.9912C177.327 22.4365 176.343 22.8076 175.267 23.1045C174.228 23.4014 173.17 23.6982 172.094 23.9951C171.018 24.2549 169.979 24.5703 168.977 24.9414C168.012 25.2754 167.159 25.7578 166.417 26.3887C166.342 26.9082 166.287 27.4277 166.25 27.9473C166.212 28.4297 166.194 28.9121 166.194 29.3945C166.194 29.9141 166.212 30.3965 166.25 30.8418C166.324 31.2871 166.454 31.7324 166.639 32.1777C166.825 32.252 167.029 32.3076 167.251 32.3447C167.511 32.3818 167.734 32.4004 167.919 32.4004C168.105 32.4004 168.291 32.3818 168.476 32.3447C168.662 32.2705 168.792 32.1406 168.866 31.9551C169.422 31.8809 169.979 31.8623 170.536 31.8994C171.092 31.8994 171.649 31.8994 172.206 31.8994C172.762 31.8994 173.3 31.8809 173.82 31.8438C174.376 31.8066 174.915 31.7139 175.434 31.5654C176.028 31.417 176.603 31.3242 177.16 31.2871C177.753 31.25 178.329 31.2129 178.885 31.1758C179.442 31.1387 180.017 31.083 180.611 31.0088C181.205 30.8975 181.817 30.6934 182.448 30.3965C182.93 30.582 183.413 30.6748 183.895 30.6748C184.415 30.6748 184.916 30.7119 185.398 30.7861C185.658 30.9717 185.862 31.1758 186.01 31.3984C186.196 31.6211 186.289 31.8809 186.289 32.1777C186.289 32.6973 186.103 33.2168 185.732 33.7363C185.361 34.2559 185.064 34.7383 184.841 35.1836H184.229C183.338 35.1836 182.466 35.3135 181.613 35.5732C180.796 35.7959 179.961 36.0742 179.108 36.4082C178.292 36.7051 177.457 36.9834 176.603 37.2432C175.787 37.4658 174.933 37.5771 174.042 37.5771C173.894 37.5771 173.801 37.6699 173.764 37.8555C173.764 38.0039 173.727 38.1152 173.653 38.1895C173.467 38.1523 173.189 38.1338 172.818 38.1338C171.964 38.1338 171.148 38.2266 170.369 38.4121C169.589 38.5977 168.792 38.6904 167.975 38.6904C167.752 38.6904 167.53 38.6904 167.307 38.6904C167.084 38.6533 166.862 38.6162 166.639 38.5791C166.454 38.876 166.212 39.0801 165.916 39.1914C165.619 39.2656 165.34 39.4141 165.081 39.6367C164.969 39.9707 164.895 40.3789 164.858 40.8613C164.858 41.3438 164.839 41.8447 164.802 42.3643C164.802 42.8467 164.765 43.3105 164.691 43.7559C164.617 44.2012 164.468 44.5537 164.246 44.8135C164.283 44.999 164.431 45.0732 164.691 45.0361C164.951 44.9619 165.081 45.0732 165.081 45.3701C165.081 45.7041 165.043 46.0566 164.969 46.4277C164.895 46.7988 164.858 47.1699 164.858 47.541C164.858 48.2461 164.932 49.0254 165.081 49.8789C165.266 50.6953 165.526 51.4561 165.86 52.1611C166.231 52.8662 166.713 53.46 167.307 53.9424C167.901 54.3877 168.643 54.6104 169.534 54.6104C170.127 54.6104 170.684 54.499 171.204 54.2764C171.723 54.0537 172.15 53.6826 172.484 53.1631L172.762 53.1074C172.911 53.1074 173.041 53.126 173.152 53.1631C173.3 53.2002 173.449 53.2188 173.597 53.2188C173.82 53.2188 174.098 53.0889 174.432 52.8291C174.803 52.5322 175.193 52.1982 175.601 51.8271C176.046 51.4561 176.492 51.1035 176.937 50.7695C177.382 50.3984 177.809 50.1387 178.217 49.9902C178.477 49.4707 178.718 48.9512 178.941 48.4316C179.201 47.9121 179.572 47.5039 180.054 47.207V45.5928C180.425 45.1846 180.815 44.8135 181.223 44.4795C181.668 44.1455 182.002 43.7188 182.225 43.1992C182.411 43.2734 182.578 43.3291 182.726 43.3662C182.912 43.4033 183.097 43.4219 183.283 43.4219C183.468 43.4219 183.654 43.4033 183.839 43.3662C184.062 43.3291 184.266 43.2734 184.452 43.1992C184.749 43.6074 184.971 44.0713 185.12 44.5908C185.305 45.0732 185.528 45.5371 185.788 45.9824C185.454 46.6504 185.064 47.4482 184.619 48.376C184.173 49.3037 183.691 50.2314 183.171 51.1592C182.652 52.0869 182.095 52.9775 181.501 53.8311C180.945 54.6475 180.388 55.2783 179.832 55.7236C179.72 55.835 179.479 55.9648 179.108 56.1133C178.7 56.4102 178.329 56.6885 177.995 56.9482C177.661 57.2451 177.345 57.5791 177.048 57.9502C175.972 58.2842 174.933 58.7295 173.931 59.2861C172.966 59.8428 172.001 60.3809 171.037 60.9004C170.591 60.7891 170.109 60.7334 169.589 60.7334C169.144 60.7334 168.699 60.752 168.253 60.7891C167.808 60.8633 167.326 60.9004 166.806 60.9004C166.658 60.7148 166.435 60.585 166.138 60.5107C165.878 60.4736 165.786 60.2881 165.86 59.9541C164.598 59.8799 163.578 59.5273 162.798 58.8965C162.019 58.3027 161.351 57.5605 160.794 56.6699C160.275 55.7793 159.848 54.8145 159.514 53.7754C159.18 52.7363 158.828 51.7344 158.457 50.7695V50.6025C158.457 50.417 158.531 50.3057 158.679 50.2686C158.828 50.2314 158.902 50.1201 158.902 49.9346C158.902 49.8604 158.883 49.8047 158.846 49.7676C158.735 49.3594 158.642 49.0068 158.568 48.71C158.494 48.4131 158.457 48.0605 158.457 47.6523C158.457 47.0586 158.494 46.4834 158.568 45.9268C158.642 45.333 158.679 44.7393 158.679 44.1455C158.679 43.5518 158.605 43.0322 158.457 42.5869C158.605 42.4014 158.735 42.1602 158.846 41.8633C158.92 41.5293 158.976 41.1953 159.013 40.8613C159.05 40.5273 159.069 40.1934 159.069 39.8594C159.106 39.5254 159.162 39.2285 159.236 38.9688C159.087 38.5605 158.958 38.208 158.846 37.9111C158.735 37.5771 158.679 37.1875 158.679 36.7422V36.3525C159.05 35.7217 159.366 35.0723 159.625 34.4043C159.885 33.7363 160.164 33.0498 160.46 32.3447V32.1777C160.46 31.1016 160.423 30.0254 160.349 28.9492C160.275 27.873 160.238 26.7969 160.238 25.7207V24.6631C160.238 24.292 160.256 23.9395 160.293 23.6055C160.59 23.457 160.813 23.2529 160.961 22.9932C161.11 22.7334 161.333 22.5293 161.629 22.3809H163.466L163.8 21.8242C163.912 21.6387 163.986 21.4346 164.023 21.2119C164.431 21.1006 164.821 20.9521 165.192 20.7666C165.6 20.5439 165.971 20.3213 166.305 20.0986C166.825 19.8018 167.289 19.542 167.697 19.3193C168.142 19.0596 168.569 18.8555 168.977 18.707C169.422 18.5215 169.886 18.373 170.369 18.2617C170.851 18.1504 171.408 18.0576 172.039 17.9834C172.335 17.9834 172.521 17.9277 172.595 17.8164C172.707 17.7051 172.855 17.5752 173.041 17.4268C173.486 17.501 173.931 17.5752 174.376 17.6494C174.822 17.6865 175.267 17.7051 175.712 17.7051C176.603 17.7051 177.438 17.5381 178.217 17.2041C179.331 17.2041 180.425 17.1855 181.501 17.1484C182.615 17.1113 183.728 17.0928 184.841 17.0928C185.806 17.0928 186.771 17.1299 187.736 17.2041C188.701 17.2783 189.647 17.4082 190.575 17.5938C190.909 17.4824 191.28 17.4268 191.688 17.4268C192.133 17.4268 192.579 17.4824 193.024 17.5938C193.506 17.668 193.97 17.668 194.416 17.5938C194.453 18.002 194.545 18.3545 194.694 18.6514C194.879 18.9111 194.972 19.2266 194.972 19.5977ZM263.495 45.3145C263.42 45.8711 263.216 46.2979 262.882 46.5947C262.585 46.8916 262.233 47.1699 261.825 47.4297C261.639 47.3926 261.454 47.374 261.268 47.374C261.12 47.3369 260.953 47.3184 260.767 47.3184C259.617 47.2812 258.522 47.4297 257.483 47.7637C256.481 48.0977 255.442 48.3389 254.366 48.4873C253.995 48.5615 253.642 48.5986 253.308 48.5986C253.011 48.5615 252.696 48.5801 252.362 48.6543C251.174 48.8398 249.913 48.9883 248.577 49.0996C247.241 49.2109 245.905 49.3594 244.569 49.5449C243.233 49.6934 241.916 49.8975 240.617 50.1572C239.355 50.3799 238.167 50.7139 237.054 51.1592C236.943 51.085 236.832 51.0107 236.72 50.9365C236.609 50.8252 236.479 50.7695 236.331 50.7695C235.959 50.7695 235.607 50.8252 235.273 50.9365C234.939 51.0479 234.605 51.085 234.271 51.0479C233.9 51.2705 233.492 51.4375 233.046 51.5488C232.638 51.623 232.211 51.6973 231.766 51.7715C231.358 51.8086 230.95 51.8828 230.542 51.9941C230.133 52.1055 229.744 52.3096 229.373 52.6064C229.076 52.458 228.705 52.3838 228.259 52.3838C227.851 52.3467 227.573 52.1982 227.424 51.9385C226.571 52.3467 225.662 52.6064 224.697 52.7178C223.769 52.8291 222.823 52.8662 221.858 52.8291C221.227 52.792 220.503 52.6992 219.687 52.5508C218.871 52.4023 218.054 52.1982 217.238 51.9385C216.421 51.6416 215.661 51.3076 214.956 50.9365C214.25 50.5283 213.712 50.0459 213.341 49.4893C213.082 49.1182 212.896 48.71 212.785 48.2646C212.673 47.8193 212.414 47.4854 212.005 47.2627C212.117 46.4092 212.247 45.5742 212.395 44.7578C212.543 43.9414 212.692 43.1064 212.84 42.2529C213.583 41.6221 214.288 40.9541 214.956 40.249C215.624 39.5439 216.254 38.8018 216.848 38.0225C217.553 37.6885 218.203 37.2803 218.796 36.7979C219.427 36.3154 220.04 35.833 220.633 35.3506C221.264 34.8311 221.876 34.3301 222.47 33.8477C223.101 33.3652 223.769 32.9385 224.474 32.5674C224.585 32.3076 224.734 32.1035 224.919 31.9551C225.142 31.7695 225.365 31.6025 225.587 31.4541C225.81 31.2686 226.014 31.083 226.2 30.8975C226.385 30.6748 226.515 30.415 226.589 30.1182C227.888 29.3389 229.02 28.3555 229.985 27.168C230.95 25.9805 231.581 24.6445 231.877 23.1602C231.247 22.6406 230.523 22.3066 229.707 22.1582C228.927 21.9727 228.111 21.8428 227.257 21.7686C226.515 21.7314 225.736 21.7314 224.919 21.7686C224.14 21.8057 223.342 21.7871 222.526 21.7129C221.709 21.9727 220.856 22.1396 219.965 22.2139C219.112 22.2881 218.258 22.3623 217.405 22.4365C216.551 22.4736 215.698 22.585 214.844 22.7705C214.028 22.9189 213.23 23.2158 212.451 23.6611C212.302 23.6611 212.154 23.6426 212.005 23.6055C211.894 23.5684 211.764 23.5498 211.616 23.5498C210.428 23.5127 209.315 23.7539 208.276 24.2734C207.237 24.7559 206.216 25.2383 205.214 25.7207C205.14 25.8691 205.103 25.9805 205.103 26.0547C205.103 26.2773 205.14 26.5 205.214 26.7227C205.326 26.9082 205.381 27.1123 205.381 27.335C205.344 27.3721 205.326 27.4092 205.326 27.4463C205.326 27.4834 205.307 27.5205 205.27 27.5576C205.233 27.7432 205.177 27.9102 205.103 28.0586C205.066 28.207 205.01 28.374 204.936 28.5596C204.528 29.7471 204.305 30.916 204.268 32.0664C204.231 33.0312 204.231 33.9775 204.268 34.9053C204.305 35.833 204.305 36.7793 204.268 37.7441C204.194 38.9316 204.008 40.0449 203.711 41.084C203.897 41.9746 204.064 42.9209 204.212 43.9229C204.361 44.8877 204.546 45.8525 204.769 46.8174C204.992 47.7822 205.251 48.7285 205.548 49.6562C205.882 50.5469 206.309 51.4004 206.829 52.2168C206.792 52.291 206.81 52.3467 206.884 52.3838C206.958 52.4209 207.033 52.4395 207.107 52.4395H207.552C207.738 52.4395 207.812 52.5137 207.775 52.6621C207.849 52.7734 207.905 52.8848 207.942 52.9961C207.979 53.0703 208.053 53.1445 208.165 53.2188C208.239 53.3301 208.239 53.4785 208.165 53.6641C208.127 54.4062 207.942 55.0928 207.608 55.7236C207.274 56.3545 207.07 57.041 206.996 57.7832C206.55 57.8945 206.142 57.9502 205.771 57.9502C205.14 57.9131 204.583 57.7275 204.101 57.3936C203.619 57.0967 203.173 56.7256 202.765 56.2803C202.357 55.835 201.967 55.3896 201.596 54.9443C201.225 54.4619 200.817 54.0537 200.372 53.7197C200.112 52.6807 199.852 51.5303 199.592 50.2686C199.37 49.0068 198.98 47.9307 198.423 47.04C198.572 46.7061 198.646 46.2979 198.646 45.8154C198.683 45.0732 198.609 44.3496 198.423 43.6445C198.275 42.9023 198.238 42.1602 198.312 41.418C198.312 41.0098 198.349 40.6016 198.423 40.1934C198.535 39.7852 198.609 39.377 198.646 38.9688C198.683 38.3379 198.609 37.7256 198.423 37.1318C198.275 36.5381 198.219 35.9258 198.256 35.2949C198.293 34.998 198.349 34.7197 198.423 34.46C198.535 34.1631 198.683 33.9033 198.869 33.6807C198.683 33.2354 198.627 32.8086 198.702 32.4004C198.739 31.7695 198.813 31.1758 198.924 30.6191C199.036 30.0625 199.11 29.5059 199.147 28.9492C199.147 28.6523 199.128 28.374 199.091 28.1143C199.054 27.8174 198.999 27.5391 198.924 27.2793L198.423 27.1123C198.201 27.1123 197.978 27.168 197.755 27.2793C197.57 27.3906 197.403 27.5205 197.254 27.6689C197.106 27.8174 196.976 27.9473 196.865 28.0586C196.753 28.1328 196.642 28.1699 196.531 28.1699C196.457 28.1699 196.364 28.1699 196.252 28.1699C196.178 28.1328 196.104 28.1143 196.03 28.1143C195.956 28.1143 195.807 28.1885 195.584 28.3369C195.399 28.4854 195.158 28.6523 194.861 28.8379C194.601 28.9863 194.341 29.1533 194.082 29.3389C193.822 29.4873 193.618 29.5801 193.469 29.6172C193.061 29.543 192.727 29.4131 192.467 29.2275C192.245 29.0049 192.022 28.8008 191.799 28.6152C191.614 28.3926 191.41 28.207 191.187 28.0586C190.964 27.873 190.686 27.7988 190.352 27.8359C190.241 27.6133 190.185 27.3721 190.185 27.1123C190.148 26.8525 190.148 26.5928 190.185 26.333V25.4424C190.445 24.96 190.797 24.5703 191.243 24.2734C191.651 23.9395 192.096 23.6611 192.579 23.4385L194.026 22.7705C194.508 22.5479 194.954 22.2695 195.362 21.9355H195.863C196.531 21.9727 197.106 21.8428 197.588 21.5459C198.108 21.249 198.59 20.915 199.036 20.5439C199.481 20.1357 199.926 19.7275 200.372 19.3193C200.854 18.9111 201.374 18.5957 201.93 18.373C202.338 18.5586 202.765 18.7256 203.21 18.874C203.656 18.9854 204.12 19.0596 204.602 19.0967C205.084 19.0967 205.585 19.0225 206.105 18.874C206.625 18.7256 207.033 18.4473 207.33 18.0391C207.515 18.1133 207.664 18.1689 207.775 18.2061C207.923 18.2061 208.09 18.2061 208.276 18.2061C208.833 18.2432 209.389 18.1689 209.946 17.9834C210.502 17.7607 211.041 17.501 211.56 17.2041C212.302 17.2412 213.026 17.2041 213.731 17.0928C214.473 16.9443 215.197 16.7959 215.902 16.6475C216.644 16.499 217.368 16.3691 218.073 16.2578C218.815 16.1094 219.557 16.0537 220.299 16.0908C221.524 16.1279 222.73 16.0166 223.917 15.7568C225.105 15.4971 226.311 15.4043 227.536 15.4785C228.389 15.5156 229.224 15.5898 230.041 15.7012C230.894 15.7754 231.748 15.7939 232.601 15.7568C233.083 15.9795 233.51 16.1836 233.881 16.3691C234.29 16.5176 234.791 16.5547 235.384 16.4805C236.572 17.4824 237.648 18.6514 238.613 19.9873V20.9336C238.576 21.7871 238.427 22.6221 238.167 23.4385C237.908 24.2549 237.592 25.0713 237.221 25.8877C236.887 26.667 236.516 27.4463 236.108 28.2256C235.7 28.9678 235.31 29.71 234.939 30.4521C232.527 32.6416 230.115 34.8125 227.703 36.9648C225.291 39.1172 222.804 41.1953 220.244 43.1992C220.169 43.5703 220.058 43.9043 219.91 44.2012C219.798 44.498 219.724 44.8135 219.687 45.1475C219.687 45.333 219.706 45.4814 219.743 45.5928C220.002 45.667 220.225 45.8154 220.411 46.0381C220.633 46.2236 220.708 46.4834 220.633 46.8174H221.134C221.32 46.8174 221.413 46.8916 221.413 47.04L222.303 47.0957C223.713 47.1699 225.124 47.1328 226.534 46.9844C227.944 46.8359 229.354 46.6689 230.764 46.4834C232.211 46.2979 233.64 46.1309 235.05 45.9824C236.46 45.7969 237.871 45.6855 239.281 45.6484C239.615 45.5371 239.967 45.4443 240.338 45.3701C240.709 45.2959 241.043 45.1475 241.34 44.9248H241.507C241.767 44.9248 241.953 44.999 242.064 45.1475C242.212 45.2959 242.417 45.3887 242.676 45.4258C242.862 45.4258 243.047 45.3887 243.233 45.3145C243.456 45.2402 243.678 45.1846 243.901 45.1475C244.42 44.999 244.958 44.9062 245.515 44.8691C246.109 44.832 246.684 44.7764 247.241 44.7021C249.393 44.5166 251.527 44.4053 253.642 44.3682C255.757 44.2939 257.873 44.0156 259.988 43.5332C260.173 43.793 260.433 43.9785 260.767 44.0898C261.101 44.1641 261.454 44.2568 261.825 44.3682C262.196 44.4424 262.53 44.5352 262.827 44.6465C263.161 44.7578 263.383 44.9805 263.495 45.3145Z" fill="white"/>
<path d="M157.272 82.9922C157.191 83.4545 157.02 83.8932 156.759 84.3086L156.021 85.4967C155.79 85.8735 155.598 86.2802 155.444 86.7168C155.321 87.1149 155.325 87.5665 155.458 88.0714C155.39 88.08 155.304 88.0908 155.201 88.1037C155.094 88.0823 155.007 88.076 154.938 88.0846C154.39 88.1534 153.98 88.3441 153.706 88.6568C153.462 88.9308 153.111 89.1836 152.654 89.415C152.559 89.2182 152.45 89.0406 152.326 88.8823C152.197 88.6898 152.026 88.5723 151.812 88.5296C151.012 88.804 150.207 89.0442 149.399 89.2502C148.586 89.4219 147.777 89.6279 146.972 89.8681C146.604 89.9839 146.241 90.1339 145.881 90.3182C145.518 90.4682 145.137 90.6204 144.739 90.7747C144.542 90.869 144.324 90.9312 144.084 90.9613C143.84 90.9572 143.601 90.9873 143.365 91.0517C142.548 91.1892 141.666 91.3695 140.721 91.5927C139.771 91.7816 138.947 92.146 138.25 92.6857C137.899 92.6602 137.533 92.654 137.152 92.6671C136.771 92.6802 136.392 92.7104 136.016 92.7578C135.194 92.861 134.298 93.0606 133.326 93.3566C132.385 93.614 131.565 94.0125 130.868 94.5523C130.688 94.5053 130.494 94.4776 130.284 94.4692C130.109 94.4565 129.901 94.4651 129.661 94.4953C129.593 94.5039 129.544 94.5274 129.514 94.566C129.479 94.5703 129.428 94.5767 129.36 94.5853C129.364 94.8978 129.437 95.2016 129.578 95.4968C129.75 95.7535 130 95.9481 130.33 96.0805C130.24 96.4743 130.224 96.8938 130.279 97.3388C130.353 97.9208 130.46 98.4985 130.602 99.0719C130.777 99.641 130.902 100.217 130.975 100.799C131.057 101.449 131.036 101.973 130.912 102.371C131.383 103.356 131.692 104.43 131.838 105.594C131.89 106.004 131.907 106.42 131.891 106.839C131.904 107.22 131.938 107.633 131.994 108.078C132.041 108.455 132.217 108.745 132.521 108.951C132.821 109.122 132.994 109.395 133.042 109.772C133.059 109.909 133.042 110.05 132.991 110.196C133.457 110.033 133.902 109.838 134.326 109.611C134.745 109.349 135.194 109.189 135.673 109.128C135.947 109.094 136.21 109.113 136.463 109.186C136.75 109.254 137.007 109.361 137.234 109.506C137.221 109.682 137.21 109.874 137.202 110.084C137.228 110.289 137.254 110.495 137.279 110.7C137.327 111.077 137.372 111.436 137.415 111.779C137.488 112.082 137.565 112.42 137.647 112.793C137.433 113.307 137.162 113.775 136.832 114.199C136.537 114.619 136.358 115.128 136.294 115.728C135.78 115.792 135.333 115.97 134.953 116.261C134.602 116.514 134.272 116.799 133.965 117.116C133.652 117.398 133.34 117.681 133.028 117.964C132.711 118.212 132.348 118.362 131.937 118.414C131.423 118.478 131.055 118.455 130.832 118.344C130.606 118.199 130.43 118.047 130.306 117.888C130.182 117.73 130.059 117.589 129.94 117.465C129.854 117.337 129.676 117.307 129.407 117.375C129.282 116.939 129.094 116.545 128.841 116.195C128.584 115.81 128.312 115.444 128.025 115.097C127.772 114.747 127.502 114.398 127.215 114.051C126.958 113.666 126.753 113.275 126.598 112.877C126.281 112.013 126.079 111.099 125.993 110.136C125.907 109.173 125.637 108.268 125.182 107.421C125.191 106.933 125.182 106.448 125.156 105.964C125.125 105.446 125.08 104.948 125.02 104.468C124.899 103.51 124.747 102.572 124.562 101.657C124.408 100.702 124.251 99.7309 124.092 98.7424C123.813 98.4644 123.616 98.1414 123.5 97.7734C123.415 97.3669 123.331 96.9775 123.249 96.6052C123.134 96.5154 123.001 96.4277 122.851 96.3422C122.736 96.2524 122.65 96.1241 122.594 95.9572C122.312 95.9231 122.102 95.9147 121.965 95.9319C121.486 95.9922 121.09 96.1636 120.778 96.4463C120.495 96.6904 120.217 96.8297 119.943 96.8641C119.669 96.8985 119.408 96.8966 119.16 96.8582C118.912 96.8199 118.668 96.8157 118.428 96.8459C118.223 96.8717 118.109 96.9381 118.088 97.0451C118.097 97.1136 118.037 97.1906 117.909 97.2763C117.814 97.3577 117.583 97.4563 117.215 97.5721C116.847 97.6879 116.428 97.8101 115.957 97.9388C115.517 98.029 115.076 98.1192 114.635 98.2093C114.229 98.2952 113.957 98.3467 113.82 98.3639C113.272 98.4328 112.848 98.3817 112.549 98.2107C112.21 98.0098 111.819 97.7982 111.373 97.5759C111.416 97.3619 111.433 97.2207 111.424 97.1522C111.381 96.8098 111.244 96.5488 111.013 96.3692C110.778 96.1554 110.649 95.9629 110.628 95.7917C110.58 95.4151 110.698 95.1048 110.98 94.8606C111.228 94.6208 111.341 94.2762 111.32 93.8268C112.064 93.3855 112.836 93.0276 113.636 92.7532C114.437 92.4788 115.258 92.2364 116.101 92.0261C116.944 91.8159 117.768 91.5906 118.572 91.3504C119.411 91.1059 120.222 90.778 121.005 90.3666C121.249 90.3707 121.476 90.377 121.685 90.3854C121.925 90.3553 122.165 90.3252 122.404 90.2951C123.431 90.166 124.428 89.9364 125.395 89.6062C126.392 89.2375 127.421 88.9864 128.483 88.8531C128.757 88.8186 129.033 88.8013 129.311 88.8012C129.589 88.801 129.869 88.8179 130.152 88.852C131.496 88.4745 132.82 88.082 134.125 87.6745C135.464 87.2628 136.842 86.881 138.259 86.5291C138.935 86.3746 139.596 86.2393 140.242 86.1234C140.918 85.9688 141.592 85.7972 142.264 85.6085C142.499 85.5441 142.664 85.4712 142.758 85.3899C142.882 85.2699 142.927 85.073 142.892 84.7991C143.218 84.8974 143.569 84.9228 143.945 84.8755C144.527 84.8024 145.079 84.6287 145.601 84.3544C146.123 84.0802 146.675 83.9065 147.257 83.8333C147.394 83.8161 147.516 83.8182 147.623 83.8395C147.726 83.8266 147.829 83.8137 147.931 83.8008C148.171 83.7707 148.278 83.6529 148.252 83.4475C148.256 83.2035 148.408 83.028 148.708 82.9208C148.939 82.8222 149.275 82.7278 149.715 82.6376C150.156 82.5475 150.614 82.4551 151.089 82.3607C151.594 82.2277 152.047 82.1011 152.45 81.981C152.882 81.8224 153.19 81.6446 153.374 81.4476L153.662 80.8375C154.283 80.7943 154.762 81.0123 155.101 81.4914C155.469 81.932 155.707 82.4411 155.814 83.0188C155.968 83.1385 156.165 83.1834 156.405 83.1532C156.675 83.0846 156.912 83.0373 157.118 83.0115L157.272 82.9922ZM183.263 88.907C183.169 89.2665 183.073 89.609 182.974 89.9343C182.876 90.2597 182.817 90.6149 182.795 91.0001C182.577 91.2014 182.321 91.3728 182.025 91.5142C181.76 91.6171 181.48 91.7393 181.185 91.8807C180.885 91.9879 180.607 92.1272 180.35 92.2985C180.124 92.4313 179.957 92.6262 179.85 92.8831C179.812 93.4095 179.821 93.8953 179.877 94.3403C179.95 94.9223 180.115 95.4058 180.372 95.7909C180.308 96.1119 180.28 96.4457 180.289 96.7924C180.298 97.1391 180.322 97.4665 180.36 97.7746C180.502 98.9044 180.781 100.017 181.197 101.112C181.609 102.173 181.903 103.267 182.079 104.392C182.1 104.563 182.107 104.754 182.098 104.964C182.09 105.173 182.097 105.364 182.118 105.535C182.208 106.254 182.543 106.699 183.12 106.87C183.039 107.054 183.007 107.214 183.024 107.351C183.059 107.625 183.123 107.86 183.217 108.057C183.312 108.254 183.357 108.474 183.353 108.718C183.567 109.039 183.777 109.326 183.982 109.578C184.184 109.796 184.342 110.089 184.458 110.457C184.279 110.967 184.044 111.448 183.753 111.902C183.458 112.322 183.278 112.831 183.215 113.431C183.073 113.413 182.917 113.416 182.746 113.437C182.506 113.467 182.324 113.542 182.2 113.662C182.076 113.782 181.972 113.917 181.886 114.067C181.839 114.247 181.773 114.412 181.687 114.561C181.606 114.745 181.484 114.883 181.322 114.973L181.168 114.992C181.001 115.048 180.845 115.05 180.699 114.999C180.592 114.977 180.487 114.973 180.384 114.986C180.316 114.995 180.183 115.046 179.987 115.14C179.67 114.832 179.43 114.445 179.267 113.979C179.108 113.547 179.001 113.108 178.945 112.663C178.885 112.184 178.899 111.747 178.989 111.353C178.574 111.092 178.276 110.66 178.096 110.057C177.95 109.449 177.8 108.947 177.645 108.549C177.212 107.316 176.732 106.125 176.205 104.974C175.712 103.819 175.352 102.612 175.124 101.354C175.03 100.879 174.954 100.419 174.899 99.9737L174.563 97.3033C174.507 96.8583 174.47 96.4282 174.453 96.013C174.414 95.7049 174.395 95.4117 174.395 95.1336C174.424 94.8168 174.42 94.5044 174.381 94.1963C174.33 93.7854 174.143 93.4089 173.822 93.0668C171.404 93.4749 169.149 94.2104 167.057 95.2732C164.995 96.2974 162.952 97.4757 160.928 98.8081C160.89 99.6127 160.902 100.394 160.962 101.151C161.022 101.909 161.102 102.681 161.201 103.469L161.485 105.728C161.593 106.584 161.717 107.299 161.859 107.872C162.155 108.844 162.748 109.551 163.638 109.996C164.559 110.402 165.464 110.688 166.355 110.854C166.385 111.372 166.338 111.83 166.214 112.228C166.086 112.592 165.904 112.945 165.669 113.288C165.464 113.592 165.225 113.9 164.951 114.213C164.677 114.525 164.408 114.872 164.143 115.253C163.847 115.117 163.558 115.031 163.276 114.997C162.993 114.963 162.698 114.965 162.39 115.004C162.077 115.009 161.765 115.013 161.453 115.018C161.14 115.022 160.823 114.992 160.502 114.928L159.179 113.53C158.738 113.064 158.263 112.602 157.753 112.144L157.695 111.682C157.579 110.757 157.296 109.889 156.846 109.076C156.396 108.263 156.029 107.422 155.746 106.554C155.81 106.233 155.84 105.916 155.836 105.604C155.831 105.291 155.807 104.964 155.764 104.621C155.678 103.937 155.56 103.273 155.41 102.631C155.294 101.985 155.229 101.333 155.216 100.674L154.959 100.706C154.651 100.745 154.337 100.871 154.016 101.085C153.691 101.265 153.37 101.479 153.053 101.728C152.767 101.938 152.48 102.148 152.193 102.358C151.937 102.529 151.706 102.627 151.5 102.653C151.398 102.666 151.293 102.662 151.186 102.641C151.079 102.619 150.957 102.617 150.82 102.634C150.649 102.656 150.452 102.75 150.229 102.917C150.007 103.084 149.769 103.271 149.517 103.476C149.226 103.652 148.935 103.828 148.644 104.003C148.353 104.179 148.054 104.286 147.746 104.325C147.266 104.385 146.761 104.24 146.23 103.889C146.128 103.624 146.078 103.369 146.082 103.125C146.052 102.886 146.02 102.629 145.985 102.355C145.951 102.081 145.863 101.797 145.722 101.502C145.905 101.026 146.188 100.643 146.568 100.352C146.911 100.031 147.291 99.7393 147.711 99.478C148.091 99.1867 148.491 98.9104 148.91 98.6491C149.325 98.3535 149.663 97.998 149.924 97.5827L150.232 97.544C150.712 97.4838 151.127 97.3273 151.477 97.0745C151.862 96.8175 152.314 96.6738 152.832 96.6435C152.994 96.5535 153.082 96.2817 153.094 95.828L153.306 95.8536C154.059 95.7589 154.695 95.4183 155.212 94.8316C155.322 92.6616 155.361 90.4832 155.33 88.2962C155.298 86.1092 155.147 83.9373 154.876 81.7804C154.85 81.575 154.756 81.3782 154.593 81.19C154.49 80.9247 154.424 80.6722 154.394 80.4326L154.297 79.6623C154.25 79.2857 154.217 78.8898 154.2 78.4747C154.183 78.0595 154.217 77.638 154.302 77.2099C154.618 76.9615 154.965 76.8136 155.342 76.7663C155.787 76.7103 156.223 76.725 156.651 76.8103C157.109 76.8571 157.548 76.8889 157.967 76.9058C158.314 77.1752 158.58 77.4896 158.764 77.849C158.983 78.204 159.135 78.5849 159.221 78.9914C159.302 79.3637 159.352 79.7574 159.369 80.1725C159.416 80.5491 159.464 80.9257 159.511 81.3023C159.606 82.0555 159.784 82.7808 160.045 83.4783C160.307 84.1757 160.481 84.8668 160.567 85.5515C160.588 85.7227 160.537 85.8682 160.413 85.9881C160.319 86.0695 160.295 86.2985 160.343 86.6751C160.39 87.0517 160.474 87.4411 160.594 87.8433C160.714 88.2456 160.8 88.6521 160.851 89.0629C160.912 89.5422 160.906 90.0473 160.833 90.578C160.761 91.1087 160.703 91.6202 160.661 92.1124C162.693 91.6831 164.767 91.1618 166.881 90.5484C168.994 89.9349 170.98 89.129 172.836 88.1306C172.862 88.0578 172.866 87.953 172.849 87.816C172.823 87.6106 172.78 87.4074 172.72 87.2062C172.66 87.0051 172.615 86.7847 172.585 86.5451C172.533 86.1343 172.629 85.7918 172.873 85.5177C172.582 84.5806 172.341 83.6371 172.152 82.6871C171.963 81.7371 171.809 80.7828 171.688 79.8242L171.32 76.897C171.2 75.9384 171.062 74.9819 170.908 74.0276C171.16 73.822 171.44 73.6999 171.748 73.6612C172.125 73.6138 172.48 73.6735 172.814 73.8402C173.178 73.9684 173.583 74.0045 174.028 73.9486C174.336 73.9098 174.586 73.8262 174.779 73.6977C175.198 73.9927 175.511 74.4055 175.717 74.9361C175.922 75.4667 176.113 76.0165 176.289 76.5856C176.465 77.1547 176.641 77.7238 176.817 78.2929C177.022 78.8235 177.335 79.2363 177.755 79.5313L177.825 79.6789C177.843 79.8159 177.787 79.9272 177.659 80.0129C177.53 80.0985 177.479 80.2441 177.505 80.4495L177.531 80.6549C177.737 81.1855 177.91 81.7375 178.052 82.3109C178.194 82.8843 178.32 83.477 178.432 84.0889C178.573 84.6623 178.732 85.2336 178.908 85.8027C179.08 86.3375 179.332 86.8274 179.667 87.2723C179.833 87.2165 180.054 87.1715 180.328 87.137C181.012 87.051 181.573 87.224 182.01 87.6559C182.477 88.0494 182.894 88.4664 183.263 88.907ZM227.299 103.926C227.257 104.418 227.084 104.84 226.78 105.191C226.506 105.504 226.158 105.774 225.734 106.001C225.311 106.228 224.864 106.406 224.393 106.534C223.952 106.624 223.543 106.693 223.167 106.741C222.996 106.762 222.824 106.784 222.653 106.805C222.512 106.788 222.356 106.79 222.185 106.812C222.013 106.833 221.939 106.93 221.96 107.101C221.982 107.272 221.911 107.403 221.749 107.493C221.569 107.446 221.391 107.416 221.216 107.403C221.04 107.39 220.867 107.395 220.696 107.416C220.456 107.446 220.219 107.494 219.983 107.558C219.782 107.618 219.579 107.661 219.373 107.687C219.099 107.721 218.89 107.713 218.744 107.662C218.633 107.606 218.522 107.55 218.41 107.495C218.329 107.401 218.23 107.309 218.115 107.219C218.033 107.125 217.903 107.054 217.723 107.007C217.47 106.935 217.263 106.943 217.1 107.033C216.972 107.119 216.737 107.044 216.394 106.809C215.94 106.518 215.529 106.153 215.161 105.712C214.822 105.233 214.482 104.737 214.139 104.224C213.796 103.71 213.436 103.199 213.059 102.69C212.682 102.181 212.263 101.747 211.8 101.388L211.389 101.439C210.773 101.517 210.378 101.827 210.202 102.371C210.018 102.29 209.832 102.191 209.644 102.076C209.451 101.926 209.246 101.813 209.027 101.736C208.27 102.075 207.474 102.383 206.64 102.662C205.805 102.941 204.96 103.134 204.104 103.241L203.385 103.332C203.18 103.358 202.953 103.351 202.705 103.313C202.38 103.493 202.093 103.703 201.845 103.943C201.593 104.148 201.295 104.273 200.953 104.316C200.747 104.341 200.499 104.303 200.208 104.201C200.003 104.226 199.911 104.325 199.932 104.496C199.988 104.663 199.896 104.761 199.656 104.792L199.194 104.85C198.715 104.91 198.238 104.987 197.763 105.082C197.322 105.172 196.862 105.247 196.383 105.307C195.732 105.389 195.054 105.387 194.348 105.302C194.189 105.426 194.007 105.501 193.802 105.527C193.674 105.613 193.586 105.746 193.539 105.925C193.488 106.071 193.437 106.217 193.385 106.362C193.33 106.473 193.24 106.589 193.116 106.709C193.022 106.79 192.87 106.827 192.66 106.818C192.643 107.238 192.513 107.585 192.269 107.859C192.025 108.133 191.934 108.509 191.994 108.989C191.643 109.241 191.367 109.537 191.166 109.875C190.965 110.213 190.767 110.569 190.57 110.941C190.373 111.314 190.157 111.671 189.922 112.014C189.721 112.352 189.443 112.63 189.088 112.849C188.943 113.076 188.932 113.408 189.057 113.844C188.719 114.199 188.291 114.531 187.774 114.84C187.256 115.148 186.757 115.333 186.278 115.393C185.285 115.518 184.534 115.073 184.024 114.059C183.981 113.717 183.97 113.353 183.991 112.968C183.974 112.553 183.995 112.167 184.055 111.812C184.11 111.423 184.223 111.078 184.394 110.778C184.561 110.444 184.824 110.185 185.183 110.001C185.144 109.693 185.016 109.5 184.798 109.424C184.575 109.312 184.461 109.101 184.457 108.788C185.325 108.227 186.057 107.544 186.651 106.739C187.246 105.934 187.767 105.103 188.216 104.247C188.695 103.352 189.173 102.457 189.652 101.563C190.131 100.668 190.689 99.8499 191.326 99.1091L191.191 98.0307C192.08 96.8061 192.593 95.4897 192.729 94.0815C193.097 93.9657 193.315 93.7644 193.383 93.4776C193.486 93.1865 193.513 92.8527 193.466 92.4761C193.637 92.4546 193.731 92.3732 193.748 92.232C193.795 92.0522 193.943 91.9815 194.191 92.0198C194.396 91.1594 194.644 90.3632 194.934 89.6312C195.225 88.8991 195.515 88.1671 195.806 87.435C196.092 86.6688 196.325 85.8918 196.504 85.1042C196.718 84.3123 196.835 83.4455 196.856 82.504C197.331 82.4095 197.559 82.1547 197.542 81.7396C197.554 81.2859 197.573 80.8836 197.599 80.5326C198.052 79.9888 198.358 79.3765 198.516 78.696C198.708 78.011 198.864 77.3133 198.983 76.6028C199.098 75.858 199.232 75.1282 199.386 74.4134C199.57 73.66 199.867 72.9793 200.277 72.3713L200.258 72.2173C200.236 72.0461 200.155 71.952 200.014 71.935C199.868 71.8837 199.784 71.7725 199.763 71.6013C199.793 71.5627 199.806 71.5264 199.801 71.4921C200.191 71.2693 200.464 70.9567 200.623 70.5543C200.776 70.1177 201.048 69.7879 201.437 69.5651C202.229 70.0568 202.908 70.3367 203.473 70.4048C204.033 70.4386 204.763 70.4339 205.662 70.3905C206.167 70.8139 206.48 71.3658 206.6 72.0462C206.751 72.6881 206.952 73.3235 207.205 73.9525C207.617 75.0136 208.043 76.0555 208.485 77.078C208.956 78.0621 209.346 79.0911 209.655 80.1652C209.839 80.8028 210.105 81.3953 210.452 81.9429C210.799 82.4905 211.063 83.066 211.243 83.6693C211.372 84.14 211.441 84.6878 211.45 85.3127C211.454 85.9033 211.587 86.4082 211.849 86.8275L212.311 87.604C212.53 87.959 212.716 88.3355 212.871 88.7335C213.059 89.1271 213.231 89.5229 213.385 89.9208C213.788 90.9134 214.167 91.996 214.523 93.1684C214.909 94.3023 215.402 95.3185 216.002 96.2169C216.216 96.5377 216.503 96.7451 216.863 96.839C217.256 96.9286 217.68 96.9797 218.134 96.9922C218.583 96.9706 219.013 96.9339 219.424 96.8823C219.865 96.7921 220.239 96.7277 220.547 96.6889L221.061 96.6244C221.266 96.5986 221.476 96.607 221.69 96.6497C221.861 96.9063 221.96 97.1374 221.986 97.3428C222.037 97.7536 221.941 98.0961 221.698 98.3702C221.454 98.6442 221.351 98.9353 221.39 99.2434C221.412 99.4146 221.504 99.5943 221.666 99.7825C221.525 99.7655 221.318 99.7742 221.044 99.8086C220.256 99.9076 219.503 100.141 218.784 100.51C219.131 101.057 219.553 101.509 220.05 101.864C220.577 102.18 221.118 102.477 221.675 102.755C221.983 102.438 222.325 102.256 222.702 102.209C223.112 102.157 223.502 102.212 223.87 102.375C224.268 102.499 224.673 102.535 225.084 102.483C225.392 102.444 225.608 102.365 225.732 102.245C226.044 102.519 226.308 102.816 226.522 103.137C226.732 103.423 226.991 103.687 227.299 103.926ZM210.193 97.7293C210.051 97.1559 209.88 96.7601 209.679 96.542C209.507 96.2853 209.347 95.9751 209.197 95.6114C208.999 95.1494 208.832 94.6487 208.695 94.1095C208.592 93.5661 208.457 93.044 208.289 92.5434C207.903 91.4095 207.483 90.2799 207.029 89.1546C206.609 88.025 206.107 86.9404 205.524 85.9007C205.636 85.6781 205.68 85.4812 205.659 85.31L205.64 85.156C205.288 84.8523 205.014 84.4695 204.817 84.0074C204.616 83.5111 204.416 83.0318 204.219 82.5697C204.052 82.0691 203.84 81.6263 203.583 81.2413C203.356 80.8177 203.019 80.4948 202.574 80.2725C202.497 80.4909 202.476 80.737 202.51 81.0109C202.54 81.2505 202.586 81.4709 202.646 81.672C202.74 81.8688 202.802 82.0871 202.832 82.3267C202.511 82.5409 202.289 82.8471 202.165 83.2452C202.071 83.6047 201.866 83.9087 201.549 84.1572C201.413 85.2871 201.151 86.3808 200.762 87.4382C200.369 88.4613 199.942 89.4888 199.48 90.5205C199.053 91.548 198.645 92.5904 198.256 93.6478C197.863 94.6709 197.579 95.7325 197.404 96.8325C196.998 97.1966 196.739 97.629 196.628 98.1298C196.552 98.6263 196.543 99.1142 196.604 99.5935C196.933 99.726 197.288 99.7857 197.669 99.7726C198.08 99.721 198.474 99.6715 198.85 99.6242C199.227 99.5768 199.591 99.5659 199.942 99.5914C200.293 99.6168 200.622 99.7493 200.931 99.9887C201.359 99.7959 201.827 99.65 202.336 99.5513C202.876 99.414 203.301 99.204 203.613 98.9213C204.328 99.0749 205.079 99.1022 205.867 99.0033C206.278 98.9516 206.667 98.8679 207.035 98.7521C207.437 98.632 207.82 98.497 208.184 98.3469C208.501 98.3767 208.755 98.4664 208.948 98.6161C209.137 98.7315 209.4 98.7506 209.738 98.6733C209.892 98.5149 209.977 98.365 209.994 98.2238C210.007 98.0483 210.073 97.8835 210.193 97.7293ZM264.807 69.4786C264.726 69.9409 264.555 70.3797 264.294 70.795L263.556 71.9831C263.326 72.3599 263.133 72.7666 262.979 73.2032C262.856 73.6014 262.86 74.0529 262.993 74.5578C262.925 74.5664 262.839 74.5772 262.736 74.5901C262.629 74.5687 262.542 74.5624 262.473 74.571C261.925 74.6398 261.515 74.8305 261.241 75.1432C260.997 75.4172 260.646 75.67 260.189 75.9014C260.094 75.7046 259.985 75.527 259.861 75.3688C259.732 75.1762 259.561 75.0587 259.347 75.016C258.547 75.2904 257.742 75.5306 256.934 75.7366C256.121 75.9083 255.312 76.1143 254.507 76.3545C254.139 76.4703 253.776 76.6203 253.416 76.8046C253.053 76.9546 252.672 77.1068 252.274 77.2611C252.077 77.3554 251.859 77.4176 251.619 77.4477C251.375 77.4436 251.136 77.4737 250.9 77.5381C250.083 77.6756 249.201 77.8559 248.256 78.0791C247.306 78.268 246.482 78.6324 245.785 79.1721C245.434 79.1466 245.068 79.1404 244.687 79.1535C244.306 79.1666 243.927 79.1968 243.551 79.2442C242.729 79.3474 241.833 79.547 240.861 79.843C239.92 80.1004 239.101 80.4989 238.403 81.0387C238.224 80.9917 238.029 80.964 237.819 80.9556C237.644 80.9429 237.436 80.9516 237.196 80.9817C237.128 80.9903 237.079 81.0138 237.049 81.0524C237.015 81.0567 236.963 81.0631 236.895 81.0717C236.899 81.3842 236.972 81.688 237.114 81.9832C237.285 82.2399 237.535 82.4345 237.865 82.5669C237.775 82.9607 237.759 83.3802 237.815 83.8252C237.888 84.4072 237.995 84.9849 238.137 85.5583C238.312 86.1275 238.437 86.703 238.51 87.285C238.592 87.9355 238.571 88.4598 238.447 88.8579C238.918 89.842 239.227 90.916 239.374 92.08C239.425 92.4909 239.443 92.906 239.426 93.3254C239.439 93.7063 239.473 94.1193 239.529 94.5644C239.577 94.941 239.752 95.2319 240.056 95.4371C240.356 95.6081 240.529 95.8819 240.577 96.2585C240.594 96.3954 240.577 96.5367 240.526 96.6822C240.992 96.5193 241.437 96.3243 241.861 96.0972C242.28 95.8358 242.729 95.675 243.208 95.6148C243.482 95.5804 243.746 95.5995 243.998 95.6721C244.285 95.7403 244.542 95.8472 244.769 95.9925C244.756 96.168 244.745 96.3606 244.737 96.5703C244.763 96.7758 244.789 96.9812 244.814 97.1866C244.862 97.5632 244.907 97.9227 244.95 98.265C245.023 98.5688 245.1 98.9069 245.182 99.2792C244.968 99.7929 244.697 100.262 244.367 100.686C244.072 101.105 243.893 101.615 243.829 102.214C243.316 102.278 242.868 102.456 242.488 102.748C242.137 103 241.808 103.285 241.5 103.602C241.187 103.885 240.875 104.167 240.563 104.45C240.246 104.699 239.883 104.849 239.472 104.9C238.958 104.965 238.59 104.941 238.368 104.83C238.141 104.685 237.965 104.533 237.841 104.375C237.717 104.217 237.595 104.075 237.475 103.951C237.389 103.823 237.211 103.793 236.942 103.862C236.817 103.425 236.629 103.032 236.376 102.681C236.119 102.296 235.847 101.93 235.56 101.584C235.307 101.233 235.037 100.884 234.75 100.538C234.493 100.153 234.288 99.7614 234.133 99.3635C233.816 98.4992 233.614 97.5855 233.528 96.6226C233.442 95.6597 233.172 94.7547 232.717 93.9076C232.726 93.4197 232.717 92.9339 232.691 92.4503C232.66 91.9325 232.615 91.4339 232.555 90.9546C232.435 89.996 232.282 89.0588 232.097 88.1431C231.943 87.1888 231.786 86.2173 231.627 85.2288C231.348 84.9508 231.151 84.6278 231.036 84.2598C230.95 83.8533 230.866 83.4639 230.784 83.0916C230.669 83.0018 230.536 82.9141 230.386 82.8286C230.271 82.7388 230.185 82.6105 230.129 82.4436C229.847 82.4095 229.637 82.4011 229.5 82.4183C229.021 82.4786 228.625 82.65 228.313 82.9327C228.03 83.1768 227.752 83.3161 227.478 83.3505C227.204 83.3849 226.943 83.383 226.695 83.3446C226.447 83.3063 226.203 83.3021 225.963 83.3323C225.758 83.3581 225.645 83.4245 225.623 83.5315C225.632 83.6 225.572 83.677 225.444 83.7627C225.349 83.8441 225.118 83.9427 224.75 84.0585C224.382 84.1743 223.963 84.2965 223.492 84.4252C223.052 84.5154 222.611 84.6056 222.17 84.6957C221.764 84.7816 221.492 84.8331 221.355 84.8504C220.807 84.9192 220.383 84.8681 220.084 84.6971C219.745 84.4962 219.354 84.2846 218.908 84.0623C218.951 83.8483 218.968 83.7071 218.96 83.6386C218.917 83.2962 218.779 83.0352 218.548 82.8556C218.313 82.6418 218.184 82.4493 218.163 82.2781C218.115 81.9015 218.233 81.5912 218.515 81.347C218.763 81.1072 218.876 80.7626 218.855 80.3132C219.599 79.8719 220.371 79.514 221.171 79.2396C221.972 78.9652 222.793 78.7228 223.636 78.5125C224.479 78.3023 225.303 78.077 226.107 77.8368C226.946 77.5923 227.757 77.2644 228.54 76.853C228.784 76.8571 229.011 76.8634 229.22 76.8718C229.46 76.8417 229.7 76.8116 229.939 76.7815C230.966 76.6524 231.963 76.4228 232.93 76.0926C233.927 75.7239 234.957 75.4728 236.018 75.3395C236.292 75.3051 236.568 75.2877 236.846 75.2876C237.124 75.2874 237.404 75.3043 237.687 75.3384C239.031 74.9609 240.355 74.5684 241.66 74.1609C242.999 73.7492 244.377 73.3674 245.794 73.0155C246.47 72.861 247.131 72.7257 247.777 72.6098C248.453 72.4552 249.127 72.2836 249.799 72.0949C250.034 72.0305 250.199 71.9576 250.293 71.8763C250.417 71.7563 250.462 71.5594 250.428 71.2856C250.753 71.3838 251.104 71.4092 251.48 71.3619C252.062 71.2888 252.614 71.1151 253.136 70.8408C253.658 70.5666 254.21 70.3929 254.792 70.3197C254.929 70.3025 255.051 70.3046 255.158 70.3259C255.261 70.313 255.364 70.3001 255.466 70.2872C255.706 70.2571 255.813 70.1393 255.787 69.9339C255.791 69.6899 255.943 69.5144 256.243 69.4072C256.474 69.3086 256.81 69.2142 257.25 69.124C257.691 69.0339 258.149 68.9416 258.624 68.8471C259.129 68.7141 259.583 68.5875 259.985 68.4674C260.417 68.3088 260.725 68.131 260.909 67.934L261.197 67.3239C261.818 67.2807 262.297 67.4987 262.636 67.9778C263.004 68.4184 263.242 68.9275 263.349 69.5052C263.504 69.6249 263.7 69.6698 263.94 69.6396C264.21 69.571 264.447 69.5238 264.653 69.4979L264.807 69.4786Z" fill="white"/>
<circle cx="68.5595" cy="111.706" r="24.46" transform="rotate(13.1997 68.5595 111.706)" fill="white"/>
<path d="M83.8416 94.7532C80.3594 92.9922 70.134 93.0115 65.9415 101.321C60.7009 111.707 75.2563 113.421 71.0277 123.479C67.6449 131.525 57.9383 131.458 55.343 130.566" stroke="#1FBDAA" stroke-width="6" stroke-linecap="round" stroke-linejoin="bevel"/>
</svg>
