<svg width="75" height="62" viewBox="0 0 75 62" fill="none" xmlns="http://www.w3.org/2000/svg">
<path d="M31.0421 13.4684C36.4963 20.1936 36.1561 29.1179 30.7833 33.4754C25.4104 37.8329 16.6081 36.3232 11.1539 29.5981C5.69967 22.8729 6.0398 13.9486 11.4127 9.59108C16.7855 5.23358 25.5878 6.74325 31.0421 13.4684Z" stroke="white" stroke-width="2"/>
<rect x="34.7237" y="43.1519" width="6.9191" height="13.6143" rx="3" transform="rotate(-39.0427 34.7237 43.1519)" stroke="white" stroke-width="2"/>
<path d="M25.0408 35.4974C26.9433 35.6543 29.2821 36.9218 31.016 38.4969C32.7499 40.0719 33.9774 41.9138 34.3744 42.6379L39.3081 38.6366C38.6045 37.7689 36.9476 35.726 35.9497 34.4956C34.9518 33.2651 33.8791 29.4409 33.4675 27.6825" stroke="white" stroke-width="2"/>
<path d="M62.7396 30.1426C56.9157 36.5503 48.0424 37.5624 42.9232 32.9096C37.8039 28.2568 37.9663 19.3275 43.7902 12.9197C49.614 6.51204 58.4873 5.49989 63.6066 10.1527C68.7258 14.8055 68.5634 23.7349 62.7396 30.1426Z" stroke="white" stroke-width="2"/>
<rect x="33.9532" y="38.2667" width="6.9191" height="13.6143" rx="3" transform="rotate(42.2672 33.9532 38.2667)" stroke="white" stroke-width="2"/>
<path d="M40.0568 27.5386C40.1892 29.443 39.2896 31.9465 37.9946 33.8984C36.6996 35.8504 35.0643 37.3421 34.4085 37.844L39.1093 42.1165C39.8607 41.2898 41.6298 39.3433 42.6954 38.1709C43.761 36.9985 47.3792 35.3604 49.0552 34.6878" stroke="white" stroke-width="2"/>
</svg>
