<svg width="127" height="127" viewBox="0 0 127 127" fill="none" xmlns="http://www.w3.org/2000/svg">
<circle cx="63.5" cy="63.5" r="61" fill="#41A195" stroke="white" stroke-width="5"/>
<path d="M68.4141 45.7067C75.7873 54.798 75.386 66.9517 68.0187 72.9267C60.6514 78.9017 48.6767 76.7851 41.3035 67.6939C33.9303 58.6026 34.3316 46.4489 41.6989 40.4739C49.0662 34.4989 61.0409 36.6154 68.4141 45.7067Z" stroke="white" stroke-width="2"/>
<rect x="72.6004" y="85.5516" width="9.92343" height="18.8738" rx="3" transform="rotate(-39.0427 72.6004 85.5516)" stroke="white" stroke-width="2"/>
<path d="M60.1299 75.3682C62.6732 75.578 65.7999 77.2724 68.1178 79.378C70.4357 81.4836 72.0767 83.946 72.6075 84.9139L79.2031 79.5648C78.2624 78.4049 76.0475 75.6739 74.7134 74.0289C73.3793 72.384 71.9453 67.2716 71.3951 64.921" stroke="white" stroke-width="2"/>
</svg>
