<svg width="518" height="283" viewBox="0 0 518 283" fill="none" xmlns="http://www.w3.org/2000/svg">
<path d="M155.777 148.164C155.642 149.518 155.168 150.568 154.355 151.312C153.543 152.125 152.493 152.531 151.207 152.531C150.53 152.531 149.887 152.43 149.277 152.227C147.991 153.242 146.467 154.021 144.707 154.562C142.947 155.104 141.288 155.646 139.73 156.188C137.835 156.12 135.973 155.951 134.145 155.68C132.316 155.409 130.421 155.341 128.457 155.477C127.78 155.003 127.069 154.698 126.324 154.562C125.579 154.427 124.801 154.326 123.988 154.258C123.243 154.258 122.499 154.156 121.754 153.953C121.077 153.75 120.4 153.276 119.723 152.531H114.645C114.171 152.531 113.46 152.294 112.512 151.82C111.632 151.414 110.616 150.974 109.465 150.5C108.382 150.026 107.197 149.586 105.91 149.18C104.691 148.773 103.54 148.57 102.457 148.57H101.848C101.103 147.961 100.223 147.487 99.207 147.148C98.2591 146.878 97.2773 146.607 96.2617 146.336C95.2461 146.133 94.2643 145.896 93.3164 145.625C92.3685 145.354 91.556 144.982 90.8789 144.508C90.2018 144.034 89.4232 143.56 88.543 143.086C87.6628 142.544 86.7487 142.307 85.8008 142.375C84.5143 141.63 83.1602 140.987 81.7383 140.445C80.3841 139.904 78.9961 139.396 77.5742 138.922L73.4102 137.398C72.056 136.857 70.7018 136.214 69.3477 135.469C69.1445 135.536 68.9076 135.536 68.6367 135.469C68.3659 135.401 68.1289 135.367 67.9258 135.367C67.5195 135.367 67.2826 135.503 67.2148 135.773C66.7409 135.299 66.1992 134.893 65.5898 134.555C65.0482 134.216 64.5065 133.81 63.9648 133.336C63.694 133.404 63.4232 133.471 63.1523 133.539C62.9492 133.539 62.6784 133.539 62.3398 133.539C61.7305 133.539 61.1211 133.471 60.5117 133.336C59.9701 133.201 59.4284 133.031 58.8867 132.828C58.2773 134.182 57.8711 135.706 57.668 137.398C57.4648 139.091 57.2956 140.852 57.1602 142.68C57.0924 144.44 56.9909 146.201 56.8555 147.961C56.7201 149.789 56.4154 151.448 55.9414 152.938C56.0768 153.479 56.1445 154.021 56.1445 154.562V156.289C56.1445 157.44 56.3138 158.354 56.6523 159.031C56.5169 159.641 56.3815 160.216 56.2461 160.758C56.1784 161.299 56.0768 161.841 55.9414 162.383C56.0091 163.128 56.043 163.805 56.043 164.414C56.1107 165.091 56.1445 165.802 56.1445 166.547V168.273C56.1445 168.883 56.0768 169.492 55.9414 170.102C55.2643 170.508 54.5872 170.88 53.9102 171.219C53.2331 171.625 52.556 172.099 51.8789 172.641C51.4049 171.76 50.5924 171.253 49.4414 171.117C49.1706 171.456 48.9674 171.896 48.832 172.438C48.7643 173.047 48.4596 173.352 47.918 173.352C46.9701 172.607 46.1914 171.997 45.582 171.523C44.9727 171.049 44.2956 170.339 43.5508 169.391C43.4831 169.255 43.4492 169.086 43.4492 168.883C43.4492 168.544 43.5169 168.24 43.6523 167.969C43.7878 167.698 43.8555 167.427 43.8555 167.156C43.8555 166.344 43.7539 165.633 43.5508 165.023C43.4154 164.143 43.3138 163.263 43.2461 162.383C43.1784 161.57 43.1445 160.758 43.1445 159.945C43.1445 158.794 43.2122 157.677 43.3477 156.594C43.5508 155.51 43.8893 154.393 44.3633 153.242C45.1081 151.279 45.6159 149.214 45.8867 147.047C46.2253 144.88 46.4622 142.714 46.5977 140.547C46.7331 138.312 46.8008 136.078 46.8008 133.844C46.8685 131.609 47.0039 129.477 47.207 127.445C46.7331 126.362 46.1576 125.516 45.4805 124.906C44.8711 124.229 44.5664 123.18 44.5664 121.758C44.5664 120.471 44.9727 119.49 45.7852 118.812C46.5977 118.068 47.3086 117.188 47.918 116.172C47.7826 115.766 47.8841 115.495 48.2227 115.359L49.4414 104.695C49.5091 103.951 49.6107 103.138 49.7461 102.258C49.9492 101.378 50.0846 100.565 50.1523 99.8203C50.2878 98.263 50.3555 96.7396 50.3555 95.25C50.3555 93.7604 50.4232 92.2708 50.5586 90.7812C50.8971 87.4635 51.2018 84.1797 51.4727 80.9297C51.8112 77.6797 51.9805 74.4297 51.9805 71.1797C51.9805 69.6224 51.9128 68.0651 51.7773 66.5078C51.7096 64.9505 51.5065 63.3932 51.168 61.8359C50.0169 62.1745 48.7305 62.5469 47.3086 62.9531C45.9544 63.2917 44.8034 63.901 43.8555 64.7812H43.043C41.2826 64.7812 39.6237 65.1198 38.0664 65.7969C36.5768 66.474 35.0534 67.1172 33.4961 67.7266C32.819 68.0651 32.1419 68.3021 31.4648 68.4375C30.7878 68.5052 30.0768 68.6406 29.332 68.8438C28.9935 68.9115 28.6211 69.1146 28.2148 69.4531C27.8086 69.7917 27.4362 70.0286 27.0977 70.1641L25.3711 70.5703C24.8971 70.7057 24.694 71.0104 24.7617 71.4844C24.8294 71.9583 24.6602 72.263 24.2539 72.3984C23.9154 72.737 23.4414 72.9062 22.832 72.9062C22.2227 72.8385 21.7487 72.8047 21.4102 72.8047H21.0039C19.3112 74.0234 17.6862 75.0729 16.1289 75.9531C14.5039 76.7656 12.6081 77.3073 10.4414 77.5781L8.20703 79C7.46224 79.474 6.61589 79.7109 5.66797 79.7109C4.92318 79.7109 4.3138 79.5755 3.83984 79.3047C3.29818 78.4922 2.89193 77.5781 2.62109 76.5625C2.28255 75.5469 1.74089 74.6667 0.996094 73.9219C1.33464 73.5833 1.57161 73.1432 1.70703 72.6016C1.77474 71.9922 1.8763 71.4505 2.01172 70.9766C4.04297 70.0964 6.10807 69.25 8.20703 68.4375C10.2383 67.625 12.2018 66.6432 14.0977 65.4922C14.3008 65.5599 14.6055 65.5938 15.0117 65.5938C15.6888 65.5938 16.2982 65.4922 16.8398 65.2891C17.3815 65.0859 17.9232 64.849 18.4648 64.5781C19.0065 64.3073 19.5482 64.0703 20.0898 63.8672C20.6315 63.6641 21.2747 63.5964 22.0195 63.6641C24.3216 62.3776 26.7591 61.3281 29.332 60.5156C31.9049 59.7031 34.3424 58.5859 36.6445 57.1641C36.9831 57.1641 37.2539 57.2318 37.457 57.3672C37.7279 57.5026 37.9987 57.5703 38.2695 57.5703C38.5404 57.5703 38.7096 57.5365 38.7773 57.4688C39.1836 56.9271 39.7253 56.5547 40.4023 56.3516C41.0794 56.0807 41.7565 55.8776 42.4336 55.7422C43.1784 55.5391 43.8555 55.3021 44.4648 55.0312C45.1419 54.6927 45.582 54.1849 45.7852 53.5078C46.1237 53.7786 46.6315 53.9141 47.3086 53.9141C48.4596 53.9141 49.5091 53.6771 50.457 53.2031C51.4727 52.7292 52.556 52.4922 53.707 52.4922C53.9779 52.4922 54.2148 52.5599 54.418 52.6953C54.6888 52.763 54.9596 52.7969 55.2305 52.7969C55.7721 52.7969 56.043 52.6276 56.043 52.2891C56.1107 51.9505 56.3138 51.6458 56.6523 51.375C60.7826 50.6302 64.8789 49.9531 68.9414 49.3438C73.0716 48.7344 77.2357 48.4297 81.4336 48.4297C82.043 48.0234 82.7201 47.8203 83.4648 47.8203C84.2096 47.8203 84.8867 48.0234 85.4961 48.4297C86.6471 48.2943 87.7982 48.1927 88.9492 48.125C90.1003 48.0573 91.2513 48.0234 92.4023 48.0234C95.043 48.0234 97.7513 48.1927 100.527 48.5312C103.303 48.8698 106.046 49.4115 108.754 50.1562C111.53 50.8333 114.171 51.7812 116.676 53C119.181 54.151 121.517 55.5391 123.684 57.1641C123.887 57.7734 124.158 58.3828 124.496 58.9922C124.835 59.6016 125.275 60.0755 125.816 60.4141C125.816 60.5495 125.783 60.651 125.715 60.7188C125.715 60.7865 125.715 60.888 125.715 61.0234C125.715 61.7682 125.918 62.4792 126.324 63.1562C126.798 63.8333 127.035 64.6458 127.035 65.5938C127.035 66.5417 126.866 67.4896 126.527 68.4375C126.257 69.3854 126.155 70.3333 126.223 71.2812C125.478 72.3646 124.835 73.3464 124.293 74.2266C123.819 75.1068 123.514 76.224 123.379 77.5781C122.16 78.7969 121.077 80.151 120.129 81.6406C119.181 83.0625 118.199 84.4844 117.184 85.9062C116.236 87.2604 115.152 88.513 113.934 89.6641C112.715 90.8151 111.259 91.7292 109.566 92.4062C109.499 93.0833 109.228 93.8281 108.754 94.6406H106.621C106.418 95.1823 106.079 95.5885 105.605 95.8594L104.184 96.6719C103.71 96.9427 103.303 97.2812 102.965 97.6875C102.694 98.0938 102.559 98.6693 102.559 99.4141C102.423 99.3464 102.254 99.3125 102.051 99.3125C101.374 99.3125 100.561 99.651 99.6133 100.328C98.7331 101.005 98.0221 101.547 97.4805 101.953C96.3294 102.766 95.1445 103.51 93.9258 104.188C92.7747 104.865 91.7591 105.812 90.8789 107.031C88.1706 108.182 85.5977 109.536 83.1602 111.094C80.7227 112.583 78.082 113.768 75.2383 114.648C74.1549 115.799 72.8685 116.714 71.3789 117.391C69.957 118 68.569 118.677 67.2148 119.422V119.727C67.2148 120.268 67.418 120.81 67.8242 121.352C68.2305 121.826 68.7044 122.266 69.2461 122.672C69.7878 123.01 70.3633 123.247 70.9727 123.383C71.6497 123.518 72.2253 123.518 72.6992 123.383C74.0534 124.602 75.6107 125.583 77.3711 126.328C79.1315 127.073 80.9596 127.75 82.8555 128.359C84.7513 128.969 86.6133 129.612 88.4414 130.289C90.2695 130.966 91.9622 131.812 93.5195 132.828H95.957C97.5143 134.182 99.3424 135.198 101.441 135.875C103.608 136.552 105.673 137.161 107.637 137.703C108.449 138.448 109.465 139.023 110.684 139.43C111.97 139.768 113.189 139.938 114.34 139.938H114.949C115.22 139.938 115.457 139.904 115.66 139.836V140.039C115.66 140.378 115.762 140.615 115.965 140.75C116.168 140.818 116.371 140.885 116.574 140.953C116.845 140.953 117.082 141.021 117.285 141.156C117.556 141.224 117.759 141.359 117.895 141.562H118.91C120.332 141.562 121.686 141.867 122.973 142.477C124.259 143.018 125.613 143.289 127.035 143.289C127.645 143.289 128.118 143.221 128.457 143.086C128.863 143.221 129.168 143.492 129.371 143.898C129.574 144.305 129.845 144.643 130.184 144.914C130.658 144.846 131.098 144.779 131.504 144.711C131.91 144.711 132.316 144.711 132.723 144.711C134.212 144.711 135.6 144.88 136.887 145.219C138.173 145.557 139.493 146.065 140.848 146.742C143.014 145.794 145.147 145.016 147.246 144.406C149.345 143.797 151.579 143.492 153.949 143.492V143.695C153.949 144.508 154.152 145.253 154.559 145.93C155.033 146.674 155.439 147.419 155.777 148.164ZM116.879 67.1172C116.879 66.3047 116.71 65.6615 116.371 65.1875C116.1 64.7135 115.728 64.3073 115.254 63.9688C114.78 63.5625 114.272 63.1901 113.73 62.8516C113.257 62.513 112.816 62.0729 112.41 61.5312C110.65 60.9896 108.923 60.3802 107.23 59.7031C105.538 59.026 103.811 58.4505 102.051 57.9766C101.171 57.7734 100.29 57.6042 99.4102 57.4688C98.5299 57.2656 97.6497 57.1641 96.7695 57.1641H94.5352C94.1289 57.0964 93.6888 57.0286 93.2148 56.9609C92.8086 56.8255 92.4023 56.724 91.9961 56.6562C91.0482 56.5208 90.1003 56.4193 89.1523 56.3516C88.2721 56.2839 87.3581 56.25 86.4102 56.25C84.6497 56.25 82.8893 56.3177 81.1289 56.4531L75.8477 56.8594C75.1029 56.9271 74.3242 56.9609 73.5117 56.9609C72.6992 56.9609 71.9544 57.0286 71.2773 57.1641C70.9388 57.2318 70.4648 57.401 69.8555 57.6719C69.2461 57.875 68.6029 58.112 67.9258 58.3828C67.2487 58.5859 66.5716 58.8229 65.8945 59.0938C65.2852 59.3646 64.7435 59.5677 64.2695 59.7031C64.3372 60.1771 64.3711 60.651 64.3711 61.125V62.4453C64.3711 63.4609 64.3372 64.4766 64.2695 65.4922C64.2018 66.5078 64.0664 67.5234 63.8633 68.5391C63.7956 68.9453 63.694 69.3516 63.5586 69.7578C63.4232 70.1641 63.3216 70.5703 63.2539 70.9766C63.1185 71.5859 63.0508 72.263 63.0508 73.0078V74.9375C62.9154 76.4948 62.8138 78.0182 62.7461 79.5078C62.6784 80.9974 62.5768 82.5208 62.4414 84.0781C62.0352 88.5469 61.5951 92.9818 61.1211 97.3828C60.7148 101.784 60.444 106.219 60.3086 110.688C62.543 110.214 64.6758 109.503 66.707 108.555C68.7383 107.607 70.7357 106.591 72.6992 105.508C74.6628 104.357 76.6263 103.24 78.5898 102.156C80.5534 101.073 82.6185 100.159 84.7852 99.4141C85.3268 98.6693 85.9701 98.0599 86.7148 97.5859C87.5273 97.112 88.2044 96.5026 88.7461 95.7578C89.4232 95.7578 89.931 95.6224 90.2695 95.3516C90.6081 95.013 91.0482 94.776 91.5898 94.6406C94.8398 91.7969 98.1576 89.1224 101.543 86.6172C104.928 84.112 108.178 81.4375 111.293 78.5938C111.564 77.6458 112.004 76.7318 112.613 75.8516C113.29 74.9036 113.934 73.9557 114.543 73.0078C115.152 72.0599 115.694 71.112 116.168 70.1641C116.642 69.2161 116.879 68.2005 116.879 67.1172ZM188.176 85.1953C187.77 85.8047 187.533 86.4818 187.465 87.2266C187.397 87.9714 187.363 88.6484 187.363 89.2578C187.363 90.0703 187.363 90.8828 187.363 91.6953C187.431 92.4401 187.465 93.1849 187.465 93.9297V95.4531C187.329 95.9271 187.126 96.401 186.855 96.875C186.585 97.349 186.382 97.8229 186.246 98.2969C185.298 100.802 184.824 103.307 184.824 105.812V106.016C184.486 106.828 184.147 107.573 183.809 108.25C183.538 108.927 183.267 109.604 182.996 110.281C182.725 110.891 182.522 111.568 182.387 112.312C182.251 112.99 182.217 113.802 182.285 114.75C181.337 117.12 180.085 119.286 178.527 121.25C176.97 123.146 175.447 125.109 173.957 127.141C172.535 127.682 171.215 128.393 169.996 129.273C168.845 130.154 167.728 131.135 166.645 132.219C164.546 132.896 162.48 133.674 160.449 134.555C158.418 135.435 156.59 136.62 154.965 138.109C153.678 138.245 152.392 138.448 151.105 138.719C149.819 138.99 148.566 139.396 147.348 139.938H146.129C145.52 139.938 145.079 139.802 144.809 139.531C143.928 140.005 143.014 140.344 142.066 140.547C141.118 140.682 140.171 140.75 139.223 140.75C138.004 140.75 136.785 140.682 135.566 140.547C134.415 140.344 133.23 140.141 132.012 139.938C131.335 138.99 130.387 138.279 129.168 137.805C127.949 137.263 126.866 136.755 125.918 136.281C123.954 133.573 122.533 130.966 121.652 128.461C120.772 125.888 119.858 123.01 118.91 119.828C119.046 118.88 119.283 117.966 119.621 117.086C119.96 116.138 120.095 115.122 120.027 114.039C121.246 110.518 122.837 107.336 124.801 104.492C126.832 101.581 129.134 98.8047 131.707 96.1641C131.707 95.7578 131.775 95.4193 131.91 95.1484C132.113 94.8776 132.147 94.4714 132.012 93.9297C132.079 93.9974 132.215 94.0312 132.418 94.0312C132.96 94.0312 133.298 93.8958 133.434 93.625C133.569 93.2865 133.603 92.9141 133.535 92.5078C135.973 90.9505 138.173 89.1562 140.137 87.125C142.168 85.0938 144.47 83.401 147.043 82.0469C147.246 81.4375 147.585 80.9297 148.059 80.5234C148.533 80.1172 148.905 79.6432 149.176 79.1016C151.342 78.4922 153.306 77.5781 155.066 76.3594C156.827 75.1406 158.689 74.0573 160.652 73.1094C161.736 72.5 162.751 72.0938 163.699 71.8906C164.715 71.6198 165.798 71.349 166.949 71.0781C167.355 70.9427 167.728 70.8411 168.066 70.7734C168.405 70.7057 168.777 70.6719 169.184 70.6719C170.402 70.6719 171.587 70.9089 172.738 71.3828C173.889 71.7891 175.074 71.9922 176.293 71.9922C176.632 71.9922 176.902 71.9922 177.105 71.9922C177.376 71.9245 177.647 71.8568 177.918 71.7891C179.069 73.2109 180.525 74.2943 182.285 75.0391C182.691 76.0547 183.165 76.9349 183.707 77.6797C184.316 78.4245 184.926 79.1693 185.535 79.9141C186.145 80.5911 186.686 81.3698 187.16 82.25C187.702 83.0625 188.04 84.0443 188.176 85.1953ZM178.02 90.4766C178.02 90.138 177.986 89.8333 177.918 89.5625C177.241 89.3594 176.598 89.0885 175.988 88.75C175.379 88.4115 174.702 88.2422 173.957 88.2422C173.483 88.2422 173.009 88.3438 172.535 88.5469C172.467 88.0729 172.264 87.7344 171.926 87.5312C171.655 87.3281 171.316 87.1589 170.91 87.0234C170.572 86.8203 170.199 86.6849 169.793 86.6172C169.454 86.4818 169.15 86.2786 168.879 86.0078C168.676 85.4661 168.439 84.9245 168.168 84.3828C167.965 83.7734 167.559 83.3333 166.949 83.0625C166.34 83.6719 165.629 84.1797 164.816 84.5859C164.004 84.9245 163.158 85.263 162.277 85.6016C161.465 85.9401 160.652 86.3464 159.84 86.8203C159.095 87.2943 158.452 87.8698 157.91 88.5469H156.082C155.676 89.2917 155.1 89.8672 154.355 90.2734C153.611 90.612 152.967 91.1198 152.426 91.7969C151.342 92.3385 150.327 93.0156 149.379 93.8281C148.499 94.5729 147.618 95.3854 146.738 96.2656C145.858 97.0781 144.978 97.9245 144.098 98.8047C143.285 99.6849 142.405 100.497 141.457 101.242C140.577 103.138 139.595 104.797 138.512 106.219C137.496 107.573 136.514 108.961 135.566 110.383C134.686 111.805 133.908 113.362 133.23 115.055C132.621 116.68 132.316 118.711 132.316 121.148V122.164C132.316 122.503 132.35 122.841 132.418 123.18C133.298 124.128 134.009 125.143 134.551 126.227C135.16 127.31 136.142 128.089 137.496 128.562C138.85 129.104 140.272 129.341 141.762 129.273C143.319 129.206 144.809 129.375 146.23 129.781C149.48 129.172 152.595 128.19 155.574 126.836C158.621 125.414 161.499 123.721 164.207 121.758C164.613 121.419 165.087 121.081 165.629 120.742C166.171 120.336 166.611 119.93 166.949 119.523C167.288 119.185 167.559 118.812 167.762 118.406C168.033 118 168.303 117.628 168.574 117.289C169.116 116.409 169.725 115.529 170.402 114.648C171.079 113.768 171.79 112.956 172.535 112.211C172.874 110.721 173.314 109.299 173.855 107.945C174.397 106.523 174.939 105.135 175.48 103.781C176.022 102.427 176.462 101.039 176.801 99.6172C177.207 98.1953 177.41 96.7057 177.41 95.1484C177.41 94.8099 177.376 94.4375 177.309 94.0312C177.309 93.625 177.275 93.2526 177.207 92.9141C177.749 92.1693 178.02 91.3568 178.02 90.4766ZM301.012 87.8359C300.809 88.4453 300.402 88.8854 299.793 89.1562C299.251 89.3594 298.676 89.5286 298.066 89.6641C297.457 89.7995 296.882 90.0365 296.34 90.375C295.866 90.6458 295.561 91.1198 295.426 91.7969L295.223 91.8984C294.952 91.8984 294.749 91.8307 294.613 91.6953C294.546 91.4922 294.478 91.3229 294.41 91.1875C294.342 90.9844 294.241 90.8151 294.105 90.6797C294.038 90.4766 293.902 90.375 293.699 90.375C292.954 90.375 292.21 90.4427 291.465 90.5781C290.788 90.7135 290.111 90.7812 289.434 90.7812C288.418 90.7812 287.504 90.6458 286.691 90.375C286.217 90.5104 285.947 90.8151 285.879 91.2891C285.879 91.763 285.676 92.0677 285.27 92.2031C284.931 92.3385 284.525 92.4062 284.051 92.4062C283.577 92.3385 283.103 92.3724 282.629 92.5078L279.379 93.3203C278.296 93.5911 277.212 93.7266 276.129 93.7266C275.52 93.7266 275.079 93.6927 274.809 93.625C273.793 94.4375 272.642 95.0469 271.355 95.4531C270.069 95.7917 268.715 96.1302 267.293 96.4688C265.939 96.7396 264.585 97.112 263.23 97.5859C261.944 98.0599 260.793 98.8047 259.777 99.8203C259.236 99.6849 258.762 99.6172 258.355 99.6172C257.475 99.6172 256.697 99.8203 256.02 100.227C255.342 100.565 254.632 100.904 253.887 101.242C253.548 101.378 253.21 101.445 252.871 101.445C252.533 101.445 252.16 101.513 251.754 101.648C251.348 101.784 251.077 102.021 250.941 102.359C250.874 102.63 250.671 102.901 250.332 103.172C250.332 105.609 250.569 108.047 251.043 110.484C251.517 112.854 251.754 115.258 251.754 117.695V118.102C251.889 119.253 252.262 120.336 252.871 121.352C253.48 122.299 253.785 123.281 253.785 124.297C253.785 124.635 253.717 125.008 253.582 125.414C255.342 125.82 256.493 126.734 257.035 128.156C257.645 129.51 258.118 131 258.457 132.625C258.863 134.182 259.371 135.638 259.98 136.992C260.658 138.346 261.944 139.193 263.84 139.531C263.975 140.208 264.077 140.919 264.145 141.664C264.212 142.341 264.246 143.018 264.246 143.695C264.246 144.643 264.145 145.557 263.941 146.438C263.738 147.385 263.332 148.232 262.723 148.977C261.707 149.044 260.962 149.078 260.488 149.078C260.014 149.078 259.303 149.281 258.355 149.688C257.001 148.875 255.783 147.927 254.699 146.844C253.684 145.828 252.702 144.745 251.754 143.594C250.874 142.375 249.993 141.156 249.113 139.938C248.233 138.651 247.285 137.432 246.27 136.281C242.749 137.161 239.126 137.771 235.402 138.109C231.746 138.38 228.09 138.516 224.434 138.516C224.298 138.651 224.095 138.719 223.824 138.719C223.553 138.719 223.283 138.753 223.012 138.82C222.809 138.82 222.605 138.888 222.402 139.023C222.267 139.091 222.233 139.26 222.301 139.531C221.827 139.26 221.285 139.091 220.676 139.023C220.134 138.888 219.626 138.82 219.152 138.82C218.814 138.82 218.475 138.854 218.137 138.922C217.798 138.922 217.46 139.023 217.121 139.227C214.548 138.753 212.043 138.109 209.605 137.297C207.236 136.417 204.798 135.706 202.293 135.164C202.293 134.622 202.158 134.25 201.887 134.047C201.616 133.776 201.379 133.404 201.176 132.93C198.332 131.169 195.928 129.036 193.965 126.531C192.069 124.026 191.29 120.979 191.629 117.391L190.918 115.969C190.918 114.885 191.155 114.107 191.629 113.633C191.358 113.159 190.884 112.685 190.207 112.211C190.816 111.263 191.358 110.281 191.832 109.266C192.306 108.25 192.645 107.167 192.848 106.016C192.915 105.677 192.949 105.372 192.949 105.102C192.949 104.831 193.017 104.526 193.152 104.188C193.288 103.781 193.491 103.341 193.762 102.867C193.965 102.326 194.168 101.852 194.371 101.445C195.454 99.1432 196.639 96.9427 197.926 94.8438C199.28 92.6771 200.973 90.8151 203.004 89.2578C203.139 88.1068 203.478 87.1589 204.02 86.4141C204.561 85.6016 205.137 84.8906 205.746 84.2812C206.423 83.6042 207.066 82.9271 207.676 82.25C208.353 81.5729 208.861 80.7604 209.199 79.8125C210.553 78.6615 211.908 77.5443 213.262 76.4609C214.684 75.3776 215.868 74.0911 216.816 72.6016C218.035 72.1953 219.186 71.6875 220.27 71.0781C221.353 70.401 222.267 69.5547 223.012 68.5391C224.637 68.4036 226.228 68.099 227.785 67.625C229.41 67.151 231.103 66.9141 232.863 66.9141C233.608 66.9141 234.488 67.0833 235.504 67.4219C236.587 67.6927 237.4 68.2005 237.941 68.9453C238.009 69.0807 238.043 69.25 238.043 69.4531L238.145 69.9609C238.212 70.0964 238.28 70.2318 238.348 70.3672C238.483 70.4349 238.686 70.4349 238.957 70.3672C238.957 71.8568 238.788 73.3802 238.449 74.9375C238.111 76.4271 237.23 77.5781 235.809 78.3906C234.928 78.1198 233.98 77.9844 232.965 77.9844C231.611 77.9844 230.358 78.2552 229.207 78.7969C228.124 79.2708 227.04 79.8464 225.957 80.5234C224.941 81.1328 223.892 81.776 222.809 82.4531C221.725 83.0625 220.574 83.5026 219.355 83.7734C219.22 84.3151 219.085 84.8229 218.949 85.2969C218.882 85.7031 218.915 86.1771 219.051 86.7188C218.712 86.7188 218.441 86.6849 218.238 86.6172C218.103 86.4818 217.866 86.4141 217.527 86.4141C217.053 86.4141 216.715 86.6849 216.512 87.2266C216.376 87.7682 216.241 88.2083 216.105 88.5469C214.819 89.0885 213.736 89.8672 212.855 90.8828C212.043 91.8307 211.264 92.8802 210.52 94.0312C209.842 95.1146 209.098 96.1641 208.285 97.1797C207.473 98.1953 206.457 98.974 205.238 99.5156C204.697 101.682 204.155 103.815 203.613 105.914C203.139 108.013 202.564 110.112 201.887 112.211C202.09 113.023 202.191 113.87 202.191 114.75C202.191 115.833 202.09 116.815 201.887 117.695C202.225 118.237 202.564 118.88 202.902 119.625L204.121 121.961C204.527 122.773 204.934 123.518 205.34 124.195C205.814 124.872 206.254 125.38 206.66 125.719C207.405 126.26 208.556 126.768 210.113 127.242C211.671 127.648 213.059 128.359 214.277 129.375C214.413 129.375 214.582 129.375 214.785 129.375C214.988 129.307 215.158 129.273 215.293 129.273C216.105 129.273 216.986 129.477 217.934 129.883C218.882 130.289 219.491 130.492 219.762 130.492C223.553 130.492 227.684 130.255 232.152 129.781C236.621 129.24 240.751 128.596 244.543 127.852C244.678 127.174 244.746 126.599 244.746 126.125C244.746 125.245 244.611 124.398 244.34 123.586C244.069 122.706 243.629 121.961 243.02 121.352C243.02 120.336 243.02 119.32 243.02 118.305C243.087 117.289 243.121 116.273 243.121 115.258C243.121 113.565 243.053 111.771 242.918 109.875C242.783 107.979 242.444 106.219 241.902 104.594H241.699C240.819 104.594 240.007 104.831 239.262 105.305C238.585 105.711 237.874 105.914 237.129 105.914C236.723 105.914 236.384 105.812 236.113 105.609C235.301 106.557 234.319 107.268 233.168 107.742C232.017 108.216 230.798 108.656 229.512 109.062C228.225 109.401 226.939 109.773 225.652 110.18C224.434 110.586 223.316 111.161 222.301 111.906C221.759 111.703 221.251 111.602 220.777 111.602C220.303 111.602 219.829 111.635 219.355 111.703C218.949 111.771 218.475 111.839 217.934 111.906C216.512 110.688 215.801 109.164 215.801 107.336C215.801 106.388 215.936 105.474 216.207 104.594C216.546 103.646 216.986 102.766 217.527 101.953C217.866 101.75 218.272 101.648 218.746 101.648C219.22 101.581 219.694 101.513 220.168 101.445C220.642 101.31 221.014 101.141 221.285 100.938C221.624 100.734 221.827 100.362 221.895 99.8203C222.098 100.023 222.267 100.125 222.402 100.125C222.538 100.125 222.673 100.091 222.809 100.023C222.944 99.9557 223.079 99.9219 223.215 99.9219C223.35 99.9219 223.452 99.9896 223.52 100.125C223.655 100.26 223.723 100.396 223.723 100.531C226.634 98.974 229.613 97.6536 232.66 96.5703C235.707 95.487 238.788 94.5052 241.902 93.625C245.085 92.7448 248.267 91.9323 251.449 91.1875C254.632 90.375 257.78 89.4948 260.895 88.5469C261.368 88.1406 261.876 87.8359 262.418 87.6328C262.96 87.4297 263.434 87.125 263.84 86.7188C264.314 86.9896 264.889 87.125 265.566 87.125C266.514 87.125 267.53 86.9557 268.613 86.6172C269.764 86.2109 270.712 85.737 271.457 85.1953C271.728 85.263 271.965 85.2969 272.168 85.2969H272.879C274.233 85.2969 275.486 85.0938 276.637 84.6875C277.855 84.2812 279.04 83.7396 280.191 83.0625H280.699C282.798 83.0625 284.863 82.8255 286.895 82.3516C288.993 81.8776 291.126 81.6406 293.293 81.6406C296.069 81.6406 298.507 82.3516 300.605 83.7734V84.9922C300.605 85.5339 300.605 86.0417 300.605 86.5156C300.673 86.9219 300.809 87.362 301.012 87.8359ZM335.949 79.4062V79.8125C335.475 79.9479 335.238 80.2865 335.238 80.8281C334.493 81.1667 333.715 81.4375 332.902 81.6406C332.09 81.776 331.311 82.013 330.566 82.3516C329.822 82.2839 329.043 82.25 328.23 82.25C327.486 82.1823 326.741 82.1484 325.996 82.1484C323.965 82.1484 321.934 82.2161 319.902 82.3516C317.871 82.487 315.84 82.487 313.809 82.3516C312.861 82.8932 311.811 83.3333 310.66 83.6719C309.577 83.9427 308.527 84.0781 307.512 84.0781C306.699 84.0781 305.988 83.9766 305.379 83.7734C303.754 84.5859 301.96 85.263 299.996 85.8047C298.1 86.3464 296.171 86.888 294.207 87.4297C292.243 87.9036 290.348 88.4792 288.52 89.1562C286.759 89.7656 285.202 90.6458 283.848 91.7969C283.712 92.7448 283.611 93.6927 283.543 94.6406C283.475 95.5208 283.441 96.401 283.441 97.2812C283.441 98.2292 283.475 99.1094 283.543 99.9219C283.678 100.734 283.915 101.547 284.254 102.359C284.592 102.495 284.965 102.596 285.371 102.664C285.845 102.732 286.251 102.766 286.59 102.766C286.928 102.766 287.267 102.732 287.605 102.664C287.944 102.529 288.181 102.292 288.316 101.953C289.332 101.818 290.348 101.784 291.363 101.852C292.379 101.852 293.395 101.852 294.41 101.852C295.426 101.852 296.408 101.818 297.355 101.75C298.371 101.682 299.353 101.513 300.301 101.242C301.384 100.971 302.434 100.802 303.449 100.734C304.533 100.667 305.582 100.599 306.598 100.531C307.613 100.464 308.663 100.362 309.746 100.227C310.829 100.023 311.947 99.651 313.098 99.1094C313.978 99.4479 314.858 99.6172 315.738 99.6172C316.686 99.6172 317.6 99.6849 318.48 99.8203C318.954 100.159 319.327 100.531 319.598 100.938C319.936 101.344 320.105 101.818 320.105 102.359C320.105 103.307 319.767 104.255 319.09 105.203C318.413 106.151 317.871 107.031 317.465 107.844H316.348C314.723 107.844 313.132 108.081 311.574 108.555C310.085 108.961 308.561 109.469 307.004 110.078C305.514 110.62 303.991 111.128 302.434 111.602C300.944 112.008 299.387 112.211 297.762 112.211C297.491 112.211 297.322 112.38 297.254 112.719C297.254 112.99 297.186 113.193 297.051 113.328C296.712 113.26 296.204 113.227 295.527 113.227C293.97 113.227 292.48 113.396 291.059 113.734C289.637 114.073 288.181 114.242 286.691 114.242C286.285 114.242 285.879 114.242 285.473 114.242C285.066 114.174 284.66 114.107 284.254 114.039C283.915 114.581 283.475 114.953 282.934 115.156C282.392 115.292 281.884 115.562 281.41 115.969C281.207 116.578 281.072 117.323 281.004 118.203C281.004 119.083 280.97 119.997 280.902 120.945C280.902 121.826 280.835 122.672 280.699 123.484C280.564 124.297 280.293 124.94 279.887 125.414C279.954 125.753 280.225 125.888 280.699 125.82C281.173 125.685 281.41 125.888 281.41 126.43C281.41 127.039 281.342 127.682 281.207 128.359C281.072 129.036 281.004 129.714 281.004 130.391C281.004 131.677 281.139 133.099 281.41 134.656C281.749 136.146 282.223 137.534 282.832 138.82C283.509 140.107 284.389 141.19 285.473 142.07C286.556 142.883 287.91 143.289 289.535 143.289C290.618 143.289 291.634 143.086 292.582 142.68C293.53 142.273 294.309 141.596 294.918 140.648L295.426 140.547C295.697 140.547 295.934 140.581 296.137 140.648C296.408 140.716 296.678 140.75 296.949 140.75C297.355 140.75 297.863 140.513 298.473 140.039C299.15 139.497 299.861 138.888 300.605 138.211C301.418 137.534 302.23 136.891 303.043 136.281C303.855 135.604 304.634 135.13 305.379 134.859C305.853 133.911 306.293 132.964 306.699 132.016C307.173 131.068 307.85 130.323 308.73 129.781V126.836C309.408 126.091 310.118 125.414 310.863 124.805C311.676 124.195 312.285 123.417 312.691 122.469C313.03 122.604 313.335 122.706 313.605 122.773C313.944 122.841 314.283 122.875 314.621 122.875C314.96 122.875 315.298 122.841 315.637 122.773C316.043 122.706 316.415 122.604 316.754 122.469C317.296 123.214 317.702 124.06 317.973 125.008C318.311 125.888 318.717 126.734 319.191 127.547C318.582 128.766 317.871 130.221 317.059 131.914C316.246 133.607 315.366 135.299 314.418 136.992C313.47 138.685 312.454 140.31 311.371 141.867C310.355 143.357 309.34 144.508 308.324 145.32C308.121 145.523 307.681 145.76 307.004 146.031C306.259 146.573 305.582 147.081 304.973 147.555C304.363 148.096 303.788 148.706 303.246 149.383C301.283 149.992 299.387 150.805 297.559 151.82C295.798 152.836 294.038 153.818 292.277 154.766C291.465 154.562 290.585 154.461 289.637 154.461C288.824 154.461 288.012 154.495 287.199 154.562C286.387 154.698 285.507 154.766 284.559 154.766C284.288 154.427 283.882 154.19 283.34 154.055C282.866 153.987 282.697 153.648 282.832 153.039C280.53 152.904 278.668 152.26 277.246 151.109C275.824 150.026 274.605 148.672 273.59 147.047C272.642 145.422 271.863 143.661 271.254 141.766C270.645 139.87 270.001 138.042 269.324 136.281V135.977C269.324 135.638 269.46 135.435 269.73 135.367C270.001 135.299 270.137 135.096 270.137 134.758C270.137 134.622 270.103 134.521 270.035 134.453C269.832 133.708 269.663 133.065 269.527 132.523C269.392 131.982 269.324 131.339 269.324 130.594C269.324 129.51 269.392 128.461 269.527 127.445C269.663 126.362 269.73 125.279 269.73 124.195C269.73 123.112 269.595 122.164 269.324 121.352C269.595 121.013 269.832 120.573 270.035 120.031C270.171 119.422 270.272 118.812 270.34 118.203C270.408 117.594 270.441 116.984 270.441 116.375C270.509 115.766 270.611 115.224 270.746 114.75C270.475 114.005 270.238 113.362 270.035 112.82C269.832 112.211 269.73 111.5 269.73 110.688V109.977C270.408 108.826 270.983 107.641 271.457 106.422C271.931 105.203 272.439 103.951 272.98 102.664V102.359C272.98 100.396 272.913 98.4323 272.777 96.4688C272.642 94.5052 272.574 92.5417 272.574 90.5781V88.6484C272.574 87.9714 272.608 87.3281 272.676 86.7188C273.217 86.4479 273.624 86.0755 273.895 85.6016C274.165 85.1276 274.572 84.7552 275.113 84.4844H278.465L279.074 83.4688C279.277 83.1302 279.413 82.7578 279.48 82.3516C280.225 82.1484 280.936 81.8776 281.613 81.5391C282.358 81.1328 283.035 80.7266 283.645 80.3203C284.592 79.7786 285.439 79.3047 286.184 78.8984C286.996 78.4245 287.775 78.0521 288.52 77.7812C289.332 77.4427 290.178 77.1719 291.059 76.9688C291.939 76.7656 292.954 76.5964 294.105 76.4609C294.647 76.4609 294.986 76.3594 295.121 76.1562C295.324 75.9531 295.595 75.7161 295.934 75.4453C296.746 75.5807 297.559 75.7161 298.371 75.8516C299.184 75.9193 299.996 75.9531 300.809 75.9531C302.434 75.9531 303.957 75.6484 305.379 75.0391C307.41 75.0391 309.408 75.0052 311.371 74.9375C313.402 74.8698 315.434 74.8359 317.465 74.8359C319.225 74.8359 320.986 74.9036 322.746 75.0391C324.507 75.1745 326.233 75.4115 327.926 75.75C328.535 75.5469 329.212 75.4453 329.957 75.4453C330.77 75.4453 331.582 75.5469 332.395 75.75C333.275 75.8854 334.121 75.8854 334.934 75.75C335.001 76.4948 335.171 77.138 335.441 77.6797C335.78 78.1536 335.949 78.7292 335.949 79.4062ZM460.973 126.328C460.837 127.344 460.465 128.122 459.855 128.664C459.314 129.206 458.671 129.714 457.926 130.188C457.587 130.12 457.249 130.086 456.91 130.086C456.639 130.018 456.335 129.984 455.996 129.984C453.897 129.917 451.9 130.188 450.004 130.797C448.176 131.406 446.28 131.846 444.316 132.117C443.639 132.253 442.996 132.32 442.387 132.32C441.845 132.253 441.27 132.286 440.66 132.422C438.493 132.76 436.191 133.031 433.754 133.234C431.316 133.438 428.879 133.708 426.441 134.047C424.004 134.318 421.6 134.69 419.23 135.164C416.928 135.57 414.762 136.18 412.73 136.992C412.527 136.857 412.324 136.721 412.121 136.586C411.918 136.383 411.681 136.281 411.41 136.281C410.733 136.281 410.09 136.383 409.48 136.586C408.871 136.789 408.262 136.857 407.652 136.789C406.975 137.195 406.23 137.5 405.418 137.703C404.673 137.839 403.895 137.974 403.082 138.109C402.337 138.177 401.592 138.312 400.848 138.516C400.103 138.719 399.392 139.091 398.715 139.633C398.173 139.362 397.496 139.227 396.684 139.227C395.939 139.159 395.431 138.888 395.16 138.414C393.603 139.159 391.944 139.633 390.184 139.836C388.491 140.039 386.764 140.107 385.004 140.039C383.853 139.971 382.533 139.802 381.043 139.531C379.553 139.26 378.064 138.888 376.574 138.414C375.085 137.872 373.697 137.263 372.41 136.586C371.124 135.841 370.142 134.961 369.465 133.945C368.991 133.268 368.652 132.523 368.449 131.711C368.246 130.898 367.772 130.289 367.027 129.883C367.23 128.326 367.467 126.802 367.738 125.312C368.009 123.823 368.28 122.299 368.551 120.742C369.905 119.591 371.191 118.372 372.41 117.086C373.629 115.799 374.78 114.445 375.863 113.023C377.15 112.414 378.335 111.669 379.418 110.789C380.569 109.909 381.686 109.029 382.77 108.148C383.921 107.201 385.038 106.286 386.121 105.406C387.272 104.526 388.491 103.747 389.777 103.07C389.98 102.596 390.251 102.224 390.59 101.953C390.996 101.615 391.402 101.31 391.809 101.039C392.215 100.701 392.587 100.362 392.926 100.023C393.264 99.6172 393.501 99.1432 393.637 98.6016C396.007 97.1797 398.072 95.3854 399.832 93.2188C401.592 91.0521 402.743 88.6146 403.285 85.9062C402.134 84.9583 400.814 84.349 399.324 84.0781C397.902 83.7396 396.413 83.5026 394.855 83.3672C393.501 83.2995 392.079 83.2995 390.59 83.3672C389.168 83.4349 387.712 83.401 386.223 83.2656C384.733 83.7396 383.176 84.0443 381.551 84.1797C379.993 84.3151 378.436 84.4505 376.879 84.5859C375.322 84.6536 373.764 84.8568 372.207 85.1953C370.717 85.4661 369.262 86.0078 367.84 86.8203C367.569 86.8203 367.298 86.7865 367.027 86.7188C366.824 86.651 366.587 86.6172 366.316 86.6172C364.15 86.5495 362.118 86.9896 360.223 87.9375C358.327 88.8177 356.465 89.6979 354.637 90.5781C354.501 90.849 354.434 91.0521 354.434 91.1875C354.434 91.5938 354.501 92 354.637 92.4062C354.84 92.7448 354.941 93.1172 354.941 93.5234C354.874 93.5911 354.84 93.6589 354.84 93.7266C354.84 93.7943 354.806 93.862 354.738 93.9297C354.671 94.2682 354.569 94.5729 354.434 94.8438C354.366 95.1146 354.264 95.4193 354.129 95.7578C353.384 97.9245 352.978 100.057 352.91 102.156C352.842 103.917 352.842 105.643 352.91 107.336C352.978 109.029 352.978 110.755 352.91 112.516C352.775 114.682 352.436 116.714 351.895 118.609C352.233 120.234 352.538 121.961 352.809 123.789C353.079 125.549 353.418 127.31 353.824 129.07C354.23 130.831 354.704 132.557 355.246 134.25C355.855 135.875 356.634 137.432 357.582 138.922C357.514 139.057 357.548 139.159 357.684 139.227C357.819 139.294 357.954 139.328 358.09 139.328H358.902C359.241 139.328 359.376 139.464 359.309 139.734C359.444 139.938 359.546 140.141 359.613 140.344C359.681 140.479 359.816 140.615 360.02 140.75C360.155 140.953 360.155 141.224 360.02 141.562C359.952 142.917 359.613 144.169 359.004 145.32C358.395 146.471 358.022 147.724 357.887 149.078C357.074 149.281 356.329 149.383 355.652 149.383C354.501 149.315 353.486 148.977 352.605 148.367C351.725 147.826 350.913 147.148 350.168 146.336C349.423 145.523 348.712 144.711 348.035 143.898C347.358 143.018 346.613 142.273 345.801 141.664C345.327 139.768 344.853 137.669 344.379 135.367C343.973 133.065 343.262 131.102 342.246 129.477C342.517 128.867 342.652 128.122 342.652 127.242C342.72 125.888 342.585 124.568 342.246 123.281C341.975 121.927 341.908 120.573 342.043 119.219C342.043 118.474 342.111 117.729 342.246 116.984C342.449 116.24 342.585 115.495 342.652 114.75C342.72 113.599 342.585 112.482 342.246 111.398C341.975 110.315 341.874 109.198 341.941 108.047C342.009 107.505 342.111 106.997 342.246 106.523C342.449 105.982 342.72 105.508 343.059 105.102C342.72 104.289 342.618 103.51 342.754 102.766C342.822 101.615 342.957 100.531 343.16 99.5156C343.363 98.5 343.499 97.4844 343.566 96.4688C343.566 95.9271 343.533 95.4193 343.465 94.9453C343.397 94.4036 343.296 93.8958 343.16 93.4219L342.246 93.1172C341.84 93.1172 341.434 93.2188 341.027 93.4219C340.689 93.625 340.384 93.862 340.113 94.1328C339.842 94.4036 339.605 94.6406 339.402 94.8438C339.199 94.9792 338.996 95.0469 338.793 95.0469C338.658 95.0469 338.488 95.0469 338.285 95.0469C338.15 94.9792 338.014 94.9453 337.879 94.9453C337.743 94.9453 337.473 95.0807 337.066 95.3516C336.728 95.6224 336.288 95.9271 335.746 96.2656C335.272 96.5365 334.798 96.8411 334.324 97.1797C333.85 97.4505 333.478 97.6198 333.207 97.6875C332.462 97.5521 331.853 97.3151 331.379 96.9766C330.973 96.5703 330.566 96.1979 330.16 95.8594C329.822 95.4531 329.449 95.1146 329.043 94.8438C328.637 94.5052 328.129 94.3698 327.52 94.4375C327.316 94.0312 327.215 93.5911 327.215 93.1172C327.147 92.6432 327.147 92.1693 327.215 91.6953V90.0703C327.689 89.1901 328.332 88.4792 329.145 87.9375C329.889 87.3281 330.702 86.8203 331.582 86.4141L334.223 85.1953C335.103 84.7891 335.915 84.2812 336.66 83.6719H337.574C338.793 83.7396 339.842 83.5026 340.723 82.9609C341.671 82.4193 342.551 81.8099 343.363 81.1328C344.176 80.388 344.988 79.6432 345.801 78.8984C346.681 78.1536 347.629 77.5781 348.645 77.1719C349.389 77.5104 350.168 77.8151 350.98 78.0859C351.793 78.2891 352.639 78.4245 353.52 78.4922C354.4 78.4922 355.314 78.3568 356.262 78.0859C357.21 77.8151 357.954 77.3073 358.496 76.5625C358.835 76.6979 359.105 76.7995 359.309 76.8672C359.579 76.8672 359.884 76.8672 360.223 76.8672C361.238 76.9349 362.254 76.7995 363.27 76.4609C364.285 76.0547 365.267 75.5807 366.215 75.0391C367.569 75.1068 368.889 75.0391 370.176 74.8359C371.53 74.5651 372.85 74.2943 374.137 74.0234C375.491 73.7526 376.811 73.5156 378.098 73.3125C379.452 73.0417 380.806 72.9401 382.16 73.0078C384.395 73.0755 386.595 72.8724 388.762 72.3984C390.928 71.9245 393.129 71.7552 395.363 71.8906C396.921 71.9583 398.444 72.0938 399.934 72.2969C401.491 72.4323 403.048 72.4661 404.605 72.3984C405.486 72.8047 406.264 73.1771 406.941 73.5156C407.686 73.7865 408.6 73.8542 409.684 73.7188C411.85 75.5469 413.814 77.6797 415.574 80.1172V81.8438C415.507 83.401 415.236 84.9245 414.762 86.4141C414.288 87.9036 413.712 89.3932 413.035 90.8828C412.426 92.3047 411.749 93.7266 411.004 95.1484C410.259 96.5026 409.548 97.8568 408.871 99.2109C404.47 103.206 400.069 107.167 395.668 111.094C391.267 115.021 386.73 118.812 382.059 122.469C381.923 123.146 381.72 123.755 381.449 124.297C381.246 124.839 381.111 125.414 381.043 126.023C381.043 126.362 381.077 126.633 381.145 126.836C381.618 126.971 382.025 127.242 382.363 127.648C382.77 127.987 382.905 128.461 382.77 129.07H383.684C384.022 129.07 384.191 129.206 384.191 129.477L385.816 129.578C388.389 129.714 390.962 129.646 393.535 129.375C396.108 129.104 398.681 128.799 401.254 128.461C403.895 128.122 406.501 127.818 409.074 127.547C411.647 127.208 414.22 127.005 416.793 126.938C417.402 126.734 418.046 126.565 418.723 126.43C419.4 126.294 420.009 126.023 420.551 125.617H420.855C421.329 125.617 421.668 125.753 421.871 126.023C422.142 126.294 422.514 126.464 422.988 126.531C423.327 126.531 423.665 126.464 424.004 126.328C424.41 126.193 424.816 126.091 425.223 126.023C426.171 125.753 427.152 125.583 428.168 125.516C429.251 125.448 430.301 125.346 431.316 125.211C435.243 124.872 439.137 124.669 442.996 124.602C446.855 124.466 450.715 123.958 454.574 123.078C454.913 123.552 455.387 123.891 455.996 124.094C456.605 124.229 457.249 124.398 457.926 124.602C458.603 124.737 459.212 124.906 459.754 125.109C460.363 125.312 460.77 125.719 460.973 126.328Z" fill="#181E58"/>
<path d="M323.209 191.375C323.076 192.134 322.795 192.854 322.367 193.536L321.156 195.486C320.778 196.105 320.462 196.772 320.209 197.489C320.006 198.143 320.014 198.884 320.232 199.713C320.12 199.727 319.979 199.744 319.81 199.766C319.635 199.731 319.491 199.72 319.378 199.734C318.479 199.847 317.805 200.16 317.356 200.674C316.955 201.123 316.38 201.538 315.628 201.918C315.473 201.595 315.294 201.304 315.09 201.044C314.879 200.728 314.598 200.535 314.247 200.465C312.933 200.915 311.613 201.31 310.285 201.648C308.951 201.93 307.623 202.268 306.302 202.662C305.698 202.852 305.101 203.098 304.511 203.401C303.914 203.647 303.289 203.897 302.636 204.15C302.313 204.305 301.955 204.407 301.561 204.457C301.161 204.45 300.768 204.499 300.381 204.605C299.04 204.831 297.593 205.127 296.04 205.493C294.481 205.803 293.129 206.401 291.984 207.287C291.408 207.245 290.807 207.235 290.182 207.257C289.557 207.278 288.935 207.328 288.317 207.405C286.968 207.575 285.497 207.903 283.902 208.388C282.357 208.811 281.012 209.465 279.867 210.351C279.572 210.274 279.253 210.229 278.908 210.215C278.62 210.194 278.28 210.208 277.886 210.258C277.774 210.272 277.693 210.31 277.644 210.374C277.588 210.381 277.503 210.391 277.391 210.405C277.398 210.918 277.518 211.417 277.75 211.902C278.032 212.323 278.443 212.642 278.984 212.86C278.837 213.506 278.809 214.195 278.901 214.925C279.021 215.881 279.197 216.829 279.43 217.77C279.718 218.704 279.923 219.649 280.043 220.605C280.177 221.672 280.142 222.533 279.939 223.186C280.713 224.802 281.22 226.565 281.46 228.476C281.545 229.15 281.573 229.831 281.546 230.52C281.567 231.145 281.624 231.823 281.716 232.554C281.793 233.172 282.082 233.649 282.581 233.986C283.073 234.267 283.357 234.716 283.435 235.335C283.463 235.559 283.435 235.791 283.351 236.03C284.117 235.763 284.847 235.443 285.543 235.07C286.231 234.641 286.968 234.377 287.755 234.278C288.205 234.221 288.637 234.253 289.051 234.372C289.522 234.484 289.944 234.659 290.316 234.898C290.295 235.186 290.278 235.502 290.264 235.846C290.307 236.184 290.349 236.521 290.391 236.858C290.469 237.476 290.543 238.066 290.614 238.628C290.734 239.127 290.86 239.682 290.994 240.293C290.644 241.136 290.198 241.906 289.657 242.602C289.173 243.291 288.879 244.127 288.774 245.11C287.931 245.216 287.197 245.508 286.572 245.987C285.996 246.401 285.455 246.869 284.95 247.389C284.437 247.853 283.925 248.317 283.412 248.781C282.893 249.189 282.296 249.435 281.621 249.52C280.778 249.626 280.174 249.588 279.809 249.405C279.436 249.167 279.148 248.918 278.944 248.658C278.74 248.398 278.54 248.166 278.343 247.963C278.202 247.752 277.911 247.703 277.468 247.816C277.264 247.099 276.954 246.453 276.54 245.877C276.118 245.245 275.671 244.645 275.2 244.076C274.785 243.5 274.342 242.928 273.871 242.359C273.449 241.727 273.112 241.085 272.858 240.431C272.337 239.013 272.006 237.513 271.865 235.932C271.723 234.352 271.28 232.866 270.534 231.476C270.547 230.675 270.533 229.877 270.49 229.083C270.441 228.233 270.366 227.415 270.267 226.628C270.07 225.055 269.819 223.516 269.516 222.013C269.262 220.447 269.005 218.852 268.744 217.229C268.287 216.773 267.963 216.243 267.773 215.639C267.632 214.971 267.495 214.332 267.361 213.721C267.171 213.574 266.953 213.43 266.707 213.289C266.517 213.142 266.377 212.931 266.285 212.657C265.822 212.601 265.477 212.588 265.253 212.616C264.466 212.715 263.816 212.996 263.304 213.46C262.84 213.861 262.384 214.09 261.934 214.146C261.484 214.203 261.056 214.199 260.648 214.136C260.241 214.073 259.84 214.067 259.447 214.116C259.11 214.158 258.924 214.267 258.889 214.443C258.903 214.556 258.805 214.682 258.594 214.823C258.439 214.956 258.06 215.118 257.456 215.308C256.852 215.498 256.164 215.699 255.391 215.91C254.668 216.058 253.944 216.206 253.22 216.354C252.553 216.495 252.107 216.58 251.882 216.608C250.983 216.721 250.288 216.637 249.796 216.356C249.24 216.027 248.597 215.679 247.866 215.314C247.936 214.963 247.964 214.731 247.95 214.619C247.88 214.057 247.655 213.629 247.275 213.334C246.888 212.983 246.677 212.667 246.642 212.386C246.564 211.767 246.757 211.258 247.221 210.857C247.628 210.464 247.814 209.898 247.778 209.16C249 208.436 250.268 207.848 251.581 207.398C252.895 206.947 254.243 206.55 255.627 206.204C257.011 205.859 258.363 205.49 259.683 205.095C261.06 204.694 262.391 204.156 263.676 203.48C264.077 203.487 264.449 203.497 264.793 203.511C265.187 203.462 265.58 203.412 265.974 203.363C267.66 203.151 269.296 202.774 270.884 202.232C272.52 201.627 274.209 201.215 275.952 200.996C276.401 200.939 276.854 200.911 277.311 200.911C277.768 200.91 278.228 200.938 278.692 200.994C280.897 200.374 283.071 199.73 285.213 199.061C287.412 198.385 289.674 197.759 291.999 197.181C293.109 196.927 294.194 196.705 295.254 196.515C296.364 196.261 297.471 195.98 298.573 195.67C298.96 195.564 299.23 195.445 299.385 195.311C299.588 195.114 299.662 194.791 299.605 194.341C300.139 194.503 300.715 194.544 301.334 194.467C302.289 194.347 303.195 194.061 304.052 193.611C304.909 193.161 305.815 192.876 306.77 192.756C306.995 192.728 307.195 192.731 307.371 192.766C307.539 192.745 307.708 192.724 307.877 192.702C308.27 192.653 308.446 192.46 308.403 192.122C308.41 191.722 308.659 191.434 309.151 191.258C309.53 191.096 310.081 190.941 310.805 190.793C311.529 190.645 312.28 190.494 313.06 190.338C313.889 190.12 314.633 189.912 315.294 189.715C316.003 189.455 316.509 189.163 316.81 188.84L317.284 187.838C318.303 187.767 319.09 188.125 319.645 188.912C320.25 189.635 320.64 190.471 320.817 191.419C321.07 191.615 321.393 191.689 321.786 191.639C322.229 191.527 322.619 191.449 322.956 191.407L323.209 191.375ZM365.873 201.084C365.719 201.675 365.561 202.237 365.4 202.771C365.239 203.305 365.141 203.888 365.106 204.52C364.748 204.851 364.327 205.132 363.842 205.364C363.407 205.533 362.947 205.734 362.462 205.966C361.971 206.142 361.514 206.37 361.093 206.652C360.721 206.87 360.447 207.189 360.271 207.611C360.209 208.475 360.223 209.273 360.315 210.003C360.435 210.959 360.706 211.752 361.128 212.384C361.023 212.911 360.978 213.459 360.992 214.028C361.007 214.597 361.046 215.135 361.109 215.641C361.342 217.495 361.8 219.321 362.483 221.119C363.158 222.861 363.641 224.656 363.93 226.504C363.965 226.784 363.976 227.097 363.962 227.441C363.948 227.786 363.959 228.098 363.994 228.379C364.143 229.559 364.691 230.29 365.64 230.57C365.507 230.872 365.454 231.136 365.482 231.361C365.539 231.81 365.644 232.196 365.799 232.52C365.954 232.843 366.028 233.204 366.021 233.605C366.373 234.131 366.717 234.602 367.055 235.016C367.385 235.374 367.646 235.855 367.836 236.459C367.541 237.296 367.155 238.086 366.678 238.831C366.194 239.52 365.899 240.356 365.794 241.34C365.563 241.312 365.306 241.316 365.025 241.351C364.632 241.4 364.333 241.524 364.13 241.72C363.926 241.917 363.754 242.139 363.614 242.385C363.537 242.68 363.428 242.95 363.288 243.196C363.154 243.498 362.954 243.723 362.687 243.871L362.434 243.903C362.161 243.994 361.904 243.998 361.665 243.914C361.49 243.879 361.317 243.872 361.149 243.893C361.036 243.907 360.819 243.992 360.496 244.147C359.975 243.641 359.582 243.006 359.314 242.24C359.054 241.531 358.878 240.811 358.786 240.08C358.687 239.293 358.711 238.577 358.858 237.93C358.176 237.502 357.688 236.793 357.392 235.802C357.152 234.805 356.906 233.98 356.653 233.326C355.942 231.304 355.154 229.348 354.288 227.458C353.479 225.562 352.888 223.581 352.514 221.516C352.359 220.736 352.235 219.981 352.144 219.25L351.593 214.867C351.501 214.136 351.441 213.43 351.412 212.749C351.349 212.243 351.317 211.762 351.316 211.305C351.365 210.785 351.358 210.273 351.294 209.767C351.21 209.092 350.904 208.474 350.376 207.913C346.407 208.583 342.706 209.79 339.271 211.535C335.886 213.216 332.533 215.15 329.211 217.337C329.149 218.658 329.167 219.94 329.267 221.183C329.366 222.427 329.497 223.695 329.659 224.987L330.125 228.697C330.302 230.102 330.506 231.275 330.739 232.216C331.224 233.81 332.198 234.972 333.66 235.702C335.171 236.368 336.657 236.838 338.119 237.111C338.168 237.961 338.092 238.713 337.888 239.367C337.678 239.964 337.38 240.544 336.994 241.106C336.657 241.605 336.264 242.111 335.814 242.624C335.365 243.137 334.923 243.707 334.488 244.332C334.003 244.108 333.528 243.968 333.065 243.912C332.601 243.856 332.116 243.86 331.61 243.923C331.098 243.931 330.585 243.938 330.072 243.945C329.559 243.953 329.039 243.904 328.512 243.799L326.34 241.503C325.616 240.738 324.835 239.979 323.999 239.228L323.904 238.469C323.713 236.952 323.248 235.526 322.51 234.192C321.771 232.858 321.17 231.477 320.705 230.052C320.81 229.525 320.859 229.005 320.851 228.492C320.844 227.979 320.805 227.442 320.735 226.88C320.593 225.756 320.399 224.667 320.153 223.613C319.962 222.552 319.856 221.481 319.835 220.399L319.413 220.452C318.907 220.516 318.391 220.723 317.864 221.075C317.331 221.37 316.804 221.722 316.284 222.13C315.814 222.474 315.343 222.819 314.873 223.164C314.452 223.445 314.072 223.607 313.735 223.649C313.566 223.67 313.394 223.663 313.219 223.628C313.043 223.593 312.843 223.59 312.618 223.618C312.337 223.653 312.014 223.808 311.649 224.082C311.284 224.357 310.894 224.663 310.48 225C310.002 225.288 309.525 225.577 309.047 225.865C308.57 226.153 308.078 226.329 307.572 226.393C306.785 226.492 305.956 226.254 305.085 225.678C304.916 225.243 304.835 224.825 304.841 224.424C304.792 224.031 304.739 223.609 304.683 223.16C304.626 222.71 304.482 222.243 304.25 221.758C304.551 220.978 305.014 220.349 305.639 219.871C306.201 219.344 306.826 218.866 307.514 218.437C308.139 217.959 308.796 217.505 309.484 217.076C310.165 216.591 310.72 216.007 311.148 215.326L311.654 215.262C312.44 215.163 313.122 214.906 313.697 214.491C314.329 214.069 315.07 213.834 315.921 213.784C316.187 213.636 316.331 213.19 316.352 212.445L316.699 212.487C317.936 212.332 318.979 211.773 319.828 210.81C320.009 207.248 320.073 203.672 320.021 200.082C319.97 196.492 319.722 192.926 319.277 189.386C319.234 189.049 319.08 188.726 318.812 188.417C318.643 187.981 318.534 187.567 318.485 187.174L318.326 185.909C318.248 185.291 318.195 184.641 318.167 183.96C318.138 183.278 318.194 182.586 318.334 181.883C318.853 181.476 319.422 181.233 320.041 181.155C320.771 181.063 321.488 181.088 322.19 181.228C322.942 181.304 323.662 181.357 324.351 181.384C324.92 181.826 325.356 182.343 325.659 182.932C326.017 183.515 326.267 184.14 326.408 184.808C326.542 185.419 326.623 186.065 326.652 186.747C326.729 187.365 326.807 187.983 326.885 188.601C327.04 189.838 327.332 191.028 327.762 192.173C328.191 193.318 328.476 194.452 328.618 195.576C328.653 195.857 328.569 196.096 328.365 196.293C328.211 196.427 328.172 196.802 328.25 197.421C328.328 198.039 328.465 198.678 328.662 199.338C328.859 199.999 329 200.666 329.085 201.34C329.184 202.127 329.174 202.956 329.055 203.827C328.936 204.699 328.842 205.538 328.772 206.346C332.109 205.641 335.512 204.786 338.982 203.779C342.452 202.772 345.711 201.449 348.759 199.81C348.801 199.69 348.808 199.518 348.779 199.294C348.737 198.956 348.667 198.623 348.568 198.293C348.469 197.962 348.395 197.601 348.346 197.207C348.261 196.533 348.419 195.971 348.819 195.521C348.34 193.983 347.946 192.434 347.636 190.874C347.326 189.315 347.072 187.748 346.874 186.175L346.27 181.37C346.072 179.796 345.846 178.226 345.593 176.66C346.007 176.322 346.467 176.122 346.973 176.058C347.591 175.98 348.174 176.078 348.722 176.352C349.319 176.562 349.983 176.622 350.714 176.53C351.22 176.466 351.631 176.329 351.947 176.118C352.635 176.602 353.149 177.28 353.487 178.151C353.824 179.022 354.138 179.924 354.426 180.859C354.715 181.793 355.004 182.727 355.292 183.661C355.63 184.532 356.143 185.21 356.832 185.694L356.948 185.936C356.976 186.161 356.885 186.344 356.675 186.485C356.464 186.625 356.38 186.864 356.422 187.201L356.464 187.538C356.802 188.409 357.087 189.315 357.32 190.257C357.552 191.198 357.76 192.171 357.944 193.175C358.176 194.117 358.437 195.054 358.725 195.989C359.007 196.867 359.422 197.671 359.97 198.401C360.244 198.309 360.606 198.235 361.056 198.179C362.18 198.038 363.1 198.322 363.817 199.031C364.583 199.677 365.269 200.361 365.873 201.084ZM438.16 225.738C438.09 226.546 437.806 227.238 437.308 227.815C436.858 228.328 436.286 228.771 435.591 229.144C434.896 229.516 434.162 229.809 433.389 230.02C432.665 230.168 431.995 230.281 431.376 230.358C431.095 230.394 430.814 230.429 430.533 230.464C430.302 230.436 430.045 230.44 429.764 230.475C429.483 230.511 429.36 230.669 429.396 230.95C429.431 231.231 429.315 231.445 429.048 231.593C428.753 231.516 428.462 231.467 428.174 231.446C427.885 231.425 427.601 231.432 427.32 231.467C426.927 231.517 426.537 231.594 426.15 231.7C425.82 231.799 425.487 231.869 425.149 231.912C424.7 231.968 424.356 231.954 424.117 231.87C423.934 231.779 423.751 231.688 423.568 231.596C423.435 231.442 423.273 231.291 423.083 231.144C422.95 230.989 422.735 230.873 422.44 230.796C422.026 230.677 421.685 230.691 421.418 230.839C421.208 230.98 420.821 230.857 420.259 230.471C419.514 229.994 418.839 229.394 418.234 228.67C417.679 227.884 417.12 227.069 416.557 226.227C415.995 225.384 415.404 224.545 414.785 223.709C414.166 222.874 413.477 222.161 412.718 221.571L412.044 221.656C411.032 221.783 410.383 222.293 410.095 223.185C409.793 223.052 409.487 222.891 409.178 222.701C408.862 222.455 408.524 222.27 408.166 222.143C406.923 222.699 405.617 223.206 404.247 223.663C402.877 224.121 401.49 224.438 400.085 224.615L398.905 224.763C398.568 224.805 398.195 224.795 397.788 224.732C397.254 225.027 396.784 225.372 396.376 225.766C395.962 226.103 395.474 226.307 394.912 226.378C394.575 226.42 394.167 226.357 393.689 226.189C393.352 226.231 393.201 226.393 393.237 226.674C393.328 226.948 393.177 227.11 392.784 227.159L392.025 227.254C391.238 227.353 390.455 227.48 389.675 227.635C388.952 227.783 388.197 227.907 387.41 228.006C386.342 228.14 385.229 228.137 384.069 227.997C383.809 228.201 383.511 228.324 383.174 228.367C382.963 228.507 382.819 228.725 382.742 229.02C382.658 229.259 382.574 229.498 382.49 229.737C382.398 229.92 382.251 230.11 382.047 230.306C381.893 230.44 381.644 230.5 381.299 230.486C381.272 231.175 381.058 231.744 380.658 232.194C380.258 232.644 380.107 233.262 380.206 234.049C379.63 234.464 379.177 234.949 378.847 235.504C378.517 236.059 378.191 236.642 377.868 237.254C377.546 237.865 377.191 238.452 376.805 239.014C376.475 239.57 376.019 240.027 375.436 240.385C375.198 240.758 375.18 241.302 375.385 242.019C374.83 242.602 374.128 243.147 373.278 243.653C372.428 244.16 371.61 244.462 370.823 244.561C369.193 244.766 367.96 244.036 367.123 242.372C367.052 241.81 367.034 241.213 367.069 240.58C367.04 239.899 367.075 239.267 367.173 238.683C367.264 238.044 367.45 237.478 367.731 236.986C368.004 236.438 368.436 236.013 369.026 235.71C368.962 235.205 368.751 234.889 368.393 234.762C368.028 234.58 367.841 234.232 367.834 233.72C369.259 232.798 370.46 231.677 371.436 230.356C372.411 229.034 373.267 227.671 374.004 226.265C374.79 224.796 375.576 223.327 376.362 221.859C377.148 220.39 378.064 219.047 379.11 217.831L378.887 216.061C380.347 214.051 381.189 211.89 381.412 209.578C382.016 209.388 382.374 209.058 382.486 208.587C382.655 208.109 382.7 207.561 382.622 206.943C382.903 206.908 383.058 206.774 383.086 206.542C383.163 206.247 383.405 206.131 383.813 206.194C384.149 204.782 384.555 203.475 385.032 202.273C385.509 201.071 385.986 199.87 386.463 198.668C386.933 197.41 387.315 196.135 387.609 194.842C387.96 193.542 388.152 192.119 388.186 190.574C388.966 190.419 389.341 190 389.313 189.319C389.334 188.574 389.365 187.914 389.406 187.338C390.151 186.445 390.652 185.44 390.911 184.323C391.227 183.199 391.483 182.053 391.678 180.887C391.867 179.664 392.088 178.466 392.34 177.293C392.641 176.056 393.129 174.939 393.803 173.941L393.771 173.688C393.736 173.407 393.602 173.253 393.37 173.225C393.131 173.14 392.994 172.958 392.959 172.677C393.008 172.614 393.029 172.554 393.022 172.498C393.661 172.132 394.11 171.619 394.37 170.958C394.622 170.241 395.068 169.7 395.707 169.334C397.007 170.142 398.121 170.601 399.048 170.713C399.969 170.768 401.167 170.761 402.642 170.689C403.471 171.384 403.985 172.29 404.182 173.407C404.429 174.461 404.76 175.504 405.175 176.536C405.851 178.278 406.551 179.988 407.275 181.667C408.049 183.282 408.69 184.972 409.197 186.735C409.499 187.781 409.936 188.754 410.505 189.653C411.075 190.552 411.508 191.496 411.803 192.487C412.015 193.259 412.128 194.159 412.142 195.184C412.15 196.154 412.368 196.983 412.797 197.671L413.557 198.945C413.916 199.528 414.222 200.146 414.475 200.799C414.784 201.446 415.066 202.095 415.319 202.748C415.981 204.378 416.604 206.155 417.188 208.08C417.822 209.941 418.631 211.609 419.615 213.084C419.967 213.61 420.438 213.951 421.028 214.105C421.674 214.252 422.37 214.336 423.115 214.356C423.852 214.321 424.558 214.261 425.233 214.176C425.956 214.028 426.571 213.922 427.077 213.858L427.92 213.753C428.257 213.71 428.601 213.724 428.952 213.794C429.234 214.215 429.395 214.595 429.438 214.932C429.523 215.606 429.365 216.168 428.965 216.618C428.565 217.068 428.396 217.546 428.46 218.052C428.495 218.333 428.646 218.628 428.914 218.937C428.682 218.909 428.341 218.923 427.891 218.979C426.599 219.142 425.363 219.526 424.183 220.131C424.752 221.029 425.445 221.77 426.26 222.353C427.125 222.872 428.014 223.36 428.927 223.816C429.433 223.296 429.995 222.997 430.613 222.919C431.287 222.834 431.927 222.925 432.531 223.192C433.184 223.395 433.848 223.454 434.523 223.369C435.028 223.306 435.383 223.176 435.587 222.979C436.1 223.428 436.532 223.916 436.884 224.443C437.228 224.913 437.654 225.345 438.16 225.738ZM410.08 215.566C409.847 214.625 409.566 213.975 409.235 213.617C408.954 213.196 408.69 212.687 408.444 212.09C408.12 211.331 407.846 210.509 407.62 209.624C407.451 208.732 407.229 207.875 406.955 207.054C406.321 205.192 405.632 203.338 404.886 201.491C404.196 199.637 403.373 197.856 402.416 196.15C402.599 195.784 402.672 195.461 402.637 195.18L402.605 194.927C402.029 194.429 401.579 193.8 401.255 193.042C400.924 192.227 400.597 191.44 400.273 190.682C399.999 189.86 399.651 189.133 399.229 188.501C398.856 187.806 398.304 187.276 397.573 186.911C397.447 187.269 397.412 187.673 397.469 188.123C397.518 188.516 397.592 188.878 397.691 189.208C397.845 189.531 397.948 189.889 397.997 190.283C397.47 190.634 397.105 191.137 396.902 191.79C396.748 192.381 396.411 192.88 395.891 193.287C395.668 195.142 395.237 196.938 394.599 198.673C393.953 200.353 393.252 202.039 392.494 203.733C391.793 205.42 391.123 207.131 390.485 208.866C389.84 210.546 389.374 212.288 389.087 214.094C388.42 214.692 387.995 215.402 387.813 216.224C387.687 217.039 387.674 217.84 387.773 218.626C388.314 218.844 388.897 218.942 389.522 218.92C390.196 218.836 390.843 218.754 391.461 218.677C392.079 218.599 392.676 218.581 393.252 218.623C393.828 218.665 394.37 218.882 394.876 219.275C395.578 218.959 396.347 218.719 397.183 218.557C398.068 218.332 398.767 217.987 399.279 217.523C400.453 217.775 401.686 217.82 402.978 217.657C403.653 217.573 404.292 217.435 404.896 217.245C405.556 217.048 406.185 216.826 406.782 216.58C407.302 216.629 407.72 216.776 408.036 217.022C408.346 217.211 408.778 217.243 409.333 217.116C409.585 216.856 409.726 216.61 409.754 216.378C409.774 216.09 409.883 215.819 410.08 215.566ZM499.729 169.192C499.596 169.951 499.315 170.672 498.887 171.353L497.676 173.304C497.297 173.922 496.982 174.59 496.729 175.306C496.526 175.96 496.533 176.701 496.752 177.53C496.639 177.544 496.499 177.562 496.33 177.583C496.155 177.548 496.011 177.538 495.898 177.552C494.999 177.665 494.325 177.978 493.875 178.491C493.475 178.941 492.9 179.356 492.148 179.736C491.993 179.412 491.814 179.121 491.61 178.861C491.399 178.545 491.118 178.352 490.767 178.282C489.453 178.733 488.133 179.127 486.805 179.465C485.47 179.747 484.143 180.085 482.822 180.479C482.218 180.669 481.621 180.916 481.031 181.218C480.434 181.464 479.809 181.714 479.156 181.968C478.833 182.122 478.475 182.224 478.081 182.274C477.681 182.267 477.287 182.317 476.901 182.422C475.559 182.648 474.112 182.944 472.56 183.31C471.001 183.62 469.649 184.218 468.504 185.104C467.928 185.063 467.327 185.052 466.702 185.074C466.077 185.095 465.455 185.145 464.837 185.223C463.488 185.392 462.016 185.72 460.422 186.206C458.877 186.628 457.532 187.282 456.387 188.168C456.092 188.091 455.772 188.046 455.428 188.032C455.14 188.011 454.799 188.025 454.406 188.075C454.294 188.089 454.213 188.128 454.164 188.191C454.108 188.198 454.023 188.209 453.911 188.223C453.918 188.736 454.038 189.234 454.27 189.719C454.551 190.14 454.963 190.46 455.504 190.677C455.357 191.323 455.329 192.012 455.421 192.743C455.541 193.698 455.717 194.646 455.95 195.588C456.238 196.522 456.443 197.466 456.563 198.422C456.697 199.49 456.662 200.35 456.459 201.004C457.233 202.619 457.74 204.382 457.98 206.293C458.065 206.967 458.093 207.649 458.066 208.337C458.087 208.962 458.144 209.64 458.235 210.371C458.313 210.989 458.601 211.467 459.101 211.804C459.592 212.084 459.877 212.534 459.955 213.152C459.983 213.377 459.955 213.609 459.871 213.847C460.637 213.58 461.367 213.26 462.062 212.887C462.751 212.458 463.488 212.194 464.275 212.095C464.725 212.039 465.157 212.07 465.571 212.189C466.042 212.301 466.464 212.477 466.836 212.715C466.815 213.003 466.798 213.32 466.784 213.664C466.826 214.001 466.869 214.338 466.911 214.675C466.989 215.294 467.063 215.884 467.134 216.446C467.253 216.944 467.38 217.499 467.514 218.11C467.163 218.954 466.718 219.723 466.177 220.419C465.693 221.108 465.398 221.944 465.294 222.928C464.451 223.034 463.717 223.326 463.092 223.804C462.516 224.219 461.975 224.686 461.47 225.207C460.957 225.671 460.445 226.135 459.932 226.599C459.413 227.006 458.816 227.253 458.141 227.337C457.298 227.443 456.694 227.405 456.329 227.223C455.956 226.984 455.668 226.735 455.464 226.475C455.26 226.215 455.06 225.984 454.863 225.78C454.722 225.569 454.431 225.52 453.988 225.633C453.784 224.916 453.474 224.27 453.059 223.695C452.638 223.063 452.191 222.462 451.72 221.893C451.305 221.318 450.862 220.745 450.391 220.177C449.969 219.545 449.631 218.902 449.378 218.249C448.857 216.83 448.526 215.33 448.385 213.75C448.243 212.169 447.799 210.683 447.054 209.293C447.067 208.492 447.053 207.695 447.01 206.901C446.96 206.051 446.886 205.232 446.787 204.446C446.589 202.872 446.339 201.334 446.036 199.83C445.782 198.264 445.525 196.669 445.264 195.047C444.807 194.59 444.483 194.06 444.293 193.456C444.152 192.789 444.015 192.149 443.881 191.538C443.691 191.391 443.473 191.247 443.227 191.107C443.037 190.959 442.897 190.749 442.805 190.475C442.341 190.419 441.997 190.405 441.772 190.433C440.986 190.532 440.336 190.813 439.823 191.277C439.36 191.678 438.903 191.907 438.454 191.963C438.004 192.02 437.576 192.017 437.168 191.954C436.761 191.891 436.36 191.884 435.967 191.933C435.63 191.976 435.444 192.085 435.409 192.26C435.423 192.373 435.324 192.499 435.114 192.64C434.959 192.774 434.58 192.935 433.976 193.125C433.372 193.316 432.684 193.516 431.911 193.728C431.187 193.876 430.464 194.024 429.74 194.172C429.073 194.312 428.627 194.397 428.402 194.425C427.503 194.538 426.807 194.454 426.315 194.174C425.76 193.844 425.117 193.497 424.386 193.132C424.456 192.78 424.484 192.549 424.47 192.436C424.399 191.874 424.174 191.446 423.795 191.151C423.408 190.8 423.197 190.484 423.162 190.203C423.084 189.585 423.277 189.075 423.741 188.675C424.148 188.281 424.334 187.715 424.298 186.978C425.52 186.253 426.788 185.666 428.101 185.215C429.414 184.765 430.763 184.367 432.147 184.022C433.531 183.677 434.883 183.307 436.203 182.913C437.58 182.511 438.911 181.973 440.196 181.298C440.597 181.304 440.969 181.315 441.313 181.329C441.707 181.279 442.1 181.23 442.493 181.18C444.179 180.968 445.816 180.591 447.403 180.049C449.04 179.444 450.729 179.032 452.471 178.813C452.921 178.757 453.374 178.728 453.831 178.728C454.287 178.728 454.748 178.755 455.211 178.811C457.417 178.192 459.591 177.547 461.733 176.879C463.932 176.203 466.193 175.576 468.518 174.998C469.628 174.745 470.714 174.523 471.774 174.332C472.884 174.079 473.99 173.797 475.093 173.487C475.48 173.381 475.75 173.262 475.904 173.128C476.108 172.931 476.182 172.608 476.125 172.159C476.659 172.32 477.235 172.362 477.853 172.284C478.809 172.164 479.715 171.879 480.572 171.429C481.429 170.978 482.335 170.693 483.29 170.573C483.515 170.545 483.715 170.548 483.891 170.583C484.059 170.562 484.228 170.541 484.396 170.52C484.79 170.47 484.965 170.277 484.923 169.94C484.93 169.539 485.179 169.251 485.671 169.075C486.05 168.913 486.601 168.758 487.325 168.61C488.048 168.462 488.8 168.311 489.58 168.156C490.409 167.937 491.153 167.73 491.813 167.533C492.523 167.272 493.028 166.98 493.33 166.657L493.804 165.655C494.822 165.585 495.61 165.942 496.165 166.729C496.77 167.452 497.16 168.288 497.336 169.236C497.589 169.433 497.913 169.506 498.306 169.457C498.749 169.344 499.138 169.267 499.476 169.224L499.729 169.192Z" fill="#181E58"/>
<circle cx="187.277" cy="229.277" r="43.4942" transform="rotate(13.1997 187.277 229.277)" fill="#FDE82F"/>
<path d="M214.451 199.132C208.259 196 190.076 196.035 182.621 210.81C173.302 229.279 199.184 232.327 191.665 250.211C185.65 264.518 168.39 264.399 163.775 262.813" stroke="white" stroke-width="6" stroke-linejoin="bevel"/>
</svg>
