<svg width="253" height="70" viewBox="0 0 253 70" fill="none" xmlns="http://www.w3.org/2000/svg">
<path d="M85.2241 55.2822C85.1499 56.0244 84.8901 56.5996 84.4448 57.0078C83.9995 57.4531 83.4243 57.6758 82.7192 57.6758C82.3481 57.6758 81.9956 57.6201 81.6616 57.5088C80.9565 58.0654 80.1216 58.4922 79.1567 58.7891C78.1919 59.0859 77.2827 59.3828 76.4292 59.6797C75.3901 59.6426 74.3696 59.5498 73.3677 59.4014C72.3657 59.2529 71.3267 59.2158 70.2505 59.29C69.8794 59.0303 69.4897 58.8633 69.0815 58.7891C68.6733 58.7148 68.2466 58.6592 67.8013 58.6221C67.3931 58.6221 66.9849 58.5664 66.5767 58.4551C66.2056 58.3438 65.8345 58.084 65.4634 57.6758H62.6802C62.4204 57.6758 62.0308 57.5459 61.5112 57.2861C61.0288 57.0635 60.4722 56.8223 59.8413 56.5625C59.2476 56.3027 58.5981 56.0615 57.8931 55.8389C57.2251 55.6162 56.5942 55.5049 56.0005 55.5049H55.6665C55.2583 55.1709 54.7759 54.9111 54.2192 54.7256C53.6997 54.5771 53.1616 54.4287 52.605 54.2803C52.0483 54.1689 51.5103 54.0391 50.9907 53.8906C50.4712 53.7422 50.0259 53.5381 49.6548 53.2783C49.2837 53.0186 48.8569 52.7588 48.3745 52.499C47.8921 52.2021 47.3911 52.0723 46.8716 52.1094C46.1665 51.7012 45.4243 51.3486 44.645 51.0518C43.9028 50.7549 43.1421 50.4766 42.3628 50.2168L40.0806 49.3818C39.3384 49.085 38.5962 48.7324 37.854 48.3242C37.7427 48.3613 37.6128 48.3613 37.4644 48.3242C37.3159 48.2871 37.186 48.2686 37.0747 48.2686C36.8521 48.2686 36.7222 48.3428 36.6851 48.4912C36.4253 48.2314 36.1284 48.0088 35.7944 47.8232C35.4976 47.6377 35.2007 47.415 34.9038 47.1553C34.7554 47.1924 34.6069 47.2295 34.4585 47.2666C34.3472 47.2666 34.1987 47.2666 34.0132 47.2666C33.6792 47.2666 33.3452 47.2295 33.0112 47.1553C32.7144 47.0811 32.4175 46.9883 32.1206 46.877C31.7866 47.6191 31.564 48.4541 31.4526 49.3818C31.3413 50.3096 31.2485 51.2744 31.1743 52.2764C31.1372 53.2412 31.0815 54.2061 31.0073 55.1709C30.9331 56.1729 30.7661 57.082 30.5063 57.8984C30.5806 58.1953 30.6177 58.4922 30.6177 58.7891V59.7354C30.6177 60.3662 30.7104 60.8672 30.896 61.2383C30.8218 61.5723 30.7476 61.8877 30.6733 62.1846C30.6362 62.4814 30.5806 62.7783 30.5063 63.0752C30.5435 63.4834 30.562 63.8545 30.562 64.1885C30.5991 64.5596 30.6177 64.9492 30.6177 65.3574V66.3037C30.6177 66.6377 30.5806 66.9717 30.5063 67.3057C30.1353 67.5283 29.7642 67.7324 29.3931 67.918C29.022 68.1406 28.6509 68.4004 28.2798 68.6973C28.02 68.2148 27.5747 67.9365 26.9438 67.8623C26.7954 68.0479 26.6841 68.2891 26.6099 68.5859C26.5728 68.9199 26.4058 69.0869 26.1089 69.0869C25.5894 68.6787 25.1626 68.3447 24.8286 68.085C24.4946 67.8252 24.1235 67.4355 23.7153 66.916C23.6782 66.8418 23.6597 66.749 23.6597 66.6377C23.6597 66.4521 23.6968 66.2852 23.771 66.1367C23.8452 65.9883 23.8823 65.8398 23.8823 65.6914C23.8823 65.2461 23.8267 64.8564 23.7153 64.5225C23.6411 64.04 23.5854 63.5576 23.5483 63.0752C23.5112 62.6299 23.4927 62.1846 23.4927 61.7393C23.4927 61.1084 23.5298 60.4961 23.604 59.9023C23.7153 59.3086 23.9009 58.6963 24.1606 58.0654C24.5688 56.9893 24.8472 55.8574 24.9956 54.6699C25.1812 53.4824 25.311 52.2949 25.3853 51.1074C25.4595 49.8828 25.4966 48.6582 25.4966 47.4336C25.5337 46.209 25.6079 45.04 25.7192 43.9268C25.4595 43.333 25.144 42.8691 24.7729 42.5352C24.439 42.1641 24.272 41.5889 24.272 40.8096C24.272 40.1045 24.4946 39.5664 24.9399 39.1953C25.3853 38.7871 25.7749 38.3047 26.1089 37.748C26.0347 37.5254 26.0903 37.377 26.2759 37.3027L26.9438 31.458C26.981 31.0498 27.0366 30.6045 27.1108 30.1221C27.2222 29.6396 27.2964 29.1943 27.3335 28.7861C27.4077 27.9326 27.4448 27.0977 27.4448 26.2812C27.4448 25.4648 27.4819 24.6484 27.5562 23.832C27.7417 22.0137 27.9087 20.2139 28.0571 18.4326C28.2427 16.6514 28.3354 14.8701 28.3354 13.0889C28.3354 12.2354 28.2983 11.3818 28.2241 10.5283C28.187 9.6748 28.0757 8.82129 27.8901 7.96777C27.2593 8.15332 26.5542 8.35742 25.7749 8.58008C25.0327 8.76563 24.4019 9.09961 23.8823 9.58203H23.437C22.4722 9.58203 21.563 9.76758 20.7095 10.1387C19.8931 10.5098 19.0581 10.8623 18.2046 11.1963C17.8335 11.3818 17.4624 11.5117 17.0913 11.5859C16.7202 11.623 16.3306 11.6973 15.9224 11.8086C15.7368 11.8457 15.5327 11.957 15.3101 12.1426C15.0874 12.3281 14.8833 12.458 14.6978 12.5322L13.7515 12.7549C13.4917 12.8291 13.3804 12.9961 13.4175 13.2559C13.4546 13.5156 13.3618 13.6826 13.1392 13.7568C12.9536 13.9424 12.6938 14.0352 12.3599 14.0352C12.0259 13.998 11.7661 13.9795 11.5806 13.9795H11.3579C10.4302 14.6475 9.53955 15.2227 8.68604 15.7051C7.79541 16.1504 6.75635 16.4473 5.56885 16.5957L4.34424 17.375C3.93604 17.6348 3.47217 17.7646 2.95264 17.7646C2.54443 17.7646 2.21045 17.6904 1.95068 17.542C1.65381 17.0967 1.43115 16.5957 1.28271 16.0391C1.09717 15.4824 0.800293 15 0.39209 14.5918C0.577637 14.4062 0.70752 14.165 0.781738 13.8682C0.818848 13.5342 0.874512 13.2373 0.94873 12.9775C2.06201 12.4951 3.19385 12.0312 4.34424 11.5859C5.45752 11.1406 6.53369 10.6025 7.57275 9.97168C7.68408 10.0088 7.85107 10.0273 8.07373 10.0273C8.44482 10.0273 8.77881 9.97168 9.07568 9.86035C9.37256 9.74902 9.66943 9.61914 9.96631 9.4707C10.2632 9.32227 10.5601 9.19238 10.8569 9.08105C11.1538 8.96973 11.5063 8.93262 11.9146 8.96973C13.1763 8.26465 14.5122 7.68945 15.9224 7.24414C17.3325 6.79883 18.6685 6.18652 19.9302 5.40723C20.1157 5.40723 20.2642 5.44434 20.3755 5.51855C20.5239 5.59277 20.6724 5.62988 20.8208 5.62988C20.9692 5.62988 21.062 5.61133 21.0991 5.57422C21.3218 5.27734 21.6187 5.07324 21.9897 4.96191C22.3608 4.81348 22.7319 4.70215 23.103 4.62793C23.5112 4.5166 23.8823 4.38672 24.2163 4.23828C24.5874 4.05273 24.8286 3.77441 24.9399 3.40332C25.1255 3.55176 25.4038 3.62598 25.7749 3.62598C26.4058 3.62598 26.981 3.49609 27.5005 3.23633C28.0571 2.97656 28.6509 2.84668 29.2817 2.84668C29.4302 2.84668 29.5601 2.88379 29.6714 2.95801C29.8198 2.99512 29.9683 3.01367 30.1167 3.01367C30.4136 3.01367 30.562 2.9209 30.562 2.73535C30.5991 2.5498 30.7104 2.38281 30.896 2.23438C33.1597 1.82617 35.4048 1.45508 37.6313 1.12109C39.895 0.787109 42.1772 0.620117 44.478 0.620117C44.812 0.397461 45.1831 0.286133 45.5913 0.286133C45.9995 0.286133 46.3706 0.397461 46.7046 0.620117C47.3354 0.545898 47.9663 0.490234 48.5972 0.453125C49.228 0.416016 49.8589 0.397461 50.4897 0.397461C51.937 0.397461 53.4214 0.490234 54.9429 0.675781C56.4644 0.861328 57.9673 1.1582 59.4517 1.56641C60.9731 1.9375 62.4204 2.45703 63.7935 3.125C65.1665 3.75586 66.4468 4.5166 67.6343 5.40723C67.7456 5.74121 67.894 6.0752 68.0796 6.40918C68.2651 6.74316 68.5063 7.00293 68.8032 7.18848C68.8032 7.2627 68.7847 7.31836 68.7476 7.35547C68.7476 7.39258 68.7476 7.44824 68.7476 7.52246C68.7476 7.93066 68.8589 8.32031 69.0815 8.69141C69.3413 9.0625 69.4712 9.50781 69.4712 10.0273C69.4712 10.5469 69.3784 11.0664 69.1929 11.5859C69.0444 12.1055 68.9888 12.625 69.0259 13.1445C68.6177 13.7383 68.2651 14.2764 67.9683 14.7588C67.7085 15.2412 67.5415 15.8535 67.4673 16.5957C66.7993 17.2637 66.2056 18.0059 65.686 18.8223C65.1665 19.6016 64.6284 20.3809 64.0718 21.1602C63.5522 21.9023 62.9585 22.5889 62.2905 23.2197C61.6226 23.8506 60.8247 24.3516 59.897 24.7227C59.8599 25.0938 59.7114 25.502 59.4517 25.9473H58.2827C58.1714 26.2441 57.9858 26.4668 57.7261 26.6152L56.9468 27.0605C56.687 27.209 56.4644 27.3945 56.2788 27.6172C56.1304 27.8398 56.0562 28.1553 56.0562 28.5635C55.9819 28.5264 55.8892 28.5078 55.7778 28.5078C55.4067 28.5078 54.9614 28.6934 54.4419 29.0645C53.9595 29.4355 53.5698 29.7324 53.2729 29.9551C52.6421 30.4004 51.9927 30.8086 51.3247 31.1797C50.6938 31.5508 50.1372 32.0703 49.6548 32.7383C48.1704 33.3691 46.7603 34.1113 45.4243 34.9648C44.0884 35.7812 42.6411 36.4307 41.0825 36.9131C40.4888 37.5439 39.7837 38.0449 38.9673 38.416C38.188 38.75 37.4272 39.1211 36.6851 39.5293V39.6963C36.6851 39.9932 36.7964 40.29 37.019 40.5869C37.2417 40.8467 37.5015 41.0879 37.7983 41.3105C38.0952 41.4961 38.4106 41.626 38.7446 41.7002C39.1157 41.7744 39.4312 41.7744 39.6909 41.7002C40.4331 42.3682 41.2866 42.9062 42.2515 43.3145C43.2163 43.7227 44.2183 44.0938 45.2573 44.4277C46.2964 44.7617 47.3169 45.1143 48.3188 45.4854C49.3208 45.8564 50.2485 46.3203 51.1021 46.877H52.438C53.2915 47.6191 54.2935 48.1758 55.4438 48.5469C56.6313 48.918 57.7632 49.252 58.8394 49.5488C59.2847 49.957 59.8413 50.2725 60.5093 50.4951C61.2144 50.6807 61.8823 50.7734 62.5132 50.7734H62.8472C62.9956 50.7734 63.1255 50.7549 63.2368 50.7178V50.8291C63.2368 51.0146 63.2925 51.1445 63.4038 51.2188C63.5151 51.2559 63.6265 51.293 63.7378 51.3301C63.8862 51.3301 64.0161 51.3672 64.1274 51.4414C64.2759 51.4785 64.3872 51.5527 64.4614 51.6641H65.0181C65.7974 51.6641 66.5396 51.8311 67.2446 52.165C67.9497 52.4619 68.6919 52.6104 69.4712 52.6104C69.8052 52.6104 70.0649 52.5732 70.2505 52.499C70.4731 52.5732 70.6401 52.7217 70.7515 52.9443C70.8628 53.167 71.0112 53.3525 71.1968 53.501C71.4565 53.4639 71.6978 53.4268 71.9204 53.3896C72.1431 53.3896 72.3657 53.3896 72.5884 53.3896C73.4048 53.3896 74.1655 53.4824 74.8706 53.668C75.5757 53.8535 76.2993 54.1318 77.0415 54.5029C78.229 53.9834 79.3979 53.5566 80.5483 53.2227C81.6987 52.8887 82.9233 52.7217 84.2222 52.7217V52.833C84.2222 53.2783 84.3335 53.6865 84.5562 54.0576C84.8159 54.4658 85.0386 54.874 85.2241 55.2822ZM63.9048 10.8623C63.9048 10.417 63.812 10.0645 63.6265 9.80469C63.478 9.54492 63.2739 9.32227 63.0142 9.13672C62.7544 8.91406 62.4761 8.70996 62.1792 8.52441C61.9194 8.33887 61.6782 8.09766 61.4556 7.80078C60.4907 7.50391 59.5444 7.16992 58.6167 6.79883C57.689 6.42773 56.7427 6.1123 55.7778 5.85254C55.2954 5.74121 54.813 5.64844 54.3306 5.57422C53.8481 5.46289 53.3657 5.40723 52.8833 5.40723H51.6587C51.436 5.37012 51.1948 5.33301 50.9351 5.2959C50.7124 5.22168 50.4897 5.16602 50.2671 5.12891C49.7476 5.05469 49.228 4.99902 48.7085 4.96191C48.2261 4.9248 47.7251 4.90625 47.2056 4.90625C46.2407 4.90625 45.2759 4.94336 44.311 5.01758L41.4165 5.24023C41.0083 5.27734 40.5815 5.2959 40.1362 5.2959C39.6909 5.2959 39.2827 5.33301 38.9116 5.40723C38.7261 5.44434 38.4663 5.53711 38.1323 5.68555C37.7983 5.79688 37.4458 5.92676 37.0747 6.0752C36.7036 6.18652 36.3325 6.31641 35.9614 6.46484C35.6274 6.61328 35.3306 6.72461 35.0708 6.79883C35.1079 7.05859 35.1265 7.31836 35.1265 7.57812V8.30176C35.1265 8.8584 35.1079 9.41504 35.0708 9.97168C35.0337 10.5283 34.9595 11.085 34.8481 11.6416C34.811 11.8643 34.7554 12.0869 34.6812 12.3096C34.6069 12.5322 34.5513 12.7549 34.5142 12.9775C34.4399 13.3115 34.4028 13.6826 34.4028 14.0908V15.1484C34.3286 16.002 34.2729 16.8369 34.2358 17.6533C34.1987 18.4697 34.1431 19.3047 34.0688 20.1582C33.8462 22.6074 33.605 25.0381 33.3452 27.4502C33.1226 29.8623 32.9741 32.293 32.8999 34.7422C34.1245 34.4824 35.2935 34.0928 36.4067 33.5732C37.52 33.0537 38.6147 32.4971 39.6909 31.9033C40.7671 31.2725 41.8433 30.6602 42.9194 30.0664C43.9956 29.4727 45.1274 28.9717 46.3149 28.5635C46.6118 28.1553 46.9644 27.8213 47.3726 27.5615C47.8179 27.3018 48.189 26.9678 48.4858 26.5596C48.8569 26.5596 49.1353 26.4854 49.3208 26.3369C49.5063 26.1514 49.7476 26.0215 50.0444 25.9473C51.8257 24.3887 53.644 22.9229 55.4995 21.5498C57.355 20.1768 59.1362 18.7109 60.8433 17.1523C60.9917 16.6328 61.2329 16.1318 61.5669 15.6494C61.938 15.1299 62.2905 14.6104 62.6245 14.0908C62.9585 13.5713 63.2554 13.0518 63.5151 12.5322C63.7749 12.0127 63.9048 11.4561 63.9048 10.8623ZM102.981 20.7705C102.758 21.1045 102.628 21.4756 102.591 21.8838C102.554 22.292 102.536 22.6631 102.536 22.9971C102.536 23.4424 102.536 23.8877 102.536 24.333C102.573 24.7412 102.591 25.1494 102.591 25.5576V26.3926C102.517 26.6523 102.406 26.9121 102.257 27.1719C102.109 27.4316 101.998 27.6914 101.923 27.9512C101.404 29.3242 101.144 30.6973 101.144 32.0703V32.1816C100.958 32.627 100.773 33.0352 100.587 33.4062C100.439 33.7773 100.291 34.1484 100.142 34.5195C99.9937 34.8535 99.8823 35.2246 99.8081 35.6328C99.7339 36.0039 99.7153 36.4492 99.7524 36.9688C99.2329 38.2676 98.5464 39.4551 97.6929 40.5312C96.8394 41.5703 96.0044 42.6465 95.188 43.7598C94.4087 44.0566 93.6851 44.4463 93.0171 44.9287C92.3862 45.4111 91.7739 45.9492 91.1802 46.543C90.0298 46.9141 88.8979 47.3408 87.7847 47.8232C86.6714 48.3057 85.6694 48.9551 84.7788 49.7715C84.0737 49.8457 83.3687 49.957 82.6636 50.1055C81.9585 50.2539 81.272 50.4766 80.604 50.7734H79.936C79.6021 50.7734 79.3608 50.6992 79.2124 50.5508C78.73 50.8105 78.229 50.9961 77.7095 51.1074C77.1899 51.1816 76.6704 51.2188 76.1509 51.2188C75.4829 51.2188 74.8149 51.1816 74.147 51.1074C73.5161 50.9961 72.8667 50.8848 72.1987 50.7734C71.8276 50.2539 71.3081 49.8643 70.6401 49.6045C69.9722 49.3076 69.3784 49.0293 68.8589 48.7695C67.7827 47.2852 67.0034 45.8564 66.521 44.4834C66.0386 43.0732 65.5376 41.4961 65.0181 39.752C65.0923 39.2324 65.2222 38.7314 65.4077 38.249C65.5933 37.7295 65.6675 37.1729 65.6304 36.5791C66.2983 34.6494 67.1704 32.9053 68.2466 31.3467C69.3599 29.751 70.6216 28.2295 72.0317 26.7822C72.0317 26.5596 72.0688 26.374 72.1431 26.2256C72.2544 26.0771 72.2729 25.8545 72.1987 25.5576C72.2358 25.5947 72.3101 25.6133 72.4214 25.6133C72.7183 25.6133 72.9038 25.5391 72.978 25.3906C73.0522 25.2051 73.0708 25.001 73.0337 24.7783C74.3696 23.9248 75.5757 22.9414 76.6519 21.8281C77.7651 20.7148 79.0269 19.7871 80.437 19.0449C80.5483 18.7109 80.7339 18.4326 80.9937 18.21C81.2534 17.9873 81.4575 17.7275 81.606 17.4307C82.7935 17.0967 83.8696 16.5957 84.8345 15.9277C85.7993 15.2598 86.8198 14.666 87.896 14.1465C88.4897 13.8125 89.0464 13.5898 89.5659 13.4785C90.1226 13.3301 90.7163 13.1816 91.3472 13.0332C91.5698 12.959 91.7739 12.9033 91.9595 12.8662C92.145 12.8291 92.3491 12.8105 92.5718 12.8105C93.2397 12.8105 93.8892 12.9404 94.52 13.2002C95.1509 13.4229 95.8003 13.5342 96.4683 13.5342C96.6538 13.5342 96.8022 13.5342 96.9136 13.5342C97.062 13.4971 97.2104 13.46 97.3589 13.4229C97.9897 14.2021 98.7876 14.7959 99.7524 15.2041C99.9751 15.7607 100.235 16.2432 100.532 16.6514C100.866 17.0596 101.2 17.4678 101.534 17.876C101.868 18.2471 102.165 18.6738 102.424 19.1562C102.721 19.6016 102.907 20.1396 102.981 20.7705ZM97.4146 23.665C97.4146 23.4795 97.396 23.3125 97.3589 23.1641C96.9878 23.0527 96.6353 22.9043 96.3013 22.7188C95.9673 22.5332 95.5962 22.4404 95.188 22.4404C94.9282 22.4404 94.6685 22.4961 94.4087 22.6074C94.3716 22.3477 94.2603 22.1621 94.0747 22.0508C93.9263 21.9395 93.7407 21.8467 93.5181 21.7725C93.3325 21.6611 93.1284 21.5869 92.9058 21.5498C92.7202 21.4756 92.5532 21.3643 92.4048 21.2158C92.2935 20.9189 92.1636 20.6221 92.0151 20.3252C91.9038 19.9912 91.6812 19.75 91.3472 19.6016C91.0132 19.9355 90.6235 20.2139 90.1782 20.4365C89.7329 20.6221 89.269 20.8076 88.7866 20.9932C88.3413 21.1787 87.896 21.4014 87.4507 21.6611C87.0425 21.9209 86.6899 22.2363 86.3931 22.6074H85.3911C85.1685 23.0156 84.853 23.3311 84.4448 23.5537C84.0366 23.7393 83.6841 24.0176 83.3872 24.3887C82.7935 24.6855 82.2368 25.0566 81.7173 25.502C81.2349 25.9102 80.7524 26.3555 80.27 26.8379C79.7876 27.2832 79.3052 27.7471 78.8228 28.2295C78.3774 28.7119 77.895 29.1572 77.3755 29.5654C76.8931 30.6045 76.355 31.5137 75.7612 32.293C75.2046 33.0352 74.6665 33.7959 74.147 34.5752C73.6646 35.3545 73.2378 36.208 72.8667 37.1357C72.5327 38.0264 72.3657 39.1396 72.3657 40.4756V41.0322C72.3657 41.2178 72.3843 41.4033 72.4214 41.5889C72.9038 42.1084 73.2935 42.665 73.5903 43.2588C73.9243 43.8525 74.4624 44.2793 75.2046 44.5391C75.9468 44.8359 76.7261 44.9658 77.5425 44.9287C78.396 44.8916 79.2124 44.9844 79.9917 45.207C81.7729 44.873 83.48 44.335 85.1128 43.5928C86.7827 42.8135 88.3599 41.8857 89.8442 40.8096C90.0669 40.624 90.3267 40.4385 90.6235 40.2529C90.9204 40.0303 91.1616 39.8076 91.3472 39.585C91.5327 39.3994 91.6812 39.1953 91.7925 38.9727C91.9409 38.75 92.0894 38.5459 92.2378 38.3604C92.5347 37.8779 92.8687 37.3955 93.2397 36.9131C93.6108 36.4307 94.0005 35.9854 94.4087 35.5771C94.5942 34.7607 94.8354 33.9814 95.1323 33.2393C95.4292 32.46 95.7261 31.6992 96.0229 30.957C96.3198 30.2148 96.561 29.4541 96.7466 28.6748C96.9692 27.8955 97.0806 27.0791 97.0806 26.2256C97.0806 26.04 97.062 25.8359 97.0249 25.6133C97.0249 25.3906 97.0063 25.1865 96.9692 25.001C97.2661 24.5928 97.4146 24.1475 97.4146 23.665ZM164.824 22.2178C164.712 22.5518 164.49 22.793 164.156 22.9414C163.859 23.0527 163.543 23.1455 163.209 23.2197C162.875 23.2939 162.56 23.4238 162.263 23.6094C162.003 23.7578 161.836 24.0176 161.762 24.3887L161.651 24.4443C161.502 24.4443 161.391 24.4072 161.317 24.333C161.28 24.2217 161.243 24.1289 161.206 24.0547C161.168 23.9434 161.113 23.8506 161.039 23.7764C161.001 23.665 160.927 23.6094 160.816 23.6094C160.408 23.6094 160 23.6465 159.591 23.7207C159.22 23.7949 158.849 23.832 158.478 23.832C157.921 23.832 157.42 23.7578 156.975 23.6094C156.715 23.6836 156.567 23.8506 156.53 24.1104C156.53 24.3701 156.418 24.5371 156.196 24.6113C156.01 24.6855 155.788 24.7227 155.528 24.7227C155.268 24.6855 155.008 24.7041 154.749 24.7783L152.967 25.2236C152.374 25.3721 151.78 25.4463 151.186 25.4463C150.852 25.4463 150.611 25.4277 150.462 25.3906C149.906 25.8359 149.275 26.1699 148.57 26.3926C147.865 26.5781 147.123 26.7637 146.343 26.9492C145.601 27.0977 144.859 27.3018 144.117 27.5615C143.412 27.8213 142.781 28.2295 142.224 28.7861C141.927 28.7119 141.667 28.6748 141.445 28.6748C140.962 28.6748 140.536 28.7861 140.165 29.0088C139.793 29.1943 139.404 29.3799 138.996 29.5654C138.81 29.6396 138.625 29.6768 138.439 29.6768C138.253 29.6768 138.049 29.7139 137.827 29.7881C137.604 29.8623 137.456 29.9922 137.381 30.1777C137.344 30.3262 137.233 30.4746 137.047 30.623C137.047 31.959 137.177 33.2949 137.437 34.6309C137.697 35.9297 137.827 37.2471 137.827 38.583V38.8057C137.901 39.4365 138.105 40.0303 138.439 40.5869C138.773 41.1064 138.94 41.6445 138.94 42.2012C138.94 42.3867 138.903 42.5908 138.829 42.8135C139.793 43.0361 140.424 43.5371 140.721 44.3164C141.055 45.0586 141.315 45.875 141.5 46.7656C141.723 47.6191 142.001 48.417 142.335 49.1592C142.707 49.9014 143.412 50.3652 144.451 50.5508C144.525 50.9219 144.581 51.3115 144.618 51.7197C144.655 52.0908 144.673 52.4619 144.673 52.833C144.673 53.3525 144.618 53.8535 144.506 54.3359C144.395 54.8555 144.172 55.3193 143.838 55.7275C143.282 55.7646 142.874 55.7832 142.614 55.7832C142.354 55.7832 141.964 55.8945 141.445 56.1172C140.703 55.6719 140.035 55.1523 139.441 54.5586C138.884 54.002 138.346 53.4082 137.827 52.7773C137.344 52.1094 136.862 51.4414 136.379 50.7734C135.897 50.0684 135.377 49.4004 134.821 48.7695C132.891 49.252 130.906 49.5859 128.865 49.7715C126.861 49.9199 124.857 49.9941 122.853 49.9941C122.779 50.0684 122.667 50.1055 122.519 50.1055C122.371 50.1055 122.222 50.124 122.074 50.1611C121.962 50.1611 121.851 50.1982 121.74 50.2725C121.666 50.3096 121.647 50.4023 121.684 50.5508C121.424 50.4023 121.127 50.3096 120.793 50.2725C120.497 50.1982 120.218 50.1611 119.958 50.1611C119.773 50.1611 119.587 50.1797 119.402 50.2168C119.216 50.2168 119.031 50.2725 118.845 50.3838C117.435 50.124 116.062 49.7715 114.726 49.3262C113.427 48.8438 112.091 48.4541 110.718 48.1572C110.718 47.8604 110.644 47.6562 110.496 47.5449C110.347 47.3965 110.217 47.1924 110.106 46.9326C108.547 45.9678 107.23 44.7988 106.154 43.4258C105.115 42.0527 104.688 40.3828 104.874 38.416L104.484 37.6367C104.484 37.043 104.614 36.6162 104.874 36.3564C104.725 36.0967 104.465 35.8369 104.094 35.5771C104.428 35.0576 104.725 34.5195 104.985 33.9629C105.245 33.4062 105.43 32.8125 105.542 32.1816C105.579 31.9961 105.597 31.8291 105.597 31.6807C105.597 31.5322 105.634 31.3652 105.708 31.1797C105.783 30.957 105.894 30.7158 106.042 30.4561C106.154 30.1592 106.265 29.8994 106.376 29.6768C106.97 28.415 107.62 27.209 108.325 26.0586C109.067 24.8711 109.995 23.8506 111.108 22.9971C111.182 22.3662 111.368 21.8467 111.665 21.4385C111.961 20.9932 112.277 20.6035 112.611 20.2695C112.982 19.8984 113.334 19.5273 113.668 19.1562C114.04 18.7852 114.318 18.3398 114.503 17.8203C115.246 17.1895 115.988 16.5771 116.73 15.9834C117.509 15.3896 118.159 14.6846 118.678 13.8682C119.346 13.6455 119.977 13.3672 120.571 13.0332C121.165 12.6621 121.666 12.1982 122.074 11.6416C122.964 11.5674 123.836 11.4004 124.69 11.1406C125.581 10.8809 126.508 10.751 127.473 10.751C127.881 10.751 128.364 10.8437 128.92 11.0293C129.514 11.1777 129.959 11.4561 130.256 11.8643C130.293 11.9385 130.312 12.0312 130.312 12.1426L130.368 12.4209C130.405 12.4951 130.442 12.5693 130.479 12.6436C130.553 12.6807 130.665 12.6807 130.813 12.6436C130.813 13.46 130.72 14.2949 130.535 15.1484C130.349 15.9648 129.867 16.5957 129.087 17.041C128.605 16.8926 128.085 16.8184 127.529 16.8184C126.787 16.8184 126.1 16.9668 125.469 17.2637C124.875 17.5234 124.282 17.8389 123.688 18.21C123.131 18.5439 122.556 18.8965 121.962 19.2676C121.369 19.6016 120.738 19.8428 120.07 19.9912C119.996 20.2881 119.921 20.5664 119.847 20.8262C119.81 21.0488 119.829 21.3086 119.903 21.6055C119.717 21.6055 119.569 21.5869 119.458 21.5498C119.383 21.4756 119.253 21.4385 119.068 21.4385C118.808 21.4385 118.623 21.5869 118.511 21.8838C118.437 22.1807 118.363 22.4219 118.289 22.6074C117.583 22.9043 116.99 23.3311 116.507 23.8877C116.062 24.4072 115.635 24.9824 115.227 25.6133C114.856 26.207 114.448 26.7822 114.002 27.3389C113.557 27.8955 113 28.3223 112.333 28.6191C112.036 29.8066 111.739 30.9756 111.442 32.126C111.182 33.2764 110.867 34.4268 110.496 35.5771C110.607 36.0225 110.663 36.4863 110.663 36.9688C110.663 37.5625 110.607 38.1006 110.496 38.583C110.681 38.8799 110.867 39.2324 111.052 39.6406L111.72 40.9209C111.943 41.3662 112.166 41.7744 112.388 42.1455C112.648 42.5166 112.889 42.7949 113.112 42.9805C113.52 43.2773 114.151 43.5557 115.004 43.8154C115.858 44.0381 116.619 44.4277 117.287 44.9844C117.361 44.9844 117.454 44.9844 117.565 44.9844C117.676 44.9473 117.769 44.9287 117.843 44.9287C118.289 44.9287 118.771 45.04 119.291 45.2627C119.81 45.4854 120.144 45.5967 120.292 45.5967C122.371 45.5967 124.634 45.4668 127.083 45.207C129.533 44.9102 131.796 44.5576 133.875 44.1494C133.949 43.7783 133.986 43.4629 133.986 43.2031C133.986 42.7207 133.912 42.2568 133.763 41.8115C133.615 41.3291 133.374 40.9209 133.04 40.5869C133.04 40.0303 133.04 39.4736 133.04 38.917C133.077 38.3604 133.095 37.8037 133.095 37.2471C133.095 36.3193 133.058 35.3359 132.984 34.2969C132.91 33.2578 132.724 32.293 132.427 31.4023H132.316C131.833 31.4023 131.388 31.5322 130.98 31.792C130.609 32.0146 130.219 32.126 129.811 32.126C129.588 32.126 129.403 32.0703 129.254 31.959C128.809 32.4785 128.271 32.8682 127.64 33.1279C127.009 33.3877 126.341 33.6289 125.636 33.8516C124.931 34.0371 124.226 34.2412 123.521 34.4639C122.853 34.6865 122.241 35.002 121.684 35.4102C121.387 35.2988 121.109 35.2432 120.849 35.2432C120.589 35.2432 120.33 35.2617 120.07 35.2988C119.847 35.3359 119.587 35.373 119.291 35.4102C118.511 34.7422 118.122 33.9072 118.122 32.9053C118.122 32.3857 118.196 31.8848 118.344 31.4023C118.53 30.8828 118.771 30.4004 119.068 29.9551C119.253 29.8438 119.476 29.7881 119.736 29.7881C119.996 29.751 120.255 29.7139 120.515 29.6768C120.775 29.6025 120.979 29.5098 121.127 29.3984C121.313 29.2871 121.424 29.083 121.461 28.7861C121.573 28.8975 121.666 28.9531 121.74 28.9531C121.814 28.9531 121.888 28.9346 121.962 28.8975C122.037 28.8604 122.111 28.8418 122.185 28.8418C122.259 28.8418 122.315 28.8789 122.352 28.9531C122.426 29.0273 122.463 29.1016 122.463 29.1758C124.059 28.3223 125.692 27.5986 127.362 27.0049C129.032 26.4111 130.72 25.873 132.427 25.3906C134.171 24.9082 135.916 24.4629 137.66 24.0547C139.404 23.6094 141.129 23.127 142.836 22.6074C143.096 22.3848 143.375 22.2178 143.671 22.1064C143.968 21.9951 144.228 21.8281 144.451 21.6055C144.71 21.7539 145.026 21.8281 145.397 21.8281C145.917 21.8281 146.473 21.7354 147.067 21.5498C147.698 21.3271 148.217 21.0674 148.625 20.7705C148.774 20.8076 148.904 20.8262 149.015 20.8262H149.405C150.147 20.8262 150.833 20.7148 151.464 20.4922C152.132 20.2695 152.782 19.9727 153.413 19.6016H153.691C154.841 19.6016 155.973 19.4717 157.086 19.2119C158.237 18.9521 159.406 18.8223 160.593 18.8223C162.115 18.8223 163.451 19.2119 164.601 19.9912V20.6592C164.601 20.9561 164.601 21.2344 164.601 21.4941C164.638 21.7168 164.712 21.958 164.824 22.2178ZM183.972 17.5977V17.8203C183.712 17.8945 183.583 18.0801 183.583 18.377C183.174 18.5625 182.748 18.7109 182.302 18.8223C181.857 18.8965 181.43 19.0264 181.022 19.2119C180.614 19.1748 180.187 19.1562 179.742 19.1562C179.333 19.1191 178.925 19.1006 178.517 19.1006C177.404 19.1006 176.291 19.1377 175.177 19.2119C174.064 19.2861 172.951 19.2861 171.837 19.2119C171.318 19.5088 170.743 19.75 170.112 19.9355C169.518 20.084 168.943 20.1582 168.386 20.1582C167.941 20.1582 167.551 20.1025 167.217 19.9912C166.327 20.4365 165.343 20.8076 164.267 21.1045C163.228 21.4014 162.17 21.6982 161.094 21.9951C160.018 22.2549 158.979 22.5703 157.977 22.9414C157.012 23.2754 156.159 23.7578 155.417 24.3887C155.342 24.9082 155.287 25.4277 155.25 25.9473C155.212 26.4297 155.194 26.9121 155.194 27.3945C155.194 27.9141 155.212 28.3965 155.25 28.8418C155.324 29.2871 155.454 29.7324 155.639 30.1777C155.825 30.252 156.029 30.3076 156.251 30.3447C156.511 30.3818 156.734 30.4004 156.919 30.4004C157.105 30.4004 157.291 30.3818 157.476 30.3447C157.662 30.2705 157.792 30.1406 157.866 29.9551C158.422 29.8809 158.979 29.8623 159.536 29.8994C160.092 29.8994 160.649 29.8994 161.206 29.8994C161.762 29.8994 162.3 29.8809 162.82 29.8438C163.376 29.8066 163.915 29.7139 164.434 29.5654C165.028 29.417 165.603 29.3242 166.16 29.2871C166.753 29.25 167.329 29.2129 167.885 29.1758C168.442 29.1387 169.017 29.083 169.611 29.0088C170.205 28.8975 170.817 28.6934 171.448 28.3965C171.93 28.582 172.413 28.6748 172.895 28.6748C173.415 28.6748 173.916 28.7119 174.398 28.7861C174.658 28.9717 174.862 29.1758 175.01 29.3984C175.196 29.6211 175.289 29.8809 175.289 30.1777C175.289 30.6973 175.103 31.2168 174.732 31.7363C174.361 32.2559 174.064 32.7383 173.841 33.1836H173.229C172.338 33.1836 171.466 33.3135 170.613 33.5732C169.796 33.7959 168.961 34.0742 168.108 34.4082C167.292 34.7051 166.457 34.9834 165.603 35.2432C164.787 35.4658 163.933 35.5771 163.042 35.5771C162.894 35.5771 162.801 35.6699 162.764 35.8555C162.764 36.0039 162.727 36.1152 162.653 36.1895C162.467 36.1523 162.189 36.1338 161.818 36.1338C160.964 36.1338 160.148 36.2266 159.369 36.4121C158.589 36.5977 157.792 36.6904 156.975 36.6904C156.752 36.6904 156.53 36.6904 156.307 36.6904C156.084 36.6533 155.862 36.6162 155.639 36.5791C155.454 36.876 155.212 37.0801 154.916 37.1914C154.619 37.2656 154.34 37.4141 154.081 37.6367C153.969 37.9707 153.895 38.3789 153.858 38.8613C153.858 39.3438 153.839 39.8447 153.802 40.3643C153.802 40.8467 153.765 41.3105 153.691 41.7559C153.617 42.2012 153.468 42.5537 153.246 42.8135C153.283 42.999 153.431 43.0732 153.691 43.0361C153.951 42.9619 154.081 43.0732 154.081 43.3701C154.081 43.7041 154.043 44.0566 153.969 44.4277C153.895 44.7988 153.858 45.1699 153.858 45.541C153.858 46.2461 153.932 47.0254 154.081 47.8789C154.266 48.6953 154.526 49.4561 154.86 50.1611C155.231 50.8662 155.713 51.46 156.307 51.9424C156.901 52.3877 157.643 52.6104 158.534 52.6104C159.127 52.6104 159.684 52.499 160.204 52.2764C160.723 52.0537 161.15 51.6826 161.484 51.1631L161.762 51.1074C161.911 51.1074 162.041 51.126 162.152 51.1631C162.3 51.2002 162.449 51.2188 162.597 51.2188C162.82 51.2188 163.098 51.0889 163.432 50.8291C163.803 50.5322 164.193 50.1982 164.601 49.8271C165.046 49.4561 165.492 49.1035 165.937 48.7695C166.382 48.3984 166.809 48.1387 167.217 47.9902C167.477 47.4707 167.718 46.9512 167.941 46.4316C168.201 45.9121 168.572 45.5039 169.054 45.207V43.5928C169.425 43.1846 169.815 42.8135 170.223 42.4795C170.668 42.1455 171.002 41.7188 171.225 41.1992C171.411 41.2734 171.578 41.3291 171.726 41.3662C171.912 41.4033 172.097 41.4219 172.283 41.4219C172.468 41.4219 172.654 41.4033 172.839 41.3662C173.062 41.3291 173.266 41.2734 173.452 41.1992C173.749 41.6074 173.971 42.0713 174.12 42.5908C174.305 43.0732 174.528 43.5371 174.788 43.9824C174.454 44.6504 174.064 45.4482 173.619 46.376C173.173 47.3037 172.691 48.2314 172.171 49.1592C171.652 50.0869 171.095 50.9775 170.501 51.8311C169.945 52.6475 169.388 53.2783 168.832 53.7236C168.72 53.835 168.479 53.9648 168.108 54.1133C167.7 54.4102 167.329 54.6885 166.995 54.9482C166.661 55.2451 166.345 55.5791 166.048 55.9502C164.972 56.2842 163.933 56.7295 162.931 57.2861C161.966 57.8428 161.001 58.3809 160.037 58.9004C159.591 58.7891 159.109 58.7334 158.589 58.7334C158.144 58.7334 157.699 58.752 157.253 58.7891C156.808 58.8633 156.326 58.9004 155.806 58.9004C155.658 58.7148 155.435 58.585 155.138 58.5107C154.878 58.4736 154.786 58.2881 154.86 57.9541C153.598 57.8799 152.578 57.5273 151.798 56.8965C151.019 56.3027 150.351 55.5605 149.794 54.6699C149.275 53.7793 148.848 52.8145 148.514 51.7754C148.18 50.7363 147.828 49.7344 147.457 48.7695V48.6025C147.457 48.417 147.531 48.3057 147.679 48.2686C147.828 48.2314 147.902 48.1201 147.902 47.9346C147.902 47.8604 147.883 47.8047 147.846 47.7676C147.735 47.3594 147.642 47.0068 147.568 46.71C147.494 46.4131 147.457 46.0605 147.457 45.6523C147.457 45.0586 147.494 44.4834 147.568 43.9268C147.642 43.333 147.679 42.7393 147.679 42.1455C147.679 41.5518 147.605 41.0322 147.457 40.5869C147.605 40.4014 147.735 40.1602 147.846 39.8633C147.92 39.5293 147.976 39.1953 148.013 38.8613C148.05 38.5273 148.069 38.1934 148.069 37.8594C148.106 37.5254 148.162 37.2285 148.236 36.9688C148.087 36.5605 147.958 36.208 147.846 35.9111C147.735 35.5771 147.679 35.1875 147.679 34.7422V34.3525C148.05 33.7217 148.366 33.0723 148.625 32.4043C148.885 31.7363 149.164 31.0498 149.46 30.3447V30.1777C149.46 29.1016 149.423 28.0254 149.349 26.9492C149.275 25.873 149.238 24.7969 149.238 23.7207V22.6631C149.238 22.292 149.256 21.9395 149.293 21.6055C149.59 21.457 149.813 21.2529 149.961 20.9932C150.11 20.7334 150.333 20.5293 150.629 20.3809H152.466L152.8 19.8242C152.912 19.6387 152.986 19.4346 153.023 19.2119C153.431 19.1006 153.821 18.9521 154.192 18.7666C154.6 18.5439 154.971 18.3213 155.305 18.0986C155.825 17.8018 156.289 17.542 156.697 17.3193C157.142 17.0596 157.569 16.8555 157.977 16.707C158.422 16.5215 158.886 16.373 159.369 16.2617C159.851 16.1504 160.408 16.0576 161.039 15.9834C161.335 15.9834 161.521 15.9277 161.595 15.8164C161.707 15.7051 161.855 15.5752 162.041 15.4268C162.486 15.501 162.931 15.5752 163.376 15.6494C163.822 15.6865 164.267 15.7051 164.712 15.7051C165.603 15.7051 166.438 15.5381 167.217 15.2041C168.331 15.2041 169.425 15.1855 170.501 15.1484C171.615 15.1113 172.728 15.0928 173.841 15.0928C174.806 15.0928 175.771 15.1299 176.736 15.2041C177.701 15.2783 178.647 15.4082 179.575 15.5938C179.909 15.4824 180.28 15.4268 180.688 15.4268C181.133 15.4268 181.579 15.4824 182.024 15.5938C182.506 15.668 182.97 15.668 183.416 15.5938C183.453 16.002 183.545 16.3545 183.694 16.6514C183.879 16.9111 183.972 17.2266 183.972 17.5977ZM252.495 43.3145C252.42 43.8711 252.216 44.2979 251.882 44.5947C251.585 44.8916 251.233 45.1699 250.825 45.4297C250.639 45.3926 250.454 45.374 250.268 45.374C250.12 45.3369 249.953 45.3184 249.767 45.3184C248.617 45.2812 247.522 45.4297 246.483 45.7637C245.481 46.0977 244.442 46.3389 243.366 46.4873C242.995 46.5615 242.642 46.5986 242.308 46.5986C242.011 46.5615 241.696 46.5801 241.362 46.6543C240.174 46.8398 238.913 46.9883 237.577 47.0996C236.241 47.2109 234.905 47.3594 233.569 47.5449C232.233 47.6934 230.916 47.8975 229.617 48.1572C228.355 48.3799 227.167 48.7139 226.054 49.1592C225.943 49.085 225.832 49.0107 225.72 48.9365C225.609 48.8252 225.479 48.7695 225.331 48.7695C224.959 48.7695 224.607 48.8252 224.273 48.9365C223.939 49.0479 223.605 49.085 223.271 49.0479C222.9 49.2705 222.492 49.4375 222.046 49.5488C221.638 49.623 221.211 49.6973 220.766 49.7715C220.358 49.8086 219.95 49.8828 219.542 49.9941C219.133 50.1055 218.744 50.3096 218.373 50.6064C218.076 50.458 217.705 50.3838 217.259 50.3838C216.851 50.3467 216.573 50.1982 216.424 49.9385C215.571 50.3467 214.662 50.6064 213.697 50.7178C212.769 50.8291 211.823 50.8662 210.858 50.8291C210.227 50.792 209.503 50.6992 208.687 50.5508C207.871 50.4023 207.054 50.1982 206.238 49.9385C205.421 49.6416 204.661 49.3076 203.956 48.9365C203.25 48.5283 202.712 48.0459 202.341 47.4893C202.082 47.1182 201.896 46.71 201.785 46.2646C201.673 45.8193 201.414 45.4854 201.005 45.2627C201.117 44.4092 201.247 43.5742 201.395 42.7578C201.543 41.9414 201.692 41.1064 201.84 40.2529C202.583 39.6221 203.288 38.9541 203.956 38.249C204.624 37.5439 205.254 36.8018 205.848 36.0225C206.553 35.6885 207.203 35.2803 207.796 34.7979C208.427 34.3154 209.04 33.833 209.633 33.3506C210.264 32.8311 210.876 32.3301 211.47 31.8477C212.101 31.3652 212.769 30.9385 213.474 30.5674C213.585 30.3076 213.734 30.1035 213.919 29.9551C214.142 29.7695 214.365 29.6025 214.587 29.4541C214.81 29.2686 215.014 29.083 215.2 28.8975C215.385 28.6748 215.515 28.415 215.589 28.1182C216.888 27.3389 218.02 26.3555 218.985 25.168C219.95 23.9805 220.581 22.6445 220.877 21.1602C220.247 20.6406 219.523 20.3066 218.707 20.1582C217.927 19.9727 217.111 19.8428 216.257 19.7686C215.515 19.7314 214.736 19.7314 213.919 19.7686C213.14 19.8057 212.342 19.7871 211.526 19.7129C210.709 19.9727 209.856 20.1396 208.965 20.2139C208.112 20.2881 207.258 20.3623 206.405 20.4365C205.551 20.4736 204.698 20.585 203.844 20.7705C203.028 20.9189 202.23 21.2158 201.451 21.6611C201.302 21.6611 201.154 21.6426 201.005 21.6055C200.894 21.5684 200.764 21.5498 200.616 21.5498C199.428 21.5127 198.315 21.7539 197.276 22.2734C196.237 22.7559 195.216 23.2383 194.214 23.7207C194.14 23.8691 194.103 23.9805 194.103 24.0547C194.103 24.2773 194.14 24.5 194.214 24.7227C194.326 24.9082 194.381 25.1123 194.381 25.335C194.344 25.3721 194.326 25.4092 194.326 25.4463C194.326 25.4834 194.307 25.5205 194.27 25.5576C194.233 25.7432 194.177 25.9102 194.103 26.0586C194.066 26.207 194.01 26.374 193.936 26.5596C193.528 27.7471 193.305 28.916 193.268 30.0664C193.231 31.0312 193.231 31.9775 193.268 32.9053C193.305 33.833 193.305 34.7793 193.268 35.7441C193.194 36.9316 193.008 38.0449 192.711 39.084C192.897 39.9746 193.064 40.9209 193.212 41.9229C193.361 42.8877 193.546 43.8525 193.769 44.8174C193.992 45.7822 194.251 46.7285 194.548 47.6562C194.882 48.5469 195.309 49.4004 195.829 50.2168C195.792 50.291 195.81 50.3467 195.884 50.3838C195.958 50.4209 196.033 50.4395 196.107 50.4395H196.552C196.738 50.4395 196.812 50.5137 196.775 50.6621C196.849 50.7734 196.905 50.8848 196.942 50.9961C196.979 51.0703 197.053 51.1445 197.165 51.2188C197.239 51.3301 197.239 51.4785 197.165 51.6641C197.127 52.4062 196.942 53.0928 196.608 53.7236C196.274 54.3545 196.07 55.041 195.996 55.7832C195.55 55.8945 195.142 55.9502 194.771 55.9502C194.14 55.9131 193.583 55.7275 193.101 55.3936C192.619 55.0967 192.173 54.7256 191.765 54.2803C191.357 53.835 190.967 53.3896 190.596 52.9443C190.225 52.4619 189.817 52.0537 189.372 51.7197C189.112 50.6807 188.852 49.5303 188.592 48.2686C188.37 47.0068 187.98 45.9307 187.423 45.04C187.572 44.7061 187.646 44.2979 187.646 43.8154C187.683 43.0732 187.609 42.3496 187.423 41.6445C187.275 40.9023 187.238 40.1602 187.312 39.418C187.312 39.0098 187.349 38.6016 187.423 38.1934C187.535 37.7852 187.609 37.377 187.646 36.9688C187.683 36.3379 187.609 35.7256 187.423 35.1318C187.275 34.5381 187.219 33.9258 187.256 33.2949C187.293 32.998 187.349 32.7197 187.423 32.46C187.535 32.1631 187.683 31.9033 187.869 31.6807C187.683 31.2354 187.627 30.8086 187.702 30.4004C187.739 29.7695 187.813 29.1758 187.924 28.6191C188.036 28.0625 188.11 27.5059 188.147 26.9492C188.147 26.6523 188.128 26.374 188.091 26.1143C188.054 25.8174 187.999 25.5391 187.924 25.2793L187.423 25.1123C187.201 25.1123 186.978 25.168 186.755 25.2793C186.57 25.3906 186.403 25.5205 186.254 25.6689C186.106 25.8174 185.976 25.9473 185.865 26.0586C185.753 26.1328 185.642 26.1699 185.531 26.1699C185.457 26.1699 185.364 26.1699 185.252 26.1699C185.178 26.1328 185.104 26.1143 185.03 26.1143C184.956 26.1143 184.807 26.1885 184.584 26.3369C184.399 26.4854 184.158 26.6523 183.861 26.8379C183.601 26.9863 183.341 27.1533 183.082 27.3389C182.822 27.4873 182.618 27.5801 182.469 27.6172C182.061 27.543 181.727 27.4131 181.467 27.2275C181.245 27.0049 181.022 26.8008 180.799 26.6152C180.614 26.3926 180.41 26.207 180.187 26.0586C179.964 25.873 179.686 25.7988 179.352 25.8359C179.241 25.6133 179.185 25.3721 179.185 25.1123C179.148 24.8525 179.148 24.5928 179.185 24.333V23.4424C179.445 22.96 179.797 22.5703 180.243 22.2734C180.651 21.9395 181.096 21.6611 181.579 21.4385L183.026 20.7705C183.508 20.5479 183.954 20.2695 184.362 19.9355H184.863C185.531 19.9727 186.106 19.8428 186.588 19.5459C187.108 19.249 187.59 18.915 188.036 18.5439C188.481 18.1357 188.926 17.7275 189.372 17.3193C189.854 16.9111 190.374 16.5957 190.93 16.373C191.338 16.5586 191.765 16.7256 192.21 16.874C192.656 16.9854 193.12 17.0596 193.602 17.0967C194.084 17.0967 194.585 17.0225 195.105 16.874C195.625 16.7256 196.033 16.4473 196.33 16.0391C196.515 16.1133 196.664 16.1689 196.775 16.2061C196.923 16.2061 197.09 16.2061 197.276 16.2061C197.833 16.2432 198.389 16.1689 198.946 15.9834C199.502 15.7607 200.041 15.501 200.56 15.2041C201.302 15.2412 202.026 15.2041 202.731 15.0928C203.473 14.9443 204.197 14.7959 204.902 14.6475C205.644 14.499 206.368 14.3691 207.073 14.2578C207.815 14.1094 208.557 14.0537 209.299 14.0908C210.524 14.1279 211.73 14.0166 212.917 13.7568C214.105 13.4971 215.311 13.4043 216.536 13.4785C217.389 13.5156 218.224 13.5898 219.041 13.7012C219.894 13.7754 220.748 13.7939 221.601 13.7568C222.083 13.9795 222.51 14.1836 222.881 14.3691C223.29 14.5176 223.791 14.5547 224.384 14.4805C225.572 15.4824 226.648 16.6514 227.613 17.9873V18.9336C227.576 19.7871 227.427 20.6221 227.167 21.4385C226.908 22.2549 226.592 23.0713 226.221 23.8877C225.887 24.667 225.516 25.4463 225.108 26.2256C224.7 26.9678 224.31 27.71 223.939 28.4521C221.527 30.6416 219.115 32.8125 216.703 34.9648C214.291 37.1172 211.804 39.1953 209.244 41.1992C209.169 41.5703 209.058 41.9043 208.91 42.2012C208.798 42.498 208.724 42.8135 208.687 43.1475C208.687 43.333 208.706 43.4814 208.743 43.5928C209.002 43.667 209.225 43.8154 209.411 44.0381C209.633 44.2236 209.708 44.4834 209.633 44.8174H210.134C210.32 44.8174 210.413 44.8916 210.413 45.04L211.303 45.0957C212.713 45.1699 214.124 45.1328 215.534 44.9844C216.944 44.8359 218.354 44.6689 219.764 44.4834C221.211 44.2979 222.64 44.1309 224.05 43.9824C225.46 43.7969 226.871 43.6855 228.281 43.6484C228.615 43.5371 228.967 43.4443 229.338 43.3701C229.709 43.2959 230.043 43.1475 230.34 42.9248H230.507C230.767 42.9248 230.953 42.999 231.064 43.1475C231.212 43.2959 231.417 43.3887 231.676 43.4258C231.862 43.4258 232.047 43.3887 232.233 43.3145C232.456 43.2402 232.678 43.1846 232.901 43.1475C233.42 42.999 233.958 42.9062 234.515 42.8691C235.109 42.832 235.684 42.7764 236.241 42.7021C238.393 42.5166 240.527 42.4053 242.642 42.3682C244.757 42.2939 246.873 42.0156 248.988 41.5332C249.173 41.793 249.433 41.9785 249.767 42.0898C250.101 42.1641 250.454 42.2568 250.825 42.3682C251.196 42.4424 251.53 42.5352 251.827 42.6465C252.161 42.7578 252.383 42.9805 252.495 43.3145Z" fill="white"/>
</svg>
