<svg height="512" viewBox="0 0 60 60" width="512" xmlns="http://www.w3.org/2000/svg"><g id="079---Tennis" transform="translate(-1 -1)"><path id="Shape" d="m24.832 37.109c.01.011.013.025.023.036s.023.012.033.021v.005c6 6 23.4.9 29.286-6.988 3.1959826-4.2200044 3.7612449-9.8737853 1.464-14.643-.0277026-.0988504-.0709058-.1926824-.128-.278-1.8703148-3.8228695-4.9620665-6.91286168-8.786-8.781-.0790229-.05113842-.1648702-.09086379-.255-.118-4.9437584-2.37470055-10.8141464-1.68166052-15.069 1.779-.012.01-.027.014-.038.025-1.5553529 1.25296141-2.8880712 2.7594538-3.942 4.456-6.462 10.269-6.377 20.708-2.593 24.491zm2.224-.751 2.813-2.813 4.172 4.173c-2.949.155-5.419-.326-6.985-1.36zm-1.362-15.472 2.761 2.76-2.829 2.829-1.071-1.075c.2586468-1.5326407.6395292-3.0421254 1.139-4.514zm2.627-5.859 4.379 4.373-2.828 2.829-3.411-3.411c.5407474-1.3010324 1.1619483-2.5671467 1.86-3.791zm9.227-7.744 3.635 3.635-2.829 2.828-4.754-4.746c1.2050142-.79963493 2.541418-1.38084193 3.948-1.717zm5.052 5.049 2.828 2.829-2.828 2.828-2.831-2.829zm7.1-1.445-2.86 2.86-2.829-2.829 2.389-2.384c1.1918201.64685541 2.3000484 1.43705575 3.3 2.353zm3.765 4.721-2.382 2.381-2.829-2.828 2.858-2.861c.915312 1.0031545 1.7051197 2.1139895 2.352 3.308zm-.465 12.792-4.749-4.749 2.828-2.829c2.784 2.784-3.686-3.685 3.635 3.635-.3355296 1.4047287-.9157159 2.7394281-1.714 3.943zm-9.824 7.147-3.411-3.411 2.835-2.836 4.375 4.375c-1.2250849.7010291-2.4929035 1.3245848-3.796 1.867zm-6.583 1.9-1.071-1.071 2.829-2.829 2.76 2.761c-1.4710709.4982457-2.9795137.8784496-4.511 1.137zm1.758-6.728-2.829-2.828 2.829-2.829 2.829 2.829zm1.414-7.071 2.835-2.831 2.828 2.829-2.828 2.829zm4.246-4.248 2.828-2.828 2.829 2.828-2.828 2.831zm11.009 2.527-2.52-2.527 1.815-1.815c.4907065 1.3940536.7294277 2.8643053.705 4.342zm-13.837-2.527-2.829 2.829-2.829-2.829 2.829-2.829zm-4.243 4.246-2.829 2.829-2.828-2.829 2.828-2.829zm-7.071 1.414 2.831 2.829-2.828 2.828-2.832-2.828zm4.242 4.24 2.829 2.828-2.829 2.832-2.828-2.829zm14.611 3.3-4.711-4.711 2.828-2.829 4.922 4.923c-.8989917.9965845-1.920043 1.875851-3.039 2.617zm-4.309-24.913-1.813 1.813-2.527-2.52c1.4771571-.02371843 2.946744.21568201 4.34.707zm-12.395 2.55 4.922 4.923-2.829 2.829-4.711-4.712c.7417898-1.1190655 1.6213562-2.1404108 2.618-3.04zm-7.737 17.721 4.174 4.173-2.816 2.816c-1.039-1.564-1.516-4.036-1.358-6.989z"/><path id="Shape" d="m3.291 60.124c1.17149955 1.1711458 3.07050045 1.1711458 4.242 0 10.014-10.016 9.9-10.48 25.121-16.451 6.526.123 13.36-2.255 18.884-5.732 11.143-7.018 12.812-20.841 3.08-30.558-9.684-9.697-23.518-8.108-30.559 3.078-3.6648849 5.6289164-5.6541938 12.1836476-5.736 18.9-1.6565079 4.7686833-3.8719361 9.3244094-6.6 13.572-2.8189073 4.2176252-6.1242997 8.0889083-9.848 11.534-1.17114581 1.1714996-1.17114581 3.0705004 0 4.242zm22.461-48.6c3.284-5.212 8.425-8.524 14.483-8.524 9.981 0 19.844 10.03 18.665 20.552-.967 8.644-8.528 12.8-8.428 12.7-9.912 6.236-22.009 7.248-26.972 2.24-5-4.955-3.989-17.052 2.252-26.965zm-2.323 29.5c-1.733.81-3.443 1.675-5.1 2.645.969-1.652 1.833-3.36 2.642-5.091.6657041.9561241 1.4983592 1.7843755 2.458 2.445zm-4.609-7.474c.2193312.9935704.5365467 1.9629703.947 2.894-1.5200597 3.4711124-3.3663492 6.7900137-5.514 9.912-.2741231.3972978-.2253275.9337018.1159853 1.2750147.3413129.3413128.8777169.3901084 1.2750147.1159853 3.116409-2.1438875 6.4292637-3.9871526 9.894-5.505.9269501.4088975 1.891949.7254279 2.881.945-10.96 4.3-13.111 6.334-19.8 13.02l-2.826-2.828c5.6542067-5.6479985 10.0881466-12.3971038 13.027-19.829zm-15.53 22.331 1.089-1.088 2.828 2.828-1.088 1.088c-.39049985.3903819-1.02350015.3903819-1.414 0l-1.415-1.409c-.18900476-.1877275-.29529457-.4431085-.29529457-.7095s.10628981-.5217725.29529457-.7095z"/><path id="Shape" d="m58.687 44.614c-2.6934072-3.2414904-7.1307973-4.4449891-11.0929286-3.0085986-3.9621312 1.4363906-6.5973725 5.2039288-6.5877784 9.4183813s2.6619613 7.9699536 6.6305913 9.3882899c3.96863 1.4183364 8.4004947.194647 11.0791157-3.0590726l.012-.015c3.0459744-3.7000309 3.0287558-9.0436755-.041-12.724zm-1.1 10.91c-1.6014005-.9443297-2.5842429-2.6649029-2.5842429-4.524s.9828424-3.5796703 2.5842429-4.524c1.8808172 2.7223187 1.8824094 6.3240194.004 9.048zm-13.178-9.048c1.6014005.9443297 2.5842429 2.6649029 2.5842429 4.524s-.9828424 3.5796703-2.5842429 4.524c-1.8796131-2.7231498-1.8796131-6.3248502 0-9.048zm1.351 10.555c2.0197459-1.3420487 3.2336168-3.6060323 3.2336168-6.031s-1.2138709-4.6889513-3.2336168-6.031c3.0000857-2.6253216 7.4799143-2.6253216 10.48 0-2.0197459 1.3420487-3.2336168 3.6060323-3.2336168 6.031s1.2138709 4.6889513 3.2336168 6.031c-3.0000857 2.6253216-7.4799143 2.6253216-10.48 0z"/><path id="Shape" d="m24 6c0-.55228475-.4477153-1-1-1h-14c-.55228475 0-1 .44771525-1 1s.44771525 1 1 1h14c.5522847 0 1-.44771525 1-1z"/><path id="Shape" d="m21 11c0-.5522847-.4477153-1-1-1h-15c-.55228475 0-1 .4477153-1 1s.44771525 1 1 1h15c.5522847 0 1-.4477153 1-1z"/><path id="Shape" d="m2 15c-.55228475 0-1 .4477153-1 1s.44771525 1 1 1h15c.5522847 0 1-.4477153 1-1s-.4477153-1-1-1z"/></g></svg>