<svg width="155" height="52" viewBox="0 0 155 52" fill="none" xmlns="http://www.w3.org/2000/svg">
<path d="M47.2716 15.9922C47.1906 16.4545 47.0197 16.8932 46.7589 17.3086L46.0214 18.4967C45.7905 18.8735 45.5982 19.2802 45.4444 19.7168C45.3205 20.1149 45.3251 20.5665 45.4581 21.0714C45.3896 21.08 45.3041 21.0908 45.2013 21.1037C45.0943 21.0823 45.0066 21.076 44.9381 21.0846C44.3903 21.1534 43.9796 21.3441 43.7059 21.6568C43.4621 21.9308 43.1113 22.1836 42.6536 22.415C42.5593 22.2182 42.45 22.0406 42.3258 21.8823C42.1973 21.6898 42.026 21.5723 41.812 21.5296C41.0118 21.804 40.2074 22.0442 39.3986 22.2502C38.5856 22.4219 37.7768 22.6279 36.9724 22.8681C36.6044 22.9839 36.2407 23.1339 35.8813 23.3182C35.5176 23.4682 35.1368 23.6204 34.7389 23.7747C34.5421 23.869 34.3238 23.9312 34.0842 23.9613C33.8402 23.9572 33.6006 23.9873 33.3652 24.0517C32.5479 24.1892 31.6663 24.3695 30.7206 24.5927C29.7706 24.7816 28.947 25.146 28.2497 25.6857C27.8988 25.6602 27.5328 25.654 27.152 25.6671C26.7711 25.6802 26.3923 25.7104 26.0157 25.7578C25.194 25.861 24.2976 26.0606 23.3262 26.3566C22.3848 26.614 21.5655 27.0125 20.8682 27.5523C20.6885 27.5053 20.4937 27.4776 20.284 27.4692C20.1085 27.4565 19.9009 27.4651 19.6613 27.4953C19.5928 27.5039 19.5436 27.5274 19.5137 27.566C19.4794 27.5703 19.4281 27.5767 19.3596 27.5853C19.3641 27.8978 19.4371 28.2016 19.5785 28.4968C19.7498 28.7535 20.0003 28.9481 20.33 29.0805C20.2404 29.4743 20.2235 29.8938 20.2794 30.3388C20.3526 30.9208 20.46 31.4985 20.6016 32.0719C20.7774 32.641 20.9019 33.2166 20.9751 33.7986C21.0568 34.4491 21.0357 34.9734 20.9119 35.3715C21.3833 36.3556 21.6922 37.4296 21.8385 38.5936C21.8901 39.0044 21.9075 39.4196 21.8906 39.839C21.9037 40.2199 21.9382 40.6329 21.9942 41.078C22.0415 41.4546 22.2171 41.7455 22.5212 41.9507C22.8209 42.1217 22.9944 42.3955 23.0417 42.7721C23.0589 42.909 23.0419 43.0503 22.9906 43.1958C23.457 43.0329 23.902 42.8379 24.3255 42.6108C24.7448 42.3494 25.1941 42.1886 25.6734 42.1284C25.9473 42.094 26.2105 42.1131 26.463 42.1856C26.7498 42.2539 27.0067 42.3608 27.2336 42.5061C27.2209 42.6816 27.2103 42.8742 27.2019 43.0839C27.2277 43.2893 27.2535 43.4948 27.2793 43.7002C27.3267 44.0768 27.3718 44.4363 27.4149 44.7786C27.4878 45.0824 27.5651 45.4205 27.6466 45.7928C27.433 46.3065 27.1615 46.7753 26.8323 47.1992C26.5372 47.6189 26.3578 48.1283 26.294 48.7275C25.7805 48.792 25.3333 48.9699 24.9526 49.2612C24.6018 49.514 24.2725 49.7988 23.9645 50.1157C23.6523 50.3984 23.3401 50.6811 23.0278 50.9637C22.7113 51.2122 22.3476 51.3622 21.9367 51.4138C21.4232 51.4784 21.0551 51.4551 20.8325 51.3439C20.6056 51.1986 20.43 51.0467 20.3058 50.8885C20.1816 50.7302 20.0595 50.589 19.9396 50.465C19.8539 50.3367 19.6763 50.3068 19.4067 50.3755C19.2823 49.939 19.0937 49.5454 18.841 49.1946C18.5839 48.8096 18.3119 48.4439 18.0249 48.0974C17.7722 47.7466 17.5023 47.398 17.2154 47.0515C16.9583 46.6665 16.7526 46.275 16.5983 45.8771C16.281 45.0128 16.0793 44.0991 15.993 43.1362C15.9068 42.1733 15.6366 41.2683 15.1824 40.4212C15.1906 39.9333 15.1817 39.4475 15.1557 38.9639C15.1254 38.4461 15.0802 37.9475 15.0199 37.4682C14.8995 36.5096 14.7469 35.5724 14.5623 34.6567C14.4076 33.7024 14.2507 32.7309 14.0917 31.7424C13.8133 31.4644 13.6163 31.1414 13.5005 30.7734C13.4146 30.3669 13.3309 29.9775 13.2493 29.6052C13.1337 29.5154 13.001 29.4277 12.8511 29.3422C12.7355 29.2524 12.6498 29.1241 12.5941 28.9572C12.3116 28.9231 12.1019 28.9147 11.9649 28.9319C11.4856 28.9922 11.0898 29.1636 10.7776 29.4463C10.4953 29.6904 10.2172 29.8297 9.94331 29.8641C9.66942 29.8985 9.40835 29.8966 9.16009 29.8582C8.91184 29.8199 8.66788 29.8157 8.42823 29.8459C8.22282 29.8717 8.10944 29.9381 8.08812 30.0451C8.09672 30.1136 8.03685 30.1906 7.90851 30.2763C7.81441 30.3577 7.58336 30.4563 7.21537 30.5721C6.84738 30.6879 6.42804 30.8101 5.95734 30.9388C5.51657 31.029 5.07581 31.1192 4.63504 31.2093C4.22852 31.2952 3.95678 31.3467 3.81984 31.3639C3.27206 31.4328 2.84832 31.3817 2.54862 31.2107C2.21038 31.0098 1.81864 30.7982 1.37339 30.5759C1.41604 30.3619 1.43307 30.2207 1.42447 30.1522C1.38144 29.8098 1.24432 29.5488 1.01309 29.3692C0.777556 29.1554 0.649034 28.9629 0.627523 28.7917C0.580197 28.4151 0.697689 28.1048 0.979999 27.8606C1.22807 27.6208 1.34126 27.2762 1.31957 26.8268C2.06397 26.3855 2.83625 26.0276 3.6364 25.7532C4.43655 25.4788 5.25812 25.2364 6.10111 25.0261C6.9441 24.8159 7.76783 24.5906 8.57228 24.3504C9.41097 24.1059 10.2218 23.778 11.0047 23.3666C11.2487 23.3707 11.4755 23.377 11.6852 23.3854C11.9249 23.3553 12.1645 23.3252 12.4042 23.2951C13.4313 23.166 14.4283 22.9364 15.3953 22.6062C16.3923 22.2375 17.4214 21.9864 18.4828 21.8531C18.7566 21.8186 19.0327 21.8013 19.3109 21.8012C19.5891 21.801 19.8694 21.8179 20.1519 21.852C21.4955 21.4745 22.8199 21.082 24.125 20.6745C25.4643 20.2628 26.8421 19.881 28.2585 19.5291C28.9347 19.3746 29.5958 19.2393 30.242 19.1234C30.9181 18.9688 31.5921 18.7972 32.2639 18.6085C32.4992 18.5441 32.6639 18.4712 32.7581 18.3899C32.8821 18.2699 32.9269 18.073 32.8925 17.7991C33.2178 17.8974 33.5688 17.9228 33.9454 17.8755C34.5274 17.8024 35.0794 17.6287 35.6013 17.3544C36.1233 17.0802 36.6753 16.9065 37.2573 16.8333C37.3942 16.8161 37.5162 16.8182 37.6232 16.8395C37.7259 16.8266 37.8286 16.8137 37.9313 16.8008C38.171 16.7707 38.2779 16.6529 38.2521 16.4475C38.2562 16.2035 38.408 16.028 38.7076 15.9208C38.9386 15.8222 39.2745 15.7278 39.7153 15.6376C40.156 15.5475 40.6139 15.4551 41.0889 15.3607C41.5939 15.2277 42.0474 15.1011 42.4497 14.981C42.8818 14.8224 43.1899 14.6446 43.3738 14.4476L43.6622 13.8375C44.2828 13.7943 44.7623 14.0123 45.1007 14.4914C45.4691 14.932 45.7069 15.4411 45.8143 16.0188C45.9685 16.1385 46.1654 16.1834 46.405 16.1532C46.6746 16.0846 46.9121 16.0373 47.1175 16.0115L47.2716 15.9922ZM73.2627 21.907C73.1688 22.2665 73.0727 22.609 72.9745 22.9343C72.8762 23.2597 72.8166 23.6149 72.7954 24.0001C72.5773 24.2014 72.3206 24.3728 72.0254 24.5142C71.7601 24.6171 71.4798 24.7393 71.1846 24.8807C70.8851 24.9879 70.607 25.1272 70.3503 25.2985C70.1236 25.4313 69.9568 25.6262 69.85 25.8831C69.8118 26.4095 69.8207 26.8953 69.8766 27.3403C69.9497 27.9223 70.1148 28.4058 70.3719 28.7909C70.3079 29.1119 70.2803 29.4457 70.2891 29.7924C70.2979 30.1391 70.3216 30.4665 70.3603 30.7746C70.5023 31.9044 70.7812 33.0169 71.1971 34.1123C71.6087 35.1734 71.9026 36.2667 72.0788 37.3922C72.1003 37.5634 72.1068 37.7539 72.0984 37.9636C72.09 38.1733 72.0965 38.3637 72.118 38.5349C72.2084 39.2539 72.5425 39.6988 73.1204 39.8696C73.0392 40.0537 73.0072 40.2142 73.0244 40.3511C73.0588 40.625 73.1232 40.8604 73.2175 41.0572C73.3118 41.254 73.3568 41.4744 73.3527 41.7183C73.5669 42.0392 73.7768 42.3258 73.9824 42.5782C74.1837 42.7963 74.3423 43.0894 74.4581 43.4574C74.2786 43.9668 74.0436 44.4484 73.7528 44.9023C73.4578 45.3219 73.2784 45.8313 73.2146 46.4305C73.0733 46.4135 72.9171 46.4157 72.7459 46.4372C72.5063 46.4674 72.3244 46.5424 72.2004 46.6623C72.0764 46.7822 71.9716 46.9171 71.8861 47.0669C71.8391 47.2467 71.7729 47.4116 71.6874 47.5614C71.6062 47.7455 71.4843 47.8825 71.3218 47.9725L71.1677 47.9919C71.0008 48.0476 70.8446 48.0499 70.6991 47.9986C70.592 47.9773 70.4872 47.9731 70.3845 47.986C70.316 47.9946 70.1834 48.046 69.9866 48.1403C69.6696 47.8324 69.4297 47.4452 69.2668 46.9788C69.1081 46.5466 69.0009 46.108 68.9449 45.663C68.8847 45.1836 68.8994 44.7471 68.989 44.3533C68.5737 44.0925 68.276 43.6604 68.0958 43.0571C67.9499 42.4494 67.7998 41.9467 67.6454 41.5487C67.2124 40.3164 66.7322 39.1248 66.2051 37.9739C65.7121 36.8186 65.3518 35.612 65.1242 34.3538C65.0297 33.8788 64.9545 33.4188 64.8986 32.9737L64.563 30.3033C64.5071 29.8583 64.4704 29.4282 64.453 29.013C64.4143 28.7049 64.3948 28.4117 64.3946 28.1336C64.4244 27.8168 64.4199 27.5044 64.3812 27.1963C64.3296 26.7854 64.1431 26.4089 63.8219 26.0668C61.4041 26.4749 59.1491 27.2104 57.0569 28.2732C54.9947 29.2974 52.9519 30.4757 50.9284 31.8081C50.8904 32.6127 50.9016 33.3938 50.962 34.1513C51.0224 34.9088 51.1021 35.6812 51.2011 36.4687L51.485 38.7282C51.5926 39.5841 51.7172 40.2988 51.8588 40.8722C52.1547 41.8435 52.748 42.5514 53.6385 42.996C54.5589 43.4019 55.4643 43.6881 56.3546 43.8544C56.3849 44.3723 56.3381 44.8302 56.2142 45.2283C56.0861 45.5922 55.9044 45.9454 55.6693 46.288C55.464 46.592 55.2246 46.9003 54.9509 47.2129C54.6771 47.5255 54.4077 47.8723 54.1426 48.2534C53.8472 48.1167 53.5583 48.0312 53.2758 47.9972C52.9933 47.9631 52.698 47.9655 52.3899 48.0042C52.0775 48.0087 51.765 48.0132 51.4526 48.0177C51.1402 48.0221 50.8235 47.9924 50.5024 47.9284L49.179 46.5298C48.7379 46.0635 48.2625 45.6016 47.7529 45.144L47.6949 44.6818C47.5787 43.7575 47.2956 42.8888 46.8457 42.076C46.3958 41.2631 46.0293 40.4223 45.7463 39.5537C45.8103 39.2327 45.84 38.916 45.8355 38.6035C45.8311 38.2911 45.8073 37.9637 45.7643 37.6214C45.6782 36.9366 45.5601 36.2733 45.4099 35.6315C45.2939 34.9853 45.2293 34.3327 45.216 33.6736L44.9592 33.7058C44.6511 33.7446 44.3366 33.871 44.0158 34.0852C43.6906 34.2652 43.3698 34.4794 43.0532 34.7278C42.7666 34.9377 42.48 35.1476 42.1934 35.3575C41.9367 35.5289 41.7057 35.6275 41.5003 35.6533C41.3976 35.6662 41.2927 35.662 41.1857 35.6407C41.0787 35.6193 40.9567 35.6173 40.8198 35.6345C40.6486 35.656 40.4518 35.7503 40.2293 35.9173C40.0069 36.0844 39.7695 36.2707 39.5171 36.4763C39.2262 36.652 38.9353 36.8277 38.6444 37.0033C38.3534 37.179 38.0539 37.2862 37.7458 37.3249C37.2665 37.3851 36.7614 37.2399 36.2305 36.8893C36.1276 36.6241 36.0782 36.3694 36.0823 36.1255C36.0522 35.8858 36.0199 35.6291 35.9855 35.3552C35.9511 35.0813 35.8632 34.7967 35.7217 34.5015C35.9054 34.0263 36.1877 33.6431 36.5684 33.3518C36.9106 33.0306 37.2913 32.7393 37.7105 32.478C38.0912 32.1867 38.4912 31.9104 38.9105 31.6491C39.3254 31.3535 39.6633 30.998 39.9241 30.5827L40.2322 30.544C40.7115 30.4838 41.1266 30.3273 41.4773 30.0745C41.8624 29.8175 42.3138 29.6738 42.8316 29.6435C42.9942 29.5535 43.0818 29.2817 43.0943 28.828L43.3062 28.8536C44.0594 28.7589 44.6947 28.4183 45.2122 27.8316C45.322 25.6616 45.3613 23.4832 45.3299 21.2962C45.2985 19.1092 45.1472 16.9373 44.8762 14.7804C44.8504 14.575 44.7561 14.3782 44.5933 14.19C44.4905 13.9247 44.424 13.6722 44.3938 13.4326L44.297 12.6623C44.2497 12.2857 44.2173 11.8898 44.2 11.4747C44.1826 11.0595 44.2165 10.638 44.3018 10.2099C44.6184 9.96147 44.965 9.81359 45.3416 9.76627C45.7866 9.71034 46.2232 9.72503 46.6512 9.81035C47.1092 9.85712 47.5479 9.88893 47.9673 9.90578C48.3142 10.1752 48.5797 10.4896 48.764 10.849C48.9825 11.204 49.1347 11.5849 49.2206 11.9914C49.3021 12.3637 49.3516 12.7574 49.369 13.1725C49.4163 13.5491 49.4636 13.9257 49.511 14.3023C49.6056 15.0555 49.7837 15.7808 50.0452 16.4783C50.3068 17.1757 50.4805 17.8668 50.5666 18.5515C50.5881 18.7227 50.5368 18.8682 50.4128 18.9881C50.3187 19.0695 50.2953 19.2985 50.3426 19.6751C50.39 20.0517 50.4737 20.4411 50.5938 20.8433C50.7139 21.2456 50.7997 21.6521 50.8514 22.0629C50.9116 22.5422 50.9055 23.0473 50.8331 23.578C50.7607 24.1087 50.7033 24.6202 50.6608 25.1124C52.6934 24.6831 54.7667 24.1618 56.8805 23.5484C58.9943 22.9349 60.9797 22.129 62.8365 21.1306C62.8621 21.0578 62.8663 20.953 62.8491 20.816C62.8233 20.6106 62.7803 20.4074 62.7203 20.2062C62.6602 20.0051 62.6152 19.7847 62.5851 19.5451C62.5334 19.1343 62.6295 18.7918 62.8733 18.5177C62.5816 17.5806 62.3413 16.6371 62.1524 15.6871C61.9635 14.7371 61.8088 13.7828 61.6883 12.8242L61.3204 9.89701C61.2 8.9384 61.0624 7.98195 60.9077 7.02765C61.1601 6.82205 61.4403 6.69989 61.7484 6.66117C62.125 6.61384 62.4803 6.67353 62.8142 6.84022C63.1781 6.96838 63.5826 7.00449 64.0276 6.94856C64.3358 6.90984 64.5861 6.82622 64.7786 6.6977C65.1982 6.99273 65.5109 7.40553 65.7167 7.9361C65.9225 8.46666 66.1133 9.0165 66.2891 9.5856C66.465 10.1547 66.6408 10.7238 66.8167 11.2929C67.0225 11.8235 67.3352 12.2363 67.7548 12.5313L67.8255 12.6789C67.8427 12.8159 67.7871 12.9272 67.6588 13.0129C67.5305 13.0985 67.4792 13.2441 67.505 13.4495L67.5308 13.6549C67.7366 14.1855 67.9103 14.7375 68.0519 15.3109C68.1935 15.8843 68.3202 16.477 68.4318 17.0889C68.5735 17.6623 68.7322 18.2336 68.908 18.8027C69.0796 19.3375 69.3324 19.8274 69.6665 20.2723C69.8334 20.2165 70.0538 20.1715 70.3277 20.137C71.0124 20.051 71.5732 20.224 72.01 20.6559C72.4768 21.0494 72.8943 21.4664 73.2627 21.907ZM117.299 36.926C117.257 37.4182 117.084 37.8399 116.78 38.191C116.506 38.5036 116.158 38.7735 115.734 39.0006C115.311 39.2277 114.864 39.4056 114.393 39.5343C113.952 39.6245 113.543 39.6932 113.167 39.7406C112.996 39.7621 112.824 39.7836 112.653 39.8051C112.512 39.7881 112.356 39.7903 112.185 39.8118C112.013 39.8333 111.939 39.9297 111.96 40.1009C111.982 40.272 111.911 40.4026 111.749 40.4926C111.569 40.4457 111.391 40.4158 111.216 40.4031C111.04 40.3904 110.867 40.3948 110.696 40.4163C110.456 40.4464 110.219 40.4936 109.983 40.558C109.782 40.618 109.579 40.661 109.373 40.6868C109.099 40.7212 108.89 40.7128 108.744 40.6615C108.633 40.6059 108.522 40.5504 108.41 40.4948C108.329 40.4007 108.23 40.3088 108.115 40.219C108.033 40.1248 107.903 40.0543 107.723 40.0074C107.47 39.9348 107.263 39.9435 107.1 40.0334C106.972 40.1191 106.737 40.0444 106.394 39.8092C105.94 39.5185 105.529 39.1528 105.161 38.7122C104.822 38.2331 104.482 37.7369 104.139 37.2235C103.796 36.7102 103.436 36.199 103.059 35.6899C102.682 35.1809 102.263 34.7467 101.8 34.3875L101.389 34.4392C100.773 34.5166 100.378 34.8271 100.202 35.3708C100.018 35.2896 99.8321 35.1913 99.6437 35.0759C99.451 34.9262 99.2455 34.8129 99.0272 34.736C98.2699 35.0746 97.474 35.3833 96.6397 35.662C95.8053 35.9408 94.9601 36.1339 94.1042 36.2415L93.3853 36.3318C93.1799 36.3576 92.953 36.3514 92.7048 36.313C92.3796 36.493 92.093 36.7029 91.8449 36.9427C91.5926 37.1483 91.2952 37.2726 90.9528 37.3156C90.7474 37.3415 90.4992 37.3031 90.2081 37.2006C90.0026 37.2264 89.9107 37.3249 89.9322 37.4961C89.988 37.6629 89.896 37.7614 89.6564 37.7916L89.1942 37.8496C88.7149 37.9099 88.2377 37.9872 87.7627 38.0817C87.3219 38.1719 86.8619 38.2471 86.3826 38.3073C85.7321 38.389 85.0538 38.3873 84.3475 38.3022C84.1893 38.4264 84.0074 38.5014 83.802 38.5273C83.6737 38.6129 83.586 38.7457 83.5391 38.9255C83.4878 39.071 83.4365 39.2165 83.3853 39.3621C83.3297 39.4734 83.2399 39.589 83.1159 39.7089C83.0218 39.7903 82.8699 39.8268 82.6601 39.8184C82.6433 40.2378 82.513 40.5846 82.2692 40.8586C82.0254 41.1327 81.9337 41.5094 81.9939 41.9887C81.6431 42.2414 81.3673 42.5369 81.1663 42.8752C80.9654 43.2134 80.7666 43.5688 80.57 43.9412C80.3734 44.3137 80.1575 44.6712 79.9223 45.0138C79.7214 45.352 79.4434 45.6304 79.0883 45.8489C78.9429 46.0758 78.9324 46.4075 79.0568 46.844C78.719 47.1994 78.2912 47.5314 77.7735 47.8399C77.2559 48.1484 76.7574 48.3327 76.2781 48.393C75.2853 48.5177 74.5338 48.0731 74.0239 47.0591C73.9809 46.7168 73.9699 46.353 73.9911 45.9678C73.9737 45.5527 73.9948 45.1675 74.0545 44.8122C74.1099 44.4227 74.2231 44.0781 74.3941 43.7784C74.5608 43.4444 74.8238 43.1853 75.1832 43.0011C75.1445 42.6929 75.016 42.5004 74.7976 42.4235C74.575 42.3124 74.4614 42.1006 74.457 41.7882C75.3254 41.227 76.0568 40.5439 76.6512 39.7389C77.2455 38.9339 77.7671 38.1032 78.216 37.247C78.6947 36.3522 79.1735 35.4574 79.6522 34.5626C80.131 33.6678 80.689 32.8499 81.3262 32.1091L81.1907 31.0307C82.0801 29.8061 82.5928 28.4897 82.7288 27.0815C83.0968 26.9657 83.3149 26.7644 83.3832 26.4776C83.4858 26.1865 83.5134 25.8527 83.466 25.4761C83.6372 25.4546 83.7313 25.3732 83.7483 25.232C83.7953 25.0522 83.9429 24.9815 84.1912 25.0198C84.396 24.1594 84.6437 23.3632 84.9343 22.6312C85.2248 21.8991 85.5154 21.1671 85.8059 20.435C86.0922 19.6688 86.3249 18.8918 86.5042 18.1042C86.7176 17.3123 86.8348 16.4455 86.8555 15.504C87.3305 15.4095 87.5593 15.1547 87.542 14.7396C87.5545 14.2859 87.5735 13.8836 87.5989 13.5326C88.0522 12.9888 88.3579 12.3765 88.5158 11.696C88.7079 11.011 88.8637 10.3133 88.983 9.6028C89.0981 8.85803 89.2324 8.12823 89.386 7.41339C89.5696 6.66002 89.8666 5.97933 90.277 5.37132L90.2577 5.21726C90.2362 5.04608 90.1548 4.95198 90.0135 4.93495C89.868 4.88369 89.7845 4.77247 89.763 4.60129C89.7929 4.56275 89.8057 4.52636 89.8014 4.49213C90.1907 4.26932 90.4644 3.95671 90.6225 3.5543C90.7763 3.11766 91.0479 2.78793 91.4372 2.56512C92.2293 3.05678 92.9078 3.33667 93.4728 3.40478C94.0335 3.43865 94.7632 3.43389 95.6619 3.3905C96.1672 3.81387 96.48 4.36577 96.6003 5.04618C96.7505 5.68806 96.9521 6.32349 97.205 6.95246C97.6166 8.01359 98.0431 9.05545 98.4846 10.078C98.956 11.0621 99.3462 12.0911 99.655 13.1652C99.8395 13.8028 100.105 14.3953 100.452 14.9429C100.799 15.4905 101.063 16.066 101.243 16.6693C101.372 17.14 101.441 17.6878 101.45 18.3127C101.454 18.9033 101.587 19.4082 101.849 19.8275L102.311 20.604C102.53 20.959 102.716 21.3355 102.871 21.7335C103.059 22.1271 103.231 22.5229 103.385 22.9208C103.788 23.9134 104.167 24.996 104.523 26.1684C104.909 27.3023 105.402 28.3185 106.002 29.2169C106.216 29.5377 106.503 29.7451 106.863 29.839C107.256 29.9286 107.68 29.9797 108.134 29.9922C108.583 29.9706 109.013 29.9339 109.424 29.8823C109.865 29.7921 110.239 29.7277 110.547 29.6889L111.061 29.6244C111.266 29.5986 111.476 29.607 111.69 29.6497C111.861 29.9063 111.96 30.1374 111.986 30.3428C112.037 30.7536 111.941 31.0961 111.698 31.3702C111.454 31.6442 111.351 31.9353 111.39 32.2434C111.412 32.4146 111.504 32.5943 111.666 32.7825C111.525 32.7655 111.318 32.7742 111.044 32.8086C110.256 32.9076 109.503 33.1413 108.784 33.5099C109.131 34.0574 109.553 34.5087 110.05 34.8636C110.577 35.18 111.118 35.477 111.675 35.7549C111.983 35.438 112.325 35.2558 112.702 35.2085C113.112 35.1569 113.502 35.2123 113.87 35.3747C114.268 35.4985 114.673 35.5346 115.084 35.483C115.392 35.4443 115.608 35.365 115.732 35.245C116.044 35.5188 116.308 35.816 116.522 36.1369C116.732 36.4235 116.991 36.6865 117.299 36.926ZM100.193 30.7293C100.051 30.1559 99.8799 29.7601 99.6786 29.542C99.5072 29.2853 99.3466 28.9751 99.1965 28.6114C98.9993 28.1494 98.8321 27.6487 98.6948 27.1095C98.5917 26.5661 98.4566 26.044 98.2893 25.5434C97.9034 24.4095 97.4832 23.2799 97.0288 22.1546C96.6087 21.025 96.1072 19.9404 95.5245 18.9007C95.6356 18.6781 95.6804 18.4812 95.6589 18.31L95.6395 18.156C95.2884 17.8523 95.0142 17.4695 94.817 17.0074C94.6156 16.5111 94.4162 16.0318 94.2191 15.5697C94.0518 15.0691 93.8397 14.6263 93.5826 14.2413C93.3555 13.8177 93.0193 13.4948 92.5741 13.2725C92.4972 13.4909 92.476 13.737 92.5104 14.0109C92.5405 14.2505 92.5856 14.4709 92.6456 14.672C92.7399 14.8688 92.8021 15.0871 92.8322 15.3267C92.5114 15.5409 92.289 15.8471 92.1652 16.2452C92.0713 16.6047 91.866 16.9087 91.5495 17.1572C91.4133 18.2871 91.1508 19.3808 90.762 20.4382C90.3689 21.4613 89.9416 22.4888 89.4801 23.5205C89.0528 24.548 88.6447 25.5904 88.2559 26.6478C87.8629 27.6709 87.579 28.7325 87.4042 29.8325C86.9979 30.1966 86.7392 30.629 86.6283 31.1298C86.5516 31.6263 86.5433 32.1142 86.6035 32.5935C86.9332 32.726 87.2884 32.7857 87.6693 32.7726C88.0802 32.721 88.4739 32.6715 88.8505 32.6242C89.2271 32.5768 89.5909 32.5659 89.9418 32.5914C90.2928 32.6168 90.6224 32.7493 90.9307 32.9887C91.3586 32.7959 91.8271 32.65 92.3364 32.5513C92.8755 32.414 93.3013 32.204 93.6135 31.9213C94.3283 32.0749 95.0795 32.1022 95.8669 32.0033C96.2777 31.9516 96.6671 31.8679 97.0351 31.7521C97.4373 31.632 97.8203 31.497 98.184 31.3469C98.5007 31.3767 98.7554 31.4664 98.9481 31.6161C99.1365 31.7315 99.3997 31.7506 99.7378 31.6733C99.8918 31.5149 99.9773 31.365 99.9943 31.2238C100.007 31.0483 100.073 30.8835 100.193 30.7293ZM154.807 2.47858C154.726 2.94086 154.555 3.37965 154.294 3.79497L153.556 4.98311C153.326 5.35989 153.133 5.7666 152.979 6.20324C152.856 6.60135 152.86 7.05287 152.993 7.55781C152.925 7.56641 152.839 7.57717 152.736 7.59007C152.629 7.56874 152.542 7.56238 152.473 7.57099C151.925 7.63982 151.515 7.83055 151.241 8.14316C150.997 8.41723 150.646 8.66997 150.189 8.90138C150.094 8.70457 149.985 8.52703 149.861 8.36875C149.732 8.17625 149.561 8.05866 149.347 8.016C148.547 8.29044 147.742 8.53064 146.934 8.7366C146.121 8.90833 145.312 9.11429 144.507 9.35449C144.139 9.47029 143.776 9.62032 143.416 9.80459C143.053 9.95463 142.672 10.1068 142.274 10.2611C142.077 10.3554 141.859 10.4176 141.619 10.4477C141.375 10.4436 141.136 10.4737 140.9 10.5381C140.083 10.6756 139.201 10.8559 138.256 11.0791C137.306 11.268 136.482 11.6324 135.785 12.1721C135.434 12.1466 135.068 12.1404 134.687 12.1535C134.306 12.1666 133.927 12.1968 133.551 12.2442C132.729 12.3474 131.833 12.547 130.861 12.843C129.92 13.1004 129.101 13.4989 128.403 14.0387C128.224 13.9917 128.029 13.964 127.819 13.9556C127.644 13.9429 127.436 13.9516 127.196 13.9817C127.128 13.9903 127.079 14.0138 127.049 14.0524C127.015 14.0567 126.963 14.0631 126.895 14.0717C126.899 14.3842 126.972 14.688 127.114 14.9832C127.285 15.2399 127.535 15.4345 127.865 15.5669C127.775 15.9607 127.759 16.3802 127.815 16.8252C127.888 17.4072 127.995 17.9849 128.137 18.5583C128.312 19.1275 128.437 19.703 128.51 20.285C128.592 20.9355 128.571 21.4598 128.447 21.8579C128.918 22.842 129.227 23.916 129.374 25.08C129.425 25.4909 129.443 25.906 129.426 26.3254C129.439 26.7063 129.473 27.1193 129.529 27.5644C129.577 27.941 129.752 28.2319 130.056 28.4371C130.356 28.6081 130.529 28.8819 130.577 29.2585C130.594 29.3954 130.577 29.5367 130.526 29.6822C130.992 29.5193 131.437 29.3243 131.861 29.0972C132.28 28.8358 132.729 28.675 133.208 28.6148C133.482 28.5804 133.746 28.5995 133.998 28.6721C134.285 28.7403 134.542 28.8472 134.769 28.9925C134.756 29.168 134.745 29.3606 134.737 29.5703C134.763 29.7758 134.789 29.9812 134.814 30.1866C134.862 30.5632 134.907 30.9227 134.95 31.265C135.023 31.5688 135.1 31.9069 135.182 32.2792C134.968 32.7929 134.697 33.2617 134.367 33.6857C134.072 34.1053 133.893 34.6147 133.829 35.2139C133.316 35.2784 132.868 35.4564 132.488 35.7476C132.137 36.0004 131.808 36.2852 131.5 36.6021C131.187 36.8848 130.875 37.1675 130.563 37.4501C130.246 37.6986 129.883 37.8486 129.472 37.9002C128.958 37.9648 128.59 37.9415 128.368 37.8303C128.141 37.685 127.965 37.5332 127.841 37.3749C127.717 37.2166 127.595 37.0755 127.475 36.9514C127.389 36.8231 127.211 36.7932 126.942 36.8619C126.817 36.4254 126.629 36.0318 126.376 35.681C126.119 35.296 125.847 34.9303 125.56 34.5838C125.307 34.233 125.037 33.8844 124.75 33.5379C124.493 33.1529 124.288 32.7614 124.133 32.3635C123.816 31.4992 123.614 30.5855 123.528 29.6226C123.442 28.6597 123.172 27.7547 122.717 26.9076C122.726 26.4197 122.717 25.9339 122.691 25.4503C122.66 24.9325 122.615 24.4339 122.555 23.9546C122.435 22.996 122.282 22.0588 122.097 21.1431C121.943 20.1888 121.786 19.2173 121.627 18.2288C121.348 17.9508 121.151 17.6278 121.036 17.2598C120.95 16.8533 120.866 16.4639 120.784 16.0916C120.669 16.0018 120.536 15.9141 120.386 15.8286C120.271 15.7388 120.185 15.6105 120.129 15.4436C119.847 15.4095 119.637 15.4011 119.5 15.4183C119.021 15.4786 118.625 15.65 118.313 15.9327C118.03 16.1768 117.752 16.3161 117.478 16.3505C117.204 16.3849 116.943 16.383 116.695 16.3446C116.447 16.3063 116.203 16.3021 115.963 16.3323C115.758 16.3581 115.645 16.4245 115.623 16.5315C115.632 16.6 115.572 16.677 115.444 16.7627C115.349 16.8441 115.118 16.9427 114.75 17.0585C114.382 17.1743 113.963 17.2965 113.492 17.4252C113.052 17.5154 112.611 17.6056 112.17 17.6957C111.764 17.7816 111.492 17.8331 111.355 17.8504C110.807 17.9192 110.383 17.8681 110.084 17.6971C109.745 17.4962 109.354 17.2846 108.908 17.0623C108.951 16.8483 108.968 16.7071 108.96 16.6386C108.917 16.2962 108.779 16.0352 108.548 15.8556C108.313 15.6418 108.184 15.4493 108.163 15.2781C108.115 14.9015 108.233 14.5912 108.515 14.347C108.763 14.1072 108.876 13.7626 108.855 13.3132C109.599 12.8719 110.371 12.514 111.171 12.2396C111.972 11.9652 112.793 11.7228 113.636 11.5125C114.479 11.3023 115.303 11.077 116.107 10.8368C116.946 10.5923 117.757 10.2644 118.54 9.85302C118.784 9.85714 119.011 9.86341 119.22 9.87184C119.46 9.84172 119.7 9.8116 119.939 9.78149C120.966 9.65242 121.963 9.42279 122.93 9.09261C123.927 8.72389 124.957 8.47284 126.018 8.33947C126.292 8.30505 126.568 8.28775 126.846 8.28757C127.124 8.28738 127.404 8.30432 127.687 8.33837C129.031 7.96086 130.355 7.56839 131.66 7.16095C132.999 6.7492 134.377 6.36739 135.794 6.01551C136.47 5.861 137.131 5.72575 137.777 5.60977C138.453 5.45525 139.127 5.28361 139.799 5.09486C140.034 5.03051 140.199 4.95764 140.293 4.87626C140.417 4.75634 140.462 4.55944 140.428 4.28555C140.753 4.38378 141.104 4.40923 141.48 4.3619C142.062 4.28876 142.614 4.11507 143.136 3.84081C143.658 3.56656 144.21 3.39286 144.792 3.31972C144.929 3.30251 145.051 3.30457 145.158 3.3259C145.261 3.313 145.364 3.30009 145.466 3.28718C145.706 3.25707 145.813 3.1393 145.787 2.93388C145.791 2.68993 145.943 2.51436 146.243 2.40716C146.474 2.30858 146.81 2.2142 147.25 2.12403C147.691 2.03387 148.149 1.94155 148.624 1.84708C149.129 1.71407 149.583 1.58752 149.985 1.46742C150.417 1.30878 150.725 1.13097 150.909 0.933975L151.197 0.323907C151.818 0.280701 152.297 0.498659 152.636 0.977779C153.004 1.41836 153.242 1.92751 153.349 2.50522C153.504 2.62495 153.7 2.66976 153.94 2.63964C154.21 2.57099 154.447 2.52375 154.653 2.49794L154.807 2.47858Z" fill="white"/>
</svg>
